%FSTAX23Y23*%
%MOIN*%
%SFA1B1*%

%IPPOS*%
%ADD10C,0.010000*%
%ADD14C,0.020000*%
%LNobdii-bo-1*%
%LPD*%
G54D10*
X00476Y00109D02*
X0198D01*
Y00857*
X00476D02*
X0198D01*
X00476Y00109D02*
Y00857D01*
X01346Y-0061D02*
Y-00365D01*
X02173*
Y-0061D02*
Y-00365D01*
X01346Y-0061D02*
X02173D01*
X00338Y-00608D02*
Y-00363D01*
X01165*
Y-00608D02*
Y-00363D01*
X00338Y-00608D02*
X01165D01*
X00254Y-00608D02*
X00268D01*
X00261*
Y-00568*
X00254Y-00574*
X00314Y-00568D02*
X00301Y-00574D01*
X00288Y-00588*
Y-00601*
X00294Y-00608*
X00308*
X00314Y-00601*
Y-00594*
X00308Y-00588*
X00288*
X013Y-00576D02*
X01307Y-0057D01*
X0132*
X01327Y-00576*
Y-00583*
X0132Y-0059*
X01327Y-00596*
Y-00603*
X0132Y-0061*
X01307*
X013Y-00603*
Y-00596*
X01307Y-0059*
X013Y-00583*
Y-00576*
X01307Y-0059D02*
X0132D01*
X01186Y-00601D02*
X01192Y-00608D01*
X01205*
X01212Y-00601*
Y-00574*
X01205Y-00568*
X01192*
X01186Y-00574*
Y-00581*
X01192Y-00588*
X01212*
X02195Y-00608D02*
X02208D01*
X02201*
Y-00568*
X02195Y-00574*
X02044Y00363D02*
Y00389D01*
X0205*
X02077Y00363*
X02084*
Y00389*
X02044Y00402D02*
Y00416D01*
Y00409*
X02084*
Y00402*
Y00416*
Y00436D02*
X02044D01*
Y00456*
X0205Y00462*
X02064*
X0207Y00456*
Y00436*
X02044Y00516D02*
Y00542D01*
Y00529*
X02084*
X02044Y00556D02*
Y00569D01*
Y00562*
X02084*
Y00556*
Y00569*
X02044Y00616D02*
Y00589D01*
X02084*
Y00616*
X02064Y00589D02*
Y00602D01*
X0038Y-00307D02*
X00406D01*
X0042Y-00293*
X00406Y-0028*
X0038*
Y-00267D02*
X0042D01*
Y-00247*
X00413Y-0024*
X00406*
X004Y-00247*
Y-00267*
Y-00247*
X00393Y-0024*
X00386*
X0038Y-00247*
Y-00267*
X0042Y-00227D02*
X00393D01*
X0038Y-00213*
X00393Y-002*
X0042*
X004*
Y-00227*
X0038Y-00187D02*
Y-0016D01*
Y-00173*
X0042*
X00486Y-0031D02*
X00526D01*
Y-00283*
X00506Y-0027D02*
Y-00243D01*
X00486Y-0023D02*
X00526D01*
Y-00203*
Y-0019D02*
Y-00176D01*
Y-00183*
X00499*
Y-0019*
X00526Y-00156D02*
X00499D01*
Y-00136*
X00506Y-0013*
X00526*
Y-00096D02*
Y-0011D01*
X00519Y-00116*
X00506*
X00499Y-0011*
Y-00096*
X00506Y-0009*
X00512*
Y-00116*
X00587Y-00307D02*
Y-00293D01*
Y-003*
X00627*
Y-00307*
Y-00293*
X00593Y-00247D02*
X00587Y-00253D01*
Y-00267*
X00593Y-00273*
X006*
X00607Y-00267*
Y-00253*
X00613Y-00247*
X0062*
X00627Y-00253*
Y-00267*
X0062Y-00273*
X00587Y-00213D02*
Y-00227D01*
X00593Y-00233*
X0062*
X00627Y-00227*
Y-00213*
X0062Y-00207*
X00593*
X00587Y-00213*
X00593Y-00127D02*
X00587Y-00133D01*
Y-00147*
X00593Y-00153*
X0062*
X00627Y-00147*
Y-00133*
X0062Y-00127*
X00627Y-00113D02*
X006D01*
X00587Y-001*
X006Y-00087*
X00627*
X00607*
Y-00113*
X00627Y-00073D02*
X00587D01*
X00627Y-00047*
X00587*
X00607Y-00033D02*
Y-00007D01*
X00587Y00006D02*
X00627D01*
Y00032*
X00691Y-00283D02*
Y-00296D01*
Y-0029*
X00724*
X00731Y-00296*
Y-00303*
X00724Y-0031*
X00731Y-0027D02*
Y-00256D01*
Y-00263*
X00691*
X00697Y-0027*
X00691Y-00236D02*
Y-0021D01*
X00697*
X00724Y-00236*
X00731*
X00697Y-00196D02*
X00691Y-0019D01*
Y-00176*
X00697Y-0017*
X00724*
X00731Y-00176*
Y-0019*
X00724Y-00196*
X00697*
Y-00156D02*
X00691Y-0015D01*
Y-00136*
X00697Y-0013*
X00704*
X00711Y-00136*
X00717Y-0013*
X00724*
X00731Y-00136*
Y-0015*
X00724Y-00156*
X00717*
X00711Y-0015*
X00704Y-00156*
X00697*
X00711Y-0015D02*
Y-00136D01*
Y-00116D02*
Y-0009D01*
X00793Y-00286D02*
Y-00299D01*
Y-00293*
X00826*
X00833Y-00299*
Y-00306*
X00826Y-00313*
X00833Y-00273D02*
Y-00259D01*
Y-00266*
X00793*
X00799Y-00273*
X00793Y-00239D02*
Y-00213D01*
X00799*
X00826Y-00239*
X00833*
X00799Y-00199D02*
X00793Y-00193D01*
Y-00179*
X00799Y-00173*
X00826*
X00833Y-00179*
Y-00193*
X00826Y-00199*
X00799*
Y-00159D02*
X00793Y-00153D01*
Y-00139*
X00799Y-00133*
X00806*
X00813Y-00139*
X00819Y-00133*
X00826*
X00833Y-00139*
Y-00153*
X00826Y-00159*
X00819*
X00813Y-00153*
X00806Y-00159*
X00799*
X00813Y-00153D02*
Y-00139D01*
Y-00119D02*
Y-00093D01*
X00799Y-00106D02*
X00826D01*
X00886Y-00287D02*
Y-003D01*
Y-00294*
X00919*
X00926Y-003*
Y-00307*
X00919Y-00314*
X00926Y-00274D02*
Y-0026D01*
Y-00267*
X00886*
X00892Y-00274*
X00919Y-0024D02*
X00926Y-00234D01*
Y-0022*
X00919Y-00214*
X00892*
X00886Y-0022*
Y-00234*
X00892Y-0024*
X00899*
X00906Y-00234*
Y-00214*
X00892Y-002D02*
X00886Y-00194D01*
Y-0018*
X00892Y-00174*
X00899*
X00906Y-0018*
Y-00187*
Y-0018*
X00912Y-00174*
X00919*
X00926Y-0018*
Y-00194*
X00919Y-002*
Y-0016D02*
X00926Y-00154D01*
Y-0014*
X00919Y-00134*
X00892*
X00886Y-0014*
Y-00154*
X00892Y-0016*
X00899*
X00906Y-00154*
Y-00134*
Y-0012D02*
Y-00094D01*
X00886Y-0008D02*
X00926D01*
Y-00054*
X00985Y-00287D02*
Y-003D01*
Y-00294*
X01018*
X01025Y-003*
Y-00307*
X01018Y-00314*
X01025Y-00274D02*
Y-0026D01*
Y-00267*
X00985*
X00991Y-00274*
Y-0024D02*
X00985Y-00234D01*
Y-0022*
X00991Y-00214*
X00998*
X01005Y-0022*
X01011Y-00214*
X01018*
X01025Y-0022*
Y-00234*
X01018Y-0024*
X01011*
X01005Y-00234*
X00998Y-0024*
X00991*
X01005Y-00234D02*
Y-0022D01*
X00985Y-00174D02*
Y-002D01*
X01005*
X00998Y-00187*
Y-0018*
X01005Y-00174*
X01018*
X01025Y-0018*
Y-00194*
X01018Y-002*
X00991Y-0016D02*
X00985Y-00154D01*
Y-0014*
X00991Y-00134*
X01018*
X01025Y-0014*
Y-00154*
X01018Y-0016*
X00991*
X01005Y-0012D02*
Y-00094D01*
X01496Y-00315D02*
X01536D01*
X01522*
X01496Y-00288*
X01516Y-00308*
X01536Y-00288*
X01516Y-00275D02*
Y-00248D01*
X01496Y-00235D02*
X01536D01*
Y-00208*
Y-00195D02*
Y-00181D01*
Y-00188*
X01509*
Y-00195*
X01536Y-00161D02*
X01509D01*
Y-00141*
X01516Y-00135*
X01536*
Y-00101D02*
Y-00115D01*
X01529Y-00121*
X01516*
X01509Y-00115*
Y-00101*
X01516Y-00095*
X01522*
Y-00121*
X01596Y-00315D02*
Y-00301D01*
Y-00308*
X01636*
Y-00315*
Y-00301*
X01602Y-00255D02*
X01596Y-00261D01*
Y-00275*
X01602Y-00281*
X01609*
X01616Y-00275*
Y-00261*
X01622Y-00255*
X01629*
X01636Y-00261*
Y-00275*
X01629Y-00281*
X01596Y-00221D02*
Y-00235D01*
X01602Y-00241*
X01629*
X01636Y-00235*
Y-00221*
X01629Y-00215*
X01602*
X01596Y-00221*
X01602Y-00135D02*
X01596Y-00141D01*
Y-00155*
X01602Y-00161*
X01629*
X01636Y-00155*
Y-00141*
X01629Y-00135*
X01636Y-00121D02*
X01609D01*
X01596Y-00108*
X01609Y-00095*
X01636*
X01616*
Y-00121*
X01636Y-00081D02*
X01596D01*
X01636Y-00055*
X01596*
X01616Y-00041D02*
Y-00015D01*
X01596Y-00001D02*
X01636D01*
X01616*
Y00024*
X01596*
X01636*
X017Y-00288D02*
X01694Y-00295D01*
Y-00308*
X017Y-00315*
X01727*
X01734Y-00308*
Y-00295*
X01727Y-00288*
X01714*
Y-00301*
X01734Y-00275D02*
X01694D01*
X01734Y-00248*
X01694*
Y-00235D02*
X01734D01*
Y-00215*
X01727Y-00208*
X017*
X01694Y-00215*
Y-00235*
X018Y-00288D02*
X01794Y-00295D01*
Y-00308*
X018Y-00315*
X01827*
X01834Y-00308*
Y-00295*
X01827Y-00288*
X01794Y-00275D02*
X01834D01*
X01814*
X01807Y-00268*
Y-00255*
X01814Y-00248*
X01834*
X01807Y-00228D02*
Y-00215D01*
X01814Y-00208*
X01834*
Y-00228*
X01827Y-00235*
X0182Y-00228*
Y-00208*
X01834Y-00195D02*
Y-00175D01*
X01827Y-00168*
X0182Y-00175*
Y-00188*
X01814Y-00195*
X01807Y-00188*
Y-00168*
X01834Y-00155D02*
Y-00135D01*
X01827Y-00128*
X0182Y-00135*
Y-00148*
X01814Y-00155*
X01807Y-00148*
Y-00128*
X01834Y-00115D02*
Y-00101D01*
Y-00108*
X01807*
Y-00115*
X01834Y-00081D02*
Y-00061D01*
X01827Y-00055*
X0182Y-00061*
Y-00075*
X01814Y-00081*
X01807Y-00075*
Y-00055*
X01892Y-00288D02*
Y-00301D01*
Y-00295*
X01925*
X01932Y-00301*
Y-00308*
X01925Y-00315*
X01932Y-00275D02*
Y-00261D01*
Y-00268*
X01892*
X01898Y-00275*
X01925Y-00241D02*
X01932Y-00235D01*
Y-00221*
X01925Y-00215*
X01898*
X01892Y-00221*
Y-00235*
X01898Y-00241*
X01905*
X01912Y-00235*
Y-00215*
X01898Y-00201D02*
X01892Y-00195D01*
Y-00181*
X01898Y-00175*
X01905*
X01912Y-00181*
Y-00188*
Y-00181*
X01918Y-00175*
X01925*
X01932Y-00181*
Y-00195*
X01925Y-00201*
Y-00161D02*
X01932Y-00155D01*
Y-00141*
X01925Y-00135*
X01898*
X01892Y-00141*
Y-00155*
X01898Y-00161*
X01905*
X01912Y-00155*
Y-00135*
Y-00121D02*
Y-00095D01*
X01892Y-00081D02*
X01932D01*
X01912*
Y-00055*
X01892*
X01932*
X01989Y-00288D02*
Y-00301D01*
Y-00295*
X02022*
X02029Y-00301*
Y-00308*
X02022Y-00315*
X02029Y-00275D02*
Y-00261D01*
Y-00268*
X01989*
X01995Y-00275*
Y-00241D02*
X01989Y-00235D01*
Y-00221*
X01995Y-00215*
X02002*
X02009Y-00221*
X02015Y-00215*
X02022*
X02029Y-00221*
Y-00235*
X02022Y-00241*
X02015*
X02009Y-00235*
X02002Y-00241*
X01995*
X02009Y-00235D02*
Y-00221D01*
X01989Y-00175D02*
Y-00201D01*
X02009*
X02002Y-00188*
Y-00181*
X02009Y-00175*
X02022*
X02029Y-00181*
Y-00195*
X02022Y-00201*
X01995Y-00161D02*
X01989Y-00155D01*
Y-00141*
X01995Y-00135*
X02022*
X02029Y-00141*
Y-00155*
X02022Y-00161*
X01995*
X02009Y-00121D02*
Y-00095D01*
X01995Y-00108D02*
X02022D01*
G54D14*
X01892Y00318D02*
D01*
X01892Y00318*
X01892Y00319*
X01892Y0032*
X01892Y0032*
X01891Y00321*
X01891Y00322*
X01891Y00322*
X0189Y00323*
X0189Y00323*
X0189Y00324*
X01889Y00324*
X01889Y00325*
X01888Y00325*
X01888Y00326*
X01887Y00326*
X01886Y00326*
X01886Y00327*
X01885Y00327*
X01884Y00327*
X01884Y00327*
X01883Y00327*
X01882Y00327*
X01882*
X01881Y00327*
X0188Y00327*
X0188Y00327*
X01879Y00327*
X01878Y00327*
X01878Y00326*
X01877Y00326*
X01876Y00326*
X01876Y00325*
X01875Y00325*
X01875Y00324*
X01874Y00324*
X01874Y00323*
X01873Y00323*
X01873Y00322*
X01873Y00322*
X01873Y00321*
X01872Y0032*
X01872Y0032*
X01872Y00319*
X01872Y00318*
X01872Y00318*
X01872Y00317*
X01872Y00316*
X01872Y00315*
X01872Y00315*
X01873Y00314*
X01873Y00313*
X01873Y00313*
X01873Y00312*
X01874Y00312*
X01874Y00311*
X01875Y00311*
X01875Y0031*
X01876Y0031*
X01876Y00309*
X01877Y00309*
X01878Y00309*
X01878Y00308*
X01879Y00308*
X0188Y00308*
X0188Y00308*
X01881Y00308*
X01882Y00308*
X01882*
X01883Y00308*
X01884Y00308*
X01884Y00308*
X01885Y00308*
X01886Y00308*
X01886Y00309*
X01887Y00309*
X01888Y00309*
X01888Y0031*
X01889Y0031*
X01889Y00311*
X0189Y00311*
X0189Y00312*
X0189Y00312*
X01891Y00313*
X01891Y00313*
X01891Y00314*
X01892Y00315*
X01892Y00315*
X01892Y00316*
X01892Y00317*
X01892Y00318*
M02*