%FSTAX23Y23*%
%MOIN*%
%SFA1B1*%

%IPPOS*%
%ADD10C,0.010000*%
%ADD11C,0.090000*%
%ADD12C,0.060000*%
%ADD13C,0.150000*%
%LNobdii-bo-1*%
%LPD*%
G36*
X00336Y00857D02*
X02175D01*
X02191Y00856*
X02207Y00852*
X02223Y00845*
X02238Y00836*
X02251Y00825*
X02262Y00812*
X02271Y00797*
X02278Y00781*
X02282Y00765*
X02283Y00748*
X02283Y00748*
Y0061*
X02278Y0061*
X02277Y00619*
X02272Y00635*
X02265Y0065*
X02254Y00663*
X02241Y00674*
X02226Y00681*
X0221Y00686*
X02194Y00688*
X02177Y00686*
X02161Y00681*
X02146Y00674*
X02133Y00663*
X02122Y0065*
X02115Y00635*
X0211Y00619*
X02108Y00603*
X0211Y00586*
X02115Y0057*
X02122Y00555*
X02133Y00542*
X02146Y00531*
X02161Y00524*
X02177Y00519*
X02194Y00517*
X0221Y00519*
X02226Y00524*
X02241Y00531*
X02254Y00542*
X02265Y00555*
X02272Y0057*
X02277Y00586*
X02278Y00595*
X02283Y00595*
Y00385*
X02278Y00385*
X02277Y00394*
X02272Y0041*
X02265Y00425*
X02254Y00438*
X02241Y00449*
X02226Y00456*
X0221Y00461*
X02194Y00463*
X02177Y00461*
X02161Y00456*
X02146Y00449*
X02133Y00438*
X02122Y00425*
X02115Y0041*
X0211Y00394*
X02108Y00378*
X0211Y00361*
X02115Y00345*
X02122Y0033*
X02133Y00317*
X02146Y00306*
X02161Y00299*
X02177Y00294*
X02194Y00292*
X0221Y00294*
X02226Y00299*
X02241Y00306*
X02254Y00317*
X02265Y0033*
X02272Y00345*
X02277Y00361*
X02278Y0037*
X02283Y0037*
Y-00611*
X02283Y-00611*
X02282Y-00628*
X02278Y-00644*
X02271Y-0066*
X02262Y-00675*
X02251Y-00688*
X02238Y-00699*
X02223Y-00708*
X02207Y-00715*
X02191Y-00719*
X02174Y-0072*
X02174Y-0072*
X00336*
X00335Y-0072*
X00318Y-00719*
X00302Y-00715*
X00286Y-00708*
X00271Y-00699*
X00258Y-00688*
X00247Y-00675*
X00238Y-0066*
X00231Y-00644*
X00227Y-00628*
X00226Y-00615*
X00226Y-00611*
Y-0061*
Y-00606*
Y00748*
X00226Y00748*
X00227Y00765*
X00231Y00781*
X00238Y00797*
X00247Y00812*
X00258Y00825*
X00271Y00836*
X00286Y00845*
X00302Y00852*
X00318Y00856*
X00335Y00857*
X00336Y00857*
G37*
%LNobdii-bo-2*%
%LPC*%
G36*
X01784Y00708D02*
X01769Y00706D01*
X01756Y007*
X01744Y00691*
X01735Y0068*
X0173Y00667*
X01728Y00652*
X0173Y00638*
X01735Y00624*
X01744Y00613*
X01756Y00604*
X01769Y00599*
X01784Y00597*
X01798Y00599*
X01811Y00604*
X01823Y00613*
X01832Y00624*
X01837Y00638*
X01839Y00652*
X01837Y00667*
X01832Y0068*
X01823Y00691*
X01811Y007*
X01798Y00706*
X01784Y00708*
G37*
G36*
X01626D02*
X01612Y00706D01*
X01598Y007*
X01587Y00691*
X01578Y0068*
X01572Y00667*
X01571Y00652*
X01572Y00638*
X01578Y00624*
X01587Y00613*
X01598Y00604*
X01612Y00599*
X01626Y00597*
X0164Y00599*
X01654Y00604*
X01665Y00613*
X01674Y00624*
X0168Y00638*
X01681Y00652*
X0168Y00667*
X01674Y0068*
X01665Y00691*
X01654Y007*
X0164Y00706*
X01626Y00708*
G37*
G36*
X01469D02*
X01454Y00706D01*
X01441Y007*
X01429Y00691*
X01421Y0068*
X01415Y00667*
X01413Y00652*
X01415Y00638*
X01421Y00624*
X01429Y00613*
X01441Y00604*
X01454Y00599*
X01469Y00597*
X01483Y00599*
X01496Y00604*
X01508Y00613*
X01517Y00624*
X01522Y00638*
X01524Y00652*
X01522Y00667*
X01517Y0068*
X01508Y00691*
X01496Y007*
X01483Y00706*
X01469Y00708*
G37*
G36*
X01311D02*
X01297Y00706D01*
X01283Y007*
X01272Y00691*
X01263Y0068*
X01257Y00667*
X01256Y00652*
X01257Y00638*
X01263Y00624*
X01272Y00613*
X01283Y00604*
X01297Y00599*
X01311Y00597*
X01325Y00599*
X01339Y00604*
X0135Y00613*
X01359Y00624*
X01365Y00638*
X01367Y00652*
X01365Y00667*
X01359Y0068*
X0135Y00691*
X01339Y007*
X01325Y00706*
X01311Y00708*
G37*
G36*
X01154D02*
X01139Y00706D01*
X01126Y007*
X01114Y00691*
X01106Y0068*
X011Y00667*
X01098Y00652*
X011Y00638*
X01106Y00624*
X01114Y00613*
X01126Y00604*
X01139Y00599*
X01154Y00597*
X01168Y00599*
X01181Y00604*
X01193Y00613*
X01202Y00624*
X01207Y00638*
X01209Y00652*
X01207Y00667*
X01202Y0068*
X01193Y00691*
X01181Y007*
X01168Y00706*
X01154Y00708*
G37*
G36*
X00996D02*
X00982Y00706D01*
X00968Y007*
X00957Y00691*
X00948Y0068*
X00943Y00667*
X00941Y00652*
X00943Y00638*
X00948Y00624*
X00957Y00613*
X00968Y00604*
X00982Y00599*
X00996Y00597*
X0101Y00599*
X01024Y00604*
X01035Y00613*
X01044Y00624*
X0105Y00638*
X01052Y00652*
X0105Y00667*
X01044Y0068*
X01035Y00691*
X01024Y007*
X0101Y00706*
X00996Y00708*
G37*
G36*
X00839D02*
X00824Y00706D01*
X00811Y007*
X00799Y00691*
X00791Y0068*
X00785Y00667*
X00783Y00652*
X00785Y00638*
X00791Y00624*
X00799Y00613*
X00811Y00604*
X00824Y00599*
X00839Y00597*
X00853Y00599*
X00866Y00604*
X00878Y00613*
X00887Y00624*
X00892Y00638*
X00894Y00652*
X00892Y00667*
X00887Y0068*
X00878Y00691*
X00866Y007*
X00853Y00706*
X00839Y00708*
G37*
G36*
X00681D02*
X00667Y00706D01*
X00653Y007*
X00642Y00691*
X00633Y0068*
X00628Y00667*
X00626Y00652*
X00628Y00638*
X00633Y00624*
X00642Y00613*
X00653Y00604*
X00667Y00599*
X00681Y00597*
X00696Y00599*
X00709Y00604*
X0072Y00613*
X00729Y00624*
X00735Y00638*
X00737Y00652*
X00735Y00667*
X00729Y0068*
X0072Y00691*
X00709Y007*
X00696Y00706*
X00681Y00708*
G37*
G36*
X01159Y00372D02*
Y00323D01*
X01208*
X01207Y00332*
X01202Y00345*
X01193Y00357*
X01181Y00366*
X01168Y00371*
X01159Y00372*
G37*
G36*
X01149D02*
X01139Y00371D01*
X01126Y00366*
X01114Y00357*
X01106Y00345*
X011Y00332*
X01099Y00323*
X01149*
Y00372*
G37*
G36*
X01208Y00313D02*
X01159D01*
Y00263*
X01168Y00264*
X01181Y00269*
X01193Y00278*
X01202Y0029*
X01207Y00303*
X01208Y00313*
G37*
G36*
X01149D02*
X01099D01*
X011Y00303*
X01106Y0029*
X01114Y00278*
X01126Y00269*
X01139Y00264*
X01149Y00263*
Y00313*
G37*
G36*
X01719Y-00448D02*
Y-00483D01*
X01753*
X01752Y-00477*
X01748Y-00467*
X01742Y-00459*
X01734Y-00453*
X01724Y-00449*
X01719Y-00448*
G37*
G36*
X01709D02*
X01703Y-00449D01*
X01693Y-00453*
X01685Y-00459*
X01679Y-00467*
X01675Y-00477*
X01674Y-00483*
X01709*
Y-00448*
G37*
G36*
X01106Y-00445D02*
X01095Y-00447D01*
X01085Y-00451*
X01077Y-00457*
X01071Y-00465*
X01067Y-00475*
X01065Y-00486*
X01067Y-00496*
X01071Y-00506*
X01077Y-00514*
X01085Y-0052*
X01095Y-00524*
X01106Y-00526*
X01116Y-00524*
X01126Y-0052*
X01134Y-00514*
X0114Y-00506*
X01144Y-00496*
X01146Y-00486*
X01144Y-00475*
X0114Y-00465*
X01134Y-00457*
X01126Y-00451*
X01116Y-00447*
X01106Y-00445*
G37*
G36*
X01006D02*
X00995Y-00447D01*
X00985Y-00451*
X00977Y-00457*
X00971Y-00465*
X00967Y-00475*
X00965Y-00486*
X00967Y-00496*
X00971Y-00506*
X00977Y-00514*
X00985Y-0052*
X00995Y-00524*
X01006Y-00526*
X01016Y-00524*
X01026Y-0052*
X01034Y-00514*
X0104Y-00506*
X01044Y-00496*
X01046Y-00486*
X01044Y-00475*
X0104Y-00465*
X01034Y-00457*
X01026Y-00451*
X01016Y-00447*
X01006Y-00445*
G37*
G36*
X00906D02*
X00895Y-00447D01*
X00885Y-00451*
X00877Y-00457*
X00871Y-00465*
X00867Y-00475*
X00865Y-00486*
X00867Y-00496*
X00871Y-00506*
X00877Y-00514*
X00885Y-0052*
X00895Y-00524*
X00906Y-00526*
X00916Y-00524*
X00926Y-0052*
X00934Y-00514*
X0094Y-00506*
X00944Y-00496*
X00946Y-00486*
X00944Y-00475*
X0094Y-00465*
X00934Y-00457*
X00926Y-00451*
X00916Y-00447*
X00906Y-00445*
G37*
G36*
X00806D02*
X00795Y-00447D01*
X00785Y-00451*
X00777Y-00457*
X00771Y-00465*
X00767Y-00475*
X00765Y-00486*
X00767Y-00496*
X00771Y-00506*
X00777Y-00514*
X00785Y-0052*
X00795Y-00524*
X00806Y-00526*
X00816Y-00524*
X00826Y-0052*
X00834Y-00514*
X0084Y-00506*
X00844Y-00496*
X00846Y-00486*
X00844Y-00475*
X0084Y-00465*
X00834Y-00457*
X00826Y-00451*
X00816Y-00447*
X00806Y-00445*
G37*
G36*
X00706D02*
X00695Y-00447D01*
X00685Y-00451*
X00677Y-00457*
X00671Y-00465*
X00667Y-00475*
X00665Y-00486*
X00667Y-00496*
X00671Y-00506*
X00677Y-00514*
X00685Y-0052*
X00695Y-00524*
X00706Y-00526*
X00716Y-00524*
X00726Y-0052*
X00734Y-00514*
X0074Y-00506*
X00744Y-00496*
X00746Y-00486*
X00744Y-00475*
X0074Y-00465*
X00734Y-00457*
X00726Y-00451*
X00716Y-00447*
X00706Y-00445*
G37*
G36*
X00606D02*
X00595Y-00447D01*
X00585Y-00451*
X00577Y-00457*
X00571Y-00465*
X00567Y-00475*
X00565Y-00486*
X00567Y-00496*
X00571Y-00506*
X00577Y-00514*
X00585Y-0052*
X00595Y-00524*
X00606Y-00526*
X00616Y-00524*
X00626Y-0052*
X00634Y-00514*
X0064Y-00506*
X00644Y-00496*
X00646Y-00486*
X00644Y-00475*
X0064Y-00465*
X00634Y-00457*
X00626Y-00451*
X00616Y-00447*
X00606Y-00445*
G37*
G36*
X00506D02*
X00495Y-00447D01*
X00485Y-00451*
X00477Y-00457*
X00471Y-00465*
X00467Y-00475*
X00465Y-00486*
X00467Y-00496*
X00471Y-00506*
X00477Y-00514*
X00485Y-0052*
X00495Y-00524*
X00506Y-00526*
X00516Y-00524*
X00526Y-0052*
X00534Y-00514*
X0054Y-00506*
X00544Y-00496*
X00546Y-00486*
X00544Y-00475*
X0054Y-00465*
X00534Y-00457*
X00526Y-00451*
X00516Y-00447*
X00506Y-00445*
G37*
G36*
X00406D02*
X00395Y-00447D01*
X00385Y-00451*
X00377Y-00457*
X00371Y-00465*
X00367Y-00475*
X00365Y-00486*
X00367Y-00496*
X00371Y-00506*
X00377Y-00514*
X00385Y-0052*
X00395Y-00524*
X00406Y-00526*
X00416Y-00524*
X00426Y-0052*
X00434Y-00514*
X0044Y-00506*
X00444Y-00496*
X00446Y-00486*
X00444Y-00475*
X0044Y-00465*
X00434Y-00457*
X00426Y-00451*
X00416Y-00447*
X00406Y-00445*
G37*
G36*
X01709Y-00493D02*
X01674D01*
X01675Y-00498*
X01679Y-00508*
X01685Y-00516*
X01693Y-00522*
X01703Y-00526*
X01709Y-00527*
Y-00493*
G37*
G36*
X01753D02*
X01719D01*
Y-00527*
X01724Y-00526*
X01734Y-00522*
X01742Y-00516*
X01748Y-00508*
X01752Y-00498*
X01753Y-00493*
G37*
G36*
X01784Y00373D02*
X01769Y00371D01*
X01756Y00366*
X01744Y00357*
X01735Y00345*
X0173Y00332*
X01728Y00318*
X0173Y00303*
X01735Y0029*
X01744Y00278*
X01756Y00269*
X01768Y00264*
Y-00158*
X01769Y-00163*
X01773Y-00168*
X02077Y-00472*
X02075Y-00477*
X02073Y-00488*
X02075Y-00498*
X02079Y-00508*
X02085Y-00516*
X02093Y-00522*
X02103Y-00526*
X02114Y-00528*
X02124Y-00526*
X02134Y-00522*
X02142Y-00516*
X02148Y-00508*
X02152Y-00498*
X02154Y-00488*
X02152Y-00477*
X02148Y-00467*
X02142Y-00459*
X02134Y-00453*
X02124Y-00449*
X02114Y-00447*
X02103Y-00449*
X02098Y-00451*
X01799Y-00151*
Y00264*
X01811Y00269*
X01823Y00278*
X01832Y0029*
X01837Y00303*
X01839Y00318*
X01837Y00332*
X01832Y00345*
X01823Y00357*
X01811Y00366*
X01798Y00371*
X01784Y00373*
G37*
G36*
X01626D02*
X01612Y00371D01*
X01598Y00366*
X01587Y00357*
X01578Y00345*
X01572Y00332*
X01571Y00318*
X01572Y00303*
X01578Y0029*
X01587Y00278*
X01598Y00269*
X01611Y00264*
Y-001*
X01612Y-00106*
X01615Y-00111*
X01977Y-00472*
X01975Y-00477*
X01973Y-00488*
X01975Y-00498*
X01979Y-00508*
X01985Y-00516*
X01993Y-00522*
X02003Y-00526*
X02014Y-00528*
X02024Y-00526*
X02034Y-00522*
X02042Y-00516*
X02048Y-00508*
X02052Y-00498*
X02054Y-00488*
X02052Y-00477*
X02048Y-00467*
X02042Y-00459*
X02034Y-00453*
X02024Y-00449*
X02014Y-00447*
X02003Y-00449*
X01998Y-00451*
X01641Y-00094*
Y00264*
X01654Y00269*
X01665Y00278*
X01674Y0029*
X0168Y00303*
X01681Y00318*
X0168Y00332*
X01674Y00345*
X01665Y00357*
X01654Y00366*
X0164Y00371*
X01626Y00373*
G37*
G36*
X01469D02*
X01454Y00371D01*
X01441Y00366*
X01429Y00357*
X01421Y00345*
X01415Y00332*
X01413Y00318*
X01415Y00303*
X01421Y0029*
X01429Y00278*
X01441Y00269*
X01453Y00264*
Y-00043*
X01454Y-00048*
X01458Y-00053*
X01877Y-00472*
X01875Y-00477*
X01873Y-00488*
X01875Y-00498*
X01879Y-00508*
X01885Y-00516*
X01893Y-00522*
X01903Y-00526*
X01914Y-00528*
X01924Y-00526*
X01934Y-00522*
X01942Y-00516*
X01948Y-00508*
X01952Y-00498*
X01954Y-00488*
X01952Y-00477*
X01948Y-00467*
X01942Y-00459*
X01934Y-00453*
X01924Y-00449*
X01914Y-00447*
X01903Y-00449*
X01898Y-00451*
X01484Y-00036*
Y00264*
X01496Y00269*
X01508Y00278*
X01517Y0029*
X01522Y00303*
X01524Y00318*
X01522Y00332*
X01517Y00345*
X01508Y00357*
X01496Y00366*
X01483Y00371*
X01469Y00373*
G37*
G36*
X01311D02*
X01297Y00371D01*
X01283Y00366*
X01272Y00357*
X01263Y00345*
X01257Y00332*
X01256Y00318*
X01257Y00303*
X01263Y0029*
X01272Y00278*
X01283Y00269*
X01296Y00264*
Y00014*
X01297Y00008*
X013Y00003*
X01777Y-00472*
X01775Y-00477*
X01773Y-00488*
X01775Y-00498*
X01779Y-00508*
X01785Y-00516*
X01793Y-00522*
X01803Y-00526*
X01814Y-00528*
X01824Y-00526*
X01834Y-00522*
X01842Y-00516*
X01848Y-00508*
X01852Y-00498*
X01854Y-00488*
X01852Y-00477*
X01848Y-00467*
X01842Y-00459*
X01834Y-00453*
X01824Y-00449*
X01814Y-00447*
X01803Y-00449*
X01798Y-00451*
X01326Y0002*
Y00264*
X01339Y00269*
X0135Y00278*
X01359Y0029*
X01365Y00303*
X01367Y00318*
X01365Y00332*
X01359Y00345*
X0135Y00357*
X01339Y00366*
X01325Y00371*
X01311Y00373*
G37*
G36*
X00996D02*
X00982Y00371D01*
X00968Y00366*
X00957Y00357*
X00948Y00345*
X00943Y00332*
X00941Y00318*
X00943Y00303*
X00948Y0029*
X00957Y00278*
X00968Y00269*
X00981Y00264*
Y00129*
X00982Y00123*
X00985Y00118*
X01577Y-00472*
X01575Y-00477*
X01573Y-00488*
X01575Y-00498*
X01579Y-00508*
X01585Y-00516*
X01593Y-00522*
X01603Y-00526*
X01614Y-00528*
X01624Y-00526*
X01634Y-00522*
X01642Y-00516*
X01648Y-00508*
X01652Y-00498*
X01654Y-00488*
X01652Y-00477*
X01648Y-00467*
X01642Y-00459*
X01634Y-00453*
X01624Y-00449*
X01614Y-00447*
X01603Y-00449*
X01598Y-00451*
X01011Y00135*
Y00264*
X01024Y00269*
X01035Y00278*
X01044Y0029*
X0105Y00303*
X01052Y00318*
X0105Y00332*
X01044Y00345*
X01035Y00357*
X01024Y00366*
X0101Y00371*
X00996Y00373*
G37*
G36*
X00839D02*
X00824Y00371D01*
X00811Y00366*
X00799Y00357*
X00791Y00345*
X00785Y00332*
X00783Y00318*
X00785Y00303*
X00791Y0029*
X00799Y00278*
X00811Y00269*
X00823Y00264*
Y00186*
X00824Y00181*
X00828Y00176*
X01477Y-00472*
X01475Y-00477*
X01473Y-00488*
X01475Y-00498*
X01479Y-00508*
X01485Y-00516*
X01493Y-00522*
X01503Y-00526*
X01514Y-00528*
X01524Y-00526*
X01534Y-00522*
X01542Y-00516*
X01548Y-00508*
X01552Y-00498*
X01554Y-00488*
X01552Y-00477*
X01548Y-00467*
X01542Y-00459*
X01534Y-00453*
X01524Y-00449*
X01514Y-00447*
X01503Y-00449*
X01498Y-00451*
X00854Y00193*
Y00264*
X00866Y00269*
X00878Y00278*
X00887Y0029*
X00892Y00303*
X00894Y00318*
X00892Y00332*
X00887Y00345*
X00878Y00357*
X00866Y00366*
X00853Y00371*
X00839Y00373*
G37*
G36*
X00681D02*
X00667Y00371D01*
X00653Y00366*
X00642Y00357*
X00633Y00345*
X00628Y00332*
X00626Y00318*
X00628Y00303*
X00633Y0029*
X00642Y00278*
X00653Y00269*
X00666Y00264*
Y00244*
X00667Y00238*
X0067Y00233*
X01377Y-00472*
X01375Y-00477*
X01373Y-00488*
X01375Y-00498*
X01379Y-00508*
X01385Y-00516*
X01393Y-00522*
X01403Y-00526*
X01414Y-00528*
X01424Y-00526*
X01434Y-00522*
X01442Y-00516*
X01448Y-00508*
X01452Y-00498*
X01454Y-00488*
X01452Y-00477*
X01448Y-00467*
X01442Y-00459*
X01434Y-00453*
X01424Y-00449*
X01414Y-00447*
X01403Y-00449*
X01398Y-00451*
X00696Y0025*
Y00264*
X00709Y00269*
X0072Y00278*
X00729Y0029*
X00735Y00303*
X00737Y00318*
X00735Y00332*
X00729Y00345*
X0072Y00357*
X00709Y00366*
X00696Y00371*
X00681Y00373*
G37*
%LNobdii-bo-3*%
%LPD*%
G54D10*
X01784Y-00158D02*
Y00318D01*
Y-00158D02*
X02114Y-00488D01*
X01626Y-001D02*
Y00318D01*
Y-001D02*
X02014Y-00488D01*
X01469Y-00043D02*
Y00318D01*
Y-00043D02*
X01914Y-00488D01*
X01311Y00014D02*
Y00318D01*
Y00014D02*
X01814Y-00488D01*
X01154Y00071D02*
Y00318D01*
Y00071D02*
X01714Y-00488D01*
X00996Y00129D02*
Y00318D01*
Y00129D02*
X01614Y-00488D01*
X00839Y00186D02*
Y00318D01*
Y00186D02*
X01514Y-00488D01*
X00681Y00244D02*
Y00318D01*
Y00244D02*
X01414Y-00488D01*
G54D11*
X01784Y00318D03*
X01626D03*
X01469D03*
X01311D03*
X01154D03*
X00996D03*
X00839D03*
X00681D03*
Y00652D03*
X00839D03*
X00996D03*
X01154D03*
X01311D03*
X01469D03*
X01626D03*
X01784D03*
G54D12*
X01414Y-00488D03*
X01514D03*
X01714D03*
X01814D03*
X01914D03*
X02014D03*
X02114D03*
X01614D03*
X00406Y-00486D03*
X00506D03*
X00706D03*
X00806D03*
X00906D03*
X01006D03*
X01106D03*
X00606D03*
G54D13*
X02194Y00603D03*
Y00378D03*
M02*