%FSTAX23Y23*%
%MOIN*%
%SFA1B1*%

%IPPOS*%
%ADD10C,0.010000*%
%ADD11C,0.090000*%
%ADD12C,0.060000*%
%ADD13C,0.150000*%
%LNobdii-bo-1*%
%LPD*%
G36*
X00336Y00857D02*
X02175D01*
X02191Y00856*
X02207Y00852*
X02223Y00845*
X02238Y00836*
X02251Y00825*
X02262Y00812*
X02271Y00797*
X02278Y00781*
X02282Y00765*
X02283Y00748*
X02283Y00748*
Y0061*
X02278Y0061*
X02277Y00619*
X02272Y00635*
X02265Y0065*
X02254Y00663*
X02241Y00674*
X02226Y00681*
X0221Y00686*
X02194Y00688*
X02177Y00686*
X02161Y00681*
X02146Y00674*
X02133Y00663*
X02122Y0065*
X02115Y00635*
X0211Y00619*
X02108Y00603*
X0211Y00586*
X02115Y0057*
X02122Y00555*
X02133Y00542*
X02146Y00531*
X02161Y00524*
X02177Y00519*
X02194Y00517*
X0221Y00519*
X02226Y00524*
X02241Y00531*
X02254Y00542*
X02265Y00555*
X02272Y0057*
X02277Y00586*
X02278Y00595*
X02283Y00595*
Y00385*
X02278Y00385*
X02277Y00394*
X02272Y0041*
X02265Y00425*
X02254Y00438*
X02241Y00449*
X02226Y00456*
X0221Y00461*
X02194Y00463*
X02177Y00461*
X02161Y00456*
X02146Y00449*
X02133Y00438*
X02122Y00425*
X02115Y0041*
X0211Y00394*
X02108Y00378*
X0211Y00361*
X02115Y00345*
X02122Y0033*
X02133Y00317*
X02146Y00306*
X02161Y00299*
X02177Y00294*
X02194Y00292*
X0221Y00294*
X02226Y00299*
X02241Y00306*
X02254Y00317*
X02265Y0033*
X02272Y00345*
X02277Y00361*
X02278Y0037*
X02283Y0037*
Y-00611*
X02283Y-00611*
X02282Y-00628*
X02278Y-00644*
X02271Y-0066*
X02262Y-00675*
X02251Y-00688*
X02238Y-00699*
X02223Y-00708*
X02207Y-00715*
X02191Y-00719*
X02174Y-0072*
X02174Y-0072*
X00336*
X00335Y-0072*
X00318Y-00719*
X00302Y-00715*
X00286Y-00708*
X00271Y-00699*
X00258Y-00688*
X00247Y-00675*
X00238Y-0066*
X00231Y-00644*
X00227Y-00628*
X00226Y-00615*
X00226Y-00611*
Y-0061*
Y-00606*
Y00748*
X00226Y00748*
X00227Y00765*
X00231Y00781*
X00238Y00797*
X00247Y00812*
X00258Y00825*
X00271Y00836*
X00286Y00845*
X00302Y00852*
X00318Y00856*
X00335Y00857*
X00336Y00857*
G37*
%LNobdii-bo-2*%
%LPC*%
G36*
X01784Y00708D02*
X01769Y00706D01*
X01756Y007*
X01744Y00691*
X01735Y0068*
X0173Y00667*
X01728Y00652*
X0173Y00638*
X01735Y00625*
X01544Y00434*
X0154Y00429*
X01539Y00423*
Y00278*
X01095Y-00166*
X01091Y-00171*
X0109Y-00177*
Y-00449*
X01085Y-00451*
X01077Y-00457*
X01071Y-00465*
X01067Y-00475*
X01065Y-00486*
X01067Y-00496*
X01071Y-00506*
X01077Y-00514*
X01085Y-0052*
X01095Y-00524*
X01106Y-00526*
X01116Y-00524*
X01126Y-0052*
X01134Y-00514*
X0114Y-00506*
X01144Y-00496*
X01146Y-00486*
X01144Y-00475*
X0114Y-00465*
X01134Y-00457*
X01126Y-00451*
X01121Y-00449*
Y-00183*
X01565Y00261*
X01569Y00266*
X0157Y00272*
Y00296*
X01575Y00297*
X01578Y0029*
X01587Y00278*
X01598Y00269*
X01612Y00264*
X01626Y00262*
X0164Y00264*
X01654Y00269*
X01665Y00278*
X01674Y0029*
X0168Y00303*
X01681Y00318*
X0168Y00332*
X01674Y00345*
X01665Y00357*
X01654Y00366*
X0164Y00371*
X01626Y00373*
X01612Y00371*
X01598Y00366*
X01587Y00357*
X01578Y00345*
X01575Y00338*
X0157Y00339*
Y00417*
X01757Y00604*
X01769Y00599*
X01784Y00597*
X01798Y00599*
X01811Y00604*
X01823Y00613*
X01832Y00624*
X01837Y00638*
X01839Y00652*
X01837Y00667*
X01832Y0068*
X01823Y00691*
X01811Y007*
X01798Y00706*
X01784Y00708*
G37*
G36*
X01626D02*
X01612Y00706D01*
X01598Y007*
X01587Y00691*
X01578Y0068*
X01572Y00667*
X01571Y00652*
X01572Y00638*
X01578Y00625*
X01378Y00425*
X01374Y0042*
X01373Y00415*
Y0025*
X00995Y-00128*
X00991Y-00133*
X0099Y-00139*
Y-00449*
X00985Y-00451*
X00977Y-00457*
X00971Y-00465*
X00967Y-00475*
X00965Y-00486*
X00967Y-00496*
X00971Y-00506*
X00977Y-00514*
X00985Y-0052*
X00995Y-00524*
X01006Y-00526*
X01016Y-00524*
X01026Y-0052*
X01034Y-00514*
X0104Y-00506*
X01044Y-00496*
X01046Y-00486*
X01044Y-00475*
X0104Y-00465*
X01034Y-00457*
X01026Y-00451*
X01021Y-00449*
Y-00145*
X01399Y00233*
X01403Y00238*
X01404Y00244*
Y00408*
X01599Y00604*
X01612Y00599*
X01626Y00597*
X0164Y00599*
X01654Y00604*
X01665Y00613*
X01674Y00624*
X0168Y00638*
X01681Y00652*
X0168Y00667*
X01674Y0068*
X01665Y00691*
X01654Y007*
X0164Y00706*
X01626Y00708*
G37*
G36*
X01469D02*
X01454Y00706D01*
X01441Y007*
X01429Y00691*
X01421Y0068*
X01415Y00667*
X01413Y00652*
X01415Y00638*
X0142Y00625*
X01223Y00428*
X01219Y00423*
X01218Y00417*
Y00269*
X00895Y-00054*
X00891Y-00059*
X0089Y-00065*
Y-00449*
X00885Y-00451*
X00877Y-00457*
X00871Y-00465*
X00867Y-00475*
X00865Y-00486*
X00867Y-00496*
X00871Y-00506*
X00877Y-00514*
X00885Y-0052*
X00895Y-00524*
X00906Y-00526*
X00916Y-00524*
X00926Y-0052*
X00934Y-00514*
X0094Y-00506*
X00944Y-00496*
X00946Y-00486*
X00944Y-00475*
X0094Y-00465*
X00934Y-00457*
X00926Y-00451*
X00921Y-00449*
Y-00071*
X01244Y00252*
X01248Y00257*
X01249Y00263*
Y00411*
X01442Y00604*
X01454Y00599*
X01469Y00597*
X01483Y00599*
X01496Y00604*
X01508Y00613*
X01517Y00624*
X01522Y00638*
X01524Y00652*
X01522Y00667*
X01517Y0068*
X01508Y00691*
X01496Y007*
X01483Y00706*
X01469Y00708*
G37*
G36*
X01311D02*
X01297Y00706D01*
X01283Y007*
X01272Y00691*
X01263Y0068*
X01257Y00667*
X01256Y00652*
X01257Y00638*
X01263Y00625*
X01073Y00435*
X01069Y0043*
X01068Y00425*
Y00271*
X00795Y-00002*
X00791Y-00007*
X0079Y-00013*
Y-00449*
X00785Y-00451*
X00777Y-00457*
X00771Y-00465*
X00767Y-00475*
X00765Y-00486*
X00767Y-00496*
X00771Y-00506*
X00777Y-00514*
X00785Y-0052*
X00795Y-00524*
X00806Y-00526*
X00816Y-00524*
X00826Y-0052*
X00834Y-00514*
X0084Y-00506*
X00844Y-00496*
X00846Y-00486*
X00844Y-00475*
X0084Y-00465*
X00834Y-00457*
X00826Y-00451*
X00821Y-00449*
Y-00019*
X01094Y00254*
X01098Y00259*
X01099Y00265*
Y00293*
X01104Y00294*
X01106Y0029*
X01114Y00278*
X01126Y00269*
X01139Y00264*
X01149Y00263*
Y00318*
Y00372*
X01139Y00371*
X01126Y00366*
X01114Y00357*
X01106Y00345*
X01104Y00341*
X01099Y00342*
Y00418*
X01284Y00604*
X01297Y00599*
X01311Y00597*
X01325Y00599*
X01339Y00604*
X0135Y00613*
X01359Y00624*
X01365Y00638*
X01367Y00652*
X01365Y00667*
X01359Y0068*
X0135Y00691*
X01339Y007*
X01325Y00706*
X01311Y00708*
G37*
G36*
X01154D02*
X01139Y00706D01*
X01126Y007*
X01114Y00691*
X01106Y0068*
X011Y00667*
X01098Y00652*
X011Y00638*
X01106Y00624*
X01114Y00613*
X01114Y00612*
X00907Y00404*
X00903Y00399*
X00902Y00394*
Y00269*
X00695Y00061*
X00691Y00056*
X0069Y00051*
Y-00449*
X00685Y-00451*
X00677Y-00457*
X00671Y-00465*
X00667Y-00475*
X00665Y-00486*
X00667Y-00496*
X00671Y-00506*
X00677Y-00514*
X00685Y-0052*
X00695Y-00524*
X00706Y-00526*
X00716Y-00524*
X00726Y-0052*
X00734Y-00514*
X0074Y-00506*
X00744Y-00496*
X00746Y-00486*
X00744Y-00475*
X0074Y-00465*
X00734Y-00457*
X00726Y-00451*
X00721Y-00449*
Y00044*
X00928Y00252*
X00932Y00257*
X00933Y00263*
Y00387*
X01144Y00598*
X01154Y00597*
X01168Y00599*
X01181Y00604*
X01193Y00613*
X01202Y00624*
X01207Y00638*
X01209Y00652*
X01207Y00667*
X01202Y0068*
X01193Y00691*
X01181Y007*
X01168Y00706*
X01154Y00708*
G37*
G36*
X00996D02*
X00982Y00706D01*
X00968Y007*
X00957Y00691*
X00948Y0068*
X00943Y00667*
X00941Y00652*
X00943Y00638*
X00948Y00624*
X00954Y00617*
X00752Y00415*
X00748Y0041*
X00747Y00405*
Y0026*
X00595Y00107*
X00591Y00102*
X0059Y00097*
Y-00449*
X00585Y-00451*
X00577Y-00457*
X00571Y-00465*
X00567Y-00475*
X00565Y-00486*
X00567Y-00496*
X00571Y-00506*
X00577Y-00514*
X00585Y-0052*
X00595Y-00524*
X00606Y-00526*
X00616Y-00524*
X00626Y-0052*
X00634Y-00514*
X0064Y-00506*
X00644Y-00496*
X00646Y-00486*
X00644Y-00475*
X0064Y-00465*
X00634Y-00457*
X00626Y-00451*
X00621Y-00449*
Y0009*
X00773Y00243*
X00777Y00248*
X00778Y00254*
Y00398*
X00979Y006*
X00982Y00599*
X00996Y00597*
X0101Y00599*
X01024Y00604*
X01035Y00613*
X01044Y00624*
X0105Y00638*
X01052Y00652*
X0105Y00667*
X01044Y0068*
X01035Y00691*
X01024Y007*
X0101Y00706*
X00996Y00708*
G37*
G36*
X00839D02*
X00824Y00706D01*
X00811Y007*
X00799Y00691*
X00791Y0068*
X00785Y00667*
X00783Y00652*
X00785Y00638*
X0079Y00625*
X00495Y0033*
X00491Y00325*
X0049Y00319*
Y-00449*
X00485Y-00451*
X00477Y-00457*
X00471Y-00465*
X00467Y-00475*
X00465Y-00486*
X00467Y-00496*
X00471Y-00506*
X00477Y-00514*
X00485Y-0052*
X00495Y-00524*
X00506Y-00526*
X00516Y-00524*
X00526Y-0052*
X00534Y-00514*
X0054Y-00506*
X00544Y-00496*
X00546Y-00486*
X00544Y-00475*
X0054Y-00465*
X00534Y-00457*
X00526Y-00451*
X00521Y-00449*
Y00313*
X00812Y00604*
X00824Y00599*
X00839Y00597*
X00853Y00599*
X00866Y00604*
X00878Y00613*
X00887Y00624*
X00892Y00638*
X00894Y00652*
X00892Y00667*
X00887Y0068*
X00878Y00691*
X00866Y007*
X00853Y00706*
X00839Y00708*
G37*
G36*
X00681D02*
X00667Y00706D01*
X00653Y007*
X00642Y00691*
X00633Y0068*
X00628Y00667*
X00626Y00652*
X00628Y00638*
X00633Y00625*
X00395Y00387*
X00391Y00382*
X0039Y00377*
Y-00449*
X00385Y-00451*
X00377Y-00457*
X00371Y-00465*
X00367Y-00475*
X00365Y-00486*
X00367Y-00496*
X00371Y-00506*
X00377Y-00514*
X00385Y-0052*
X00395Y-00524*
X00406Y-00526*
X00416Y-00524*
X00426Y-0052*
X00434Y-00514*
X0044Y-00506*
X00444Y-00496*
X00446Y-00486*
X00444Y-00475*
X0044Y-00465*
X00434Y-00457*
X00426Y-00451*
X00421Y-00449*
Y0037*
X00654Y00604*
X00667Y00599*
X00681Y00597*
X00696Y00599*
X00709Y00604*
X0072Y00613*
X00729Y00624*
X00735Y00638*
X00737Y00652*
X00735Y00667*
X00729Y0068*
X0072Y00691*
X00709Y007*
X00696Y00706*
X00681Y00708*
G37*
G36*
X01159Y00372D02*
Y00323D01*
X01208*
X01207Y00332*
X01202Y00345*
X01193Y00357*
X01181Y00366*
X01168Y00371*
X01159Y00372*
G37*
G36*
X01208Y00313D02*
X01159D01*
Y00263*
X01168Y00264*
X01181Y00269*
X01193Y00278*
X01202Y0029*
X01207Y00303*
X01208Y00313*
G37*
G36*
X01784Y00373D02*
X01769Y00371D01*
X01756Y00366*
X01744Y00357*
X01735Y00345*
X0173Y00332*
X01728Y00318*
X0173Y00303*
X01735Y0029*
X01744Y00278*
X01756Y00269*
X01769Y00264*
X01784Y00262*
X01798Y00264*
X01811Y00269*
X01823Y00278*
X01832Y0029*
X01837Y00303*
X01839Y00318*
X01837Y00332*
X01832Y00345*
X01823Y00357*
X01811Y00366*
X01798Y00371*
X01784Y00373*
G37*
G36*
X01469D02*
X01454Y00371D01*
X01441Y00366*
X01429Y00357*
X01421Y00345*
X01415Y00332*
X01413Y00318*
X01415Y00303*
X01421Y0029*
X01429Y00278*
X01441Y00269*
X01454Y00264*
X01469Y00262*
X01483Y00264*
X01496Y00269*
X01508Y00278*
X01517Y0029*
X01522Y00303*
X01524Y00318*
X01522Y00332*
X01517Y00345*
X01508Y00357*
X01496Y00366*
X01483Y00371*
X01469Y00373*
G37*
G36*
X01311D02*
X01297Y00371D01*
X01283Y00366*
X01272Y00357*
X01263Y00345*
X01257Y00332*
X01256Y00318*
X01257Y00303*
X01263Y0029*
X01272Y00278*
X01283Y00269*
X01297Y00264*
X01311Y00262*
X01325Y00264*
X01339Y00269*
X0135Y00278*
X01359Y0029*
X01365Y00303*
X01367Y00318*
X01365Y00332*
X01359Y00345*
X0135Y00357*
X01339Y00366*
X01325Y00371*
X01311Y00373*
G37*
G36*
X00996D02*
X00982Y00371D01*
X00968Y00366*
X00957Y00357*
X00948Y00345*
X00943Y00332*
X00941Y00318*
X00943Y00303*
X00948Y0029*
X00957Y00278*
X00968Y00269*
X00982Y00264*
X00996Y00262*
X0101Y00264*
X01024Y00269*
X01035Y00278*
X01044Y0029*
X0105Y00303*
X01052Y00318*
X0105Y00332*
X01044Y00345*
X01035Y00357*
X01024Y00366*
X0101Y00371*
X00996Y00373*
G37*
G36*
X00839D02*
X00824Y00371D01*
X00811Y00366*
X00799Y00357*
X00791Y00345*
X00785Y00332*
X00783Y00318*
X00785Y00303*
X00791Y0029*
X00799Y00278*
X00811Y00269*
X00824Y00264*
X00839Y00262*
X00853Y00264*
X00866Y00269*
X00878Y00278*
X00887Y0029*
X00892Y00303*
X00894Y00318*
X00892Y00332*
X00887Y00345*
X00878Y00357*
X00866Y00366*
X00853Y00371*
X00839Y00373*
G37*
G36*
X00681D02*
X00667Y00371D01*
X00653Y00366*
X00642Y00357*
X00633Y00345*
X00628Y00332*
X00626Y00318*
X00628Y00303*
X00633Y0029*
X00642Y00278*
X00653Y00269*
X00667Y00264*
X00681Y00262*
X00696Y00264*
X00709Y00269*
X0072Y00278*
X00729Y0029*
X00735Y00303*
X00737Y00318*
X00735Y00332*
X00729Y00345*
X0072Y00357*
X00709Y00366*
X00696Y00371*
X00681Y00373*
G37*
G36*
X01719Y-00448D02*
Y-00483D01*
X01753*
X01752Y-00477*
X01748Y-00467*
X01742Y-00459*
X01734Y-00453*
X01724Y-00449*
X01719Y-00448*
G37*
G36*
X01709D02*
X01703Y-00449D01*
X01693Y-00453*
X01685Y-00459*
X01679Y-00467*
X01675Y-00477*
X01674Y-00483*
X01709*
Y-00448*
G37*
G36*
Y-00493D02*
X01674D01*
X01675Y-00498*
X01679Y-00508*
X01685Y-00516*
X01693Y-00522*
X01703Y-00526*
X01709Y-00527*
Y-00493*
G37*
G36*
X01753D02*
X01719D01*
Y-00527*
X01724Y-00526*
X01734Y-00522*
X01742Y-00516*
X01748Y-00508*
X01752Y-00498*
X01753Y-00493*
G37*
G36*
X02114Y-00447D02*
X02103Y-00449D01*
X02093Y-00453*
X02085Y-00459*
X02079Y-00467*
X02075Y-00477*
X02073Y-00488*
X02075Y-00498*
X02079Y-00508*
X02085Y-00516*
X02093Y-00522*
X02103Y-00526*
X02114Y-00528*
X02124Y-00526*
X02134Y-00522*
X02142Y-00516*
X02148Y-00508*
X02152Y-00498*
X02154Y-00488*
X02152Y-00477*
X02148Y-00467*
X02142Y-00459*
X02134Y-00453*
X02124Y-00449*
X02114Y-00447*
G37*
G36*
X02014D02*
X02003Y-00449D01*
X01993Y-00453*
X01985Y-00459*
X01979Y-00467*
X01975Y-00477*
X01973Y-00488*
X01975Y-00498*
X01979Y-00508*
X01985Y-00516*
X01993Y-00522*
X02003Y-00526*
X02014Y-00528*
X02024Y-00526*
X02034Y-00522*
X02042Y-00516*
X02048Y-00508*
X02052Y-00498*
X02054Y-00488*
X02052Y-00477*
X02048Y-00467*
X02042Y-00459*
X02034Y-00453*
X02024Y-00449*
X02014Y-00447*
G37*
G36*
X01914D02*
X01903Y-00449D01*
X01893Y-00453*
X01885Y-00459*
X01879Y-00467*
X01875Y-00477*
X01873Y-00488*
X01875Y-00498*
X01879Y-00508*
X01885Y-00516*
X01893Y-00522*
X01903Y-00526*
X01914Y-00528*
X01924Y-00526*
X01934Y-00522*
X01942Y-00516*
X01948Y-00508*
X01952Y-00498*
X01954Y-00488*
X01952Y-00477*
X01948Y-00467*
X01942Y-00459*
X01934Y-00453*
X01924Y-00449*
X01914Y-00447*
G37*
G36*
X01814D02*
X01803Y-00449D01*
X01793Y-00453*
X01785Y-00459*
X01779Y-00467*
X01775Y-00477*
X01773Y-00488*
X01775Y-00498*
X01779Y-00508*
X01785Y-00516*
X01793Y-00522*
X01803Y-00526*
X01814Y-00528*
X01824Y-00526*
X01834Y-00522*
X01842Y-00516*
X01848Y-00508*
X01852Y-00498*
X01854Y-00488*
X01852Y-00477*
X01848Y-00467*
X01842Y-00459*
X01834Y-00453*
X01824Y-00449*
X01814Y-00447*
G37*
G36*
X01614D02*
X01603Y-00449D01*
X01593Y-00453*
X01585Y-00459*
X01579Y-00467*
X01575Y-00477*
X01573Y-00488*
X01575Y-00498*
X01579Y-00508*
X01585Y-00516*
X01593Y-00522*
X01603Y-00526*
X01614Y-00528*
X01624Y-00526*
X01634Y-00522*
X01642Y-00516*
X01648Y-00508*
X01652Y-00498*
X01654Y-00488*
X01652Y-00477*
X01648Y-00467*
X01642Y-00459*
X01634Y-00453*
X01624Y-00449*
X01614Y-00447*
G37*
G36*
X01514D02*
X01503Y-00449D01*
X01493Y-00453*
X01485Y-00459*
X01479Y-00467*
X01475Y-00477*
X01473Y-00488*
X01475Y-00498*
X01479Y-00508*
X01485Y-00516*
X01493Y-00522*
X01503Y-00526*
X01514Y-00528*
X01524Y-00526*
X01534Y-00522*
X01542Y-00516*
X01548Y-00508*
X01552Y-00498*
X01554Y-00488*
X01552Y-00477*
X01548Y-00467*
X01542Y-00459*
X01534Y-00453*
X01524Y-00449*
X01514Y-00447*
G37*
G36*
X01414D02*
X01403Y-00449D01*
X01393Y-00453*
X01385Y-00459*
X01379Y-00467*
X01375Y-00477*
X01373Y-00488*
X01375Y-00498*
X01379Y-00508*
X01385Y-00516*
X01393Y-00522*
X01403Y-00526*
X01414Y-00528*
X01424Y-00526*
X01434Y-00522*
X01442Y-00516*
X01448Y-00508*
X01452Y-00498*
X01454Y-00488*
X01452Y-00477*
X01448Y-00467*
X01442Y-00459*
X01434Y-00453*
X01424Y-00449*
X01414Y-00447*
G37*
%LNobdii-bo-3*%
%LPD*%
G54D10*
X01555Y00423D02*
X01784Y00652D01*
X01555Y00272D02*
Y00423D01*
X01106Y-00177D02*
X01555Y00272D01*
X01106Y-00486D02*
Y-00177D01*
X01389Y00415D02*
X01626Y00652D01*
X01389Y00244D02*
Y00415D01*
X01006Y-00139D02*
X01389Y00244D01*
X01006Y-00486D02*
Y-00139D01*
X01234Y00417D02*
X01469Y00652D01*
X01234Y00263D02*
Y00417D01*
X00906Y-00065D02*
X01234Y00263D01*
X00906Y-00486D02*
Y-00065D01*
X01084Y00425D02*
X01311Y00652D01*
X01084Y00265D02*
Y00425D01*
X00806Y-00013D02*
X01084Y00265D01*
X00806Y-00486D02*
Y-00013D01*
X01154Y0063D02*
Y00652D01*
X00918Y00394D02*
X01154Y0063D01*
X00918Y00263D02*
Y00394D01*
X00706Y00051D02*
X00918Y00263D01*
X00706Y-00486D02*
Y00051D01*
X00996Y00638D02*
Y00652D01*
X00763Y00405D02*
X00996Y00638D01*
X00763Y00254D02*
Y00405D01*
X00606Y00097D02*
X00763Y00254D01*
X00606Y-00486D02*
Y00097D01*
X00506Y00319D02*
X00839Y00652D01*
X00506Y-00486D02*
Y00319D01*
X00406Y00377D02*
X00681Y00652D01*
X00406Y-00486D02*
Y00377D01*
G54D11*
X01784Y00318D03*
X01626D03*
X01469D03*
X01311D03*
X01154D03*
X00996D03*
X00839D03*
X00681D03*
Y00652D03*
X00839D03*
X00996D03*
X01154D03*
X01311D03*
X01469D03*
X01626D03*
X01784D03*
G54D12*
X01414Y-00488D03*
X01514D03*
X01714D03*
X01814D03*
X01914D03*
X02014D03*
X02114D03*
X01614D03*
X00406Y-00486D03*
X00506D03*
X00706D03*
X00806D03*
X00906D03*
X01006D03*
X01106D03*
X00606D03*
G54D13*
X02194Y00603D03*
Y00378D03*
M02*