%FSTAX23Y23*%
%MOIN*%
%SFA1B1*%

%IPPOS*%
%ADD10C,0.010000*%
%ADD15C,0.098000*%
%ADD16C,0.068000*%
%ADD17C,0.158000*%
%LNobdii-bo-1*%
%LPD*%
G54D10*
X00253Y-00461D02*
X00263D01*
Y-00471*
Y-00451*
Y-00461*
X00293*
X00303Y-00451*
X00263Y-00421D02*
X00303D01*
X00283*
X00273Y-00411*
X00263Y-00401*
Y-00391*
Y-00361D02*
X00293D01*
X00303Y-00351*
Y-00321*
X00263*
Y-00261D02*
Y-00291D01*
X00273Y-00301*
X00293*
X00303Y-00291*
Y-00261*
Y-00241D02*
X00243D01*
X00283D02*
X00263Y-00211D01*
X00283Y-00241D02*
X00303Y-00211D01*
X00243Y-00181D02*
X00303D01*
X00273*
X00263Y-00171*
Y-00151*
X00273Y-00141*
X00303*
X00263Y-00111D02*
Y-00091D01*
X00273Y-00081*
X00303*
Y-00111*
X00293Y-00121*
X00283Y-00111*
Y-00081*
X00263Y-00021D02*
Y-00051D01*
X00273Y-00061*
X00293*
X00303Y-00051*
Y-00021*
Y-00001D02*
X00243D01*
X00283D02*
X00263Y00028D01*
X00283Y-00001D02*
X00303Y00028D01*
Y00058D02*
Y00078D01*
Y00068*
X00263*
Y00058*
X00303Y00108D02*
X00263D01*
Y00138*
X00273Y00148*
X00303*
X00322Y00188D02*
Y00198D01*
X00313Y00208*
X00263*
Y00178*
X00273Y00168*
X00293*
X00303Y00178*
Y00208*
Y00228D02*
X00293D01*
Y00238*
X00303*
Y00228*
X00322Y00298D02*
Y00308D01*
X00313Y00318*
X00263*
Y00288*
X00273Y00278*
X00293*
X00303Y00288*
Y00318*
Y00338D02*
Y00358D01*
Y00348*
X00263*
Y00338*
X00253Y00398D02*
X00263D01*
Y00388*
Y00408*
Y00398*
X00293*
X00303Y00408*
X00243Y00438D02*
X00303D01*
X00273*
X00263Y00448*
Y00468*
X00273Y00478*
X00303*
X00263Y00498D02*
X00293D01*
X00303Y00508*
Y00538*
X00263*
X00243Y00558D02*
X00303D01*
Y00588*
X00293Y00598*
X00283*
X00273*
X00263Y00588*
Y00558*
X00303Y00618D02*
X00293D01*
Y00628*
X00303*
Y00618*
Y00668D02*
Y00688D01*
Y00678*
X00263*
Y00668*
X00303Y00728D02*
Y00748D01*
X00293Y00758*
X00273*
X00263Y00748*
Y00728*
X00273Y00718*
X00293*
X00303Y00728*
X00502Y-00637D02*
X00483D01*
X00473Y-00647*
Y-00687*
X00483Y-00697*
X00502*
X00512Y-00687*
Y-00647*
X00502Y-00637*
X00532D02*
Y-00697D01*
X00562*
X00572Y-00687*
Y-00677*
X00562Y-00667*
X00532*
X00562*
X00572Y-00657*
Y-00647*
X00562Y-00637*
X00532*
X00592D02*
Y-00697D01*
X00622*
X00632Y-00687*
Y-00647*
X00622Y-00637*
X00592*
X00652D02*
X00672D01*
X00662*
Y-00697*
X00652*
X00672*
X00702Y-00637D02*
X00722D01*
X00712*
Y-00697*
X00702*
X00722*
X00852Y-00647D02*
X00842Y-00637D01*
X00822*
X00812Y-00647*
Y-00657*
X00822Y-00667*
X00842*
X00852Y-00677*
Y-00687*
X00842Y-00697*
X00822*
X00812Y-00687*
X00912Y-00657D02*
X00882D01*
X00872Y-00667*
Y-00687*
X00882Y-00697*
X00912*
X00932Y-00657D02*
Y-00697D01*
Y-00677*
X00942Y-00667*
X00952Y-00657*
X00962*
X01022Y-00697D02*
X01002D01*
X00992Y-00687*
Y-00667*
X01002Y-00657*
X01022*
X01032Y-00667*
Y-00677*
X00992*
X01052Y-00657D02*
Y-00687D01*
X01062Y-00697*
X01072Y-00687*
X01082Y-00697*
X01092Y-00687*
Y-00657*
X01172Y-00637D02*
X01212D01*
X01192*
Y-00697*
X01262D02*
X01242D01*
X01232Y-00687*
Y-00667*
X01242Y-00657*
X01262*
X01272Y-00667*
Y-00677*
X01232*
X01292Y-00657D02*
Y-00697D01*
Y-00677*
X01302Y-00667*
X01312Y-00657*
X01322*
X01352Y-00697D02*
Y-00657D01*
X01362*
X01372Y-00667*
Y-00697*
Y-00667*
X01382Y-00657*
X01392Y-00667*
Y-00697*
X01412D02*
X01432D01*
X01422*
Y-00657*
X01412*
X01462Y-00697D02*
Y-00657D01*
X01492*
X01502Y-00667*
Y-00697*
X01532Y-00657D02*
X01552D01*
X01562Y-00667*
Y-00697*
X01532*
X01522Y-00687*
X01532Y-00677*
X01562*
X01582Y-00697D02*
X01602D01*
X01592*
Y-00637*
X01582*
X01692Y-00697D02*
Y-00657D01*
X01712Y-00637*
X01732Y-00657*
Y-00697*
Y-00667*
X01692*
X01792Y-00637D02*
Y-00697D01*
X01762*
X01752Y-00687*
Y-00667*
X01762Y-00657*
X01792*
X01822D02*
X01842D01*
X01852Y-00667*
Y-00697*
X01822*
X01812Y-00687*
X01822Y-00677*
X01852*
X01872Y-00716D02*
Y-00657D01*
X01902*
X01912Y-00667*
Y-00687*
X01902Y-00697*
X01872*
X01942Y-00647D02*
Y-00657D01*
X01932*
X01952*
X01942*
Y-00687*
X01952Y-00697*
X02012D02*
X01992D01*
X01982Y-00687*
Y-00667*
X01992Y-00657*
X02012*
X02022Y-00667*
Y-00677*
X01982*
X02042Y-00657D02*
Y-00697D01*
Y-00677*
X02052Y-00667*
X02062Y-00657*
X02072*
G54D15*
X01784Y00318D03*
X01626D03*
X01469D03*
X01311D03*
X01154D03*
X00996D03*
X00839D03*
X00681D03*
Y00652D03*
X00839D03*
X00996D03*
X01154D03*
X01311D03*
X01469D03*
X01626D03*
X01784D03*
G54D16*
X01414Y-00488D03*
X01514D03*
X01714D03*
X01814D03*
X01914D03*
X02014D03*
X02114D03*
X01614D03*
X00406Y-00486D03*
X00506D03*
X00706D03*
X00806D03*
X00906D03*
X01006D03*
X01106D03*
X00606D03*
G54D17*
X02194Y00603D03*
Y00378D03*
M02*