%FSTAX23Y23*%
%MOIN*%
%SFA1B1*%

%IPPOS*%
%ADD10R,0.031500X0.031500*%
%ADD11O,0.061000X0.013800*%
%ADD12R,0.080000X0.065000*%
%ADD13R,0.031500X0.031500*%
%ADD14R,0.051200X0.059100*%
%ADD15R,0.039400X0.023600*%
%ADD16O,0.082700X0.023600*%
%ADD17R,0.063000X0.070900*%
%ADD18R,0.040000X0.120000*%
%ADD19R,0.059100X0.051200*%
%ADD20R,0.078700X0.208700*%
%ADD21R,0.079000X0.209000*%
%ADD22C,0.010000*%
%ADD23C,0.015000*%
%ADD24C,0.020000*%
%ADD25C,0.025000*%
%ADD26C,0.066500*%
%ADD27C,0.060000*%
%ADD28R,0.063000X0.063000*%
%ADD29C,0.063000*%
%ADD30R,0.060000X0.060000*%
%ADD31C,0.189000*%
%ADD32R,0.066500X0.066500*%
%ADD33C,0.030000*%
%ADD34C,0.050000*%
%ADD35C,0.065000*%
%LNhvcape-1*%
%LPD*%
G36*
X05367Y04143D02*
X05383Y04139D01*
X05399Y04132*
X05414Y04123*
X05427Y04112*
X05438Y04099*
X05447Y04084*
X05454Y04068*
X05458Y04052*
X05459Y04035*
X05459Y04035*
Y02055*
X05459Y02054*
X05458Y02037*
X05454Y02021*
X05447Y02005*
X05438Y0199*
X05427Y01977*
X05414Y01966*
X05399Y01957*
X05383Y0195*
X05367Y01946*
X0535Y01945*
X0535Y01945*
X03638*
X03636Y01949*
X0367Y01984*
X03674Y01989*
X03675Y01995*
Y0202*
X0368Y02021*
X03687Y02016*
X03697Y02012*
X03708Y0201*
X03718Y02012*
X03728Y02016*
X03736Y02022*
X03742Y0203*
X03747Y0204*
X03748Y02051*
X03747Y02061*
X03742Y02071*
X03736Y02079*
X03728Y02085*
X03718Y0209*
X03708Y02091*
X03697Y0209*
X03687Y02085*
X03679Y02079*
X03675Y02074*
X03674Y02074*
X03669Y02074*
X03637Y02106*
X03632Y0211*
X03628Y0211*
X03628Y02116*
Y02116*
X03636Y02122*
X03642Y0213*
X03647Y0214*
X03648Y02151*
X03647Y02161*
X03642Y02171*
X03636Y02179*
X03628Y02185*
X03618Y0219*
X03608Y02191*
X03597Y0219*
X03587Y02185*
X03579Y02179*
X03573Y02171*
X03569Y02161*
X03567Y02151*
X03569Y0214*
X03573Y0213*
X03579Y02122*
X03587Y02116*
Y02115*
X03585Y02111*
X03581*
X03575Y0211*
X0357Y02106*
X03549Y02085*
X03545Y0208*
X03545Y02076*
X0354Y02075*
X03539Y02075*
X03536Y02079*
X03528Y02085*
X03518Y0209*
X03508Y02091*
X03497Y0209*
X03487Y02085*
X03479Y02079*
X03473Y02071*
X03469Y02061*
X03467Y02051*
X03469Y0204*
X03473Y0203*
X03479Y02022*
X03482Y0202*
X0348Y02015*
X03435*
X03433Y0202*
X03436Y02022*
X03442Y0203*
X03447Y0204*
X03448Y02051*
X03447Y02061*
X03442Y02071*
X03436Y02079*
X03436Y0208*
X03437Y02084*
X03457*
X03462Y02085*
X03467Y02089*
X03492Y02114*
X03497Y02112*
X03508Y0211*
X03518Y02112*
X03528Y02116*
X03536Y02122*
X03542Y0213*
X03547Y0214*
X03548Y02151*
X03547Y02161*
X03542Y02171*
X03536Y02179*
X03528Y02185*
X03518Y0219*
X03508Y02191*
X03497Y0219*
X03487Y02185*
X03479Y02179*
X03473Y02171*
X03469Y02161*
X03467Y02151*
X03469Y0214*
X03471Y02135*
X0345Y02115*
X03435*
X03433Y0212*
X03436Y02122*
X03442Y0213*
X03447Y0214*
X03448Y02151*
X03447Y02161*
X03442Y02171*
X03436Y02179*
X03428Y02185*
X03423Y02188*
X03422Y02192*
X03418Y02197*
X03315Y02301*
Y02995*
X0332Y02996*
X03321Y0299*
X03327Y02982*
X03335Y02976*
X03345Y02974*
X03354Y02976*
X03363Y02982*
X03368Y0299*
X0337Y03*
X03368Y03009*
X03363Y03018*
X0336Y03019*
Y03038*
X03389Y03068*
X0342*
X03421Y03063*
X03404Y03045*
X034Y0304*
X03399Y03035*
Y03019*
X03397Y03018*
X03391Y03009*
X03389Y03*
X03391Y0299*
X03397Y02982*
X03405Y02976*
X03415Y02974*
X03424Y02976*
X03433Y02982*
X03438Y0299*
X0344Y03*
X03438Y03009*
X03433Y03018*
X0343Y03019*
Y03028*
X03444Y03042*
X03491*
X03494Y03037*
X03493Y03032*
X03495Y03025*
X03498Y0302*
X03504Y03016*
X0351Y03015*
X03558*
X03564Y03016*
X03565Y03017*
X03729*
X0373Y03016*
X03737Y03015*
X03745*
Y02982*
X03732*
Y02949*
X03657Y02874*
X03655Y02874*
X03647Y0287*
X0364Y02865*
X03634Y02857*
X0363Y02849*
X03629Y0284*
X0363Y0283*
X03634Y02822*
X0364Y02815*
X03647Y02809*
X03655Y02805*
X03665Y02804*
X0367Y02805*
X03709Y02766*
Y0245*
X03711Y02442*
X03715Y02435*
X0377Y0238*
X03769Y02375*
X0377Y02365*
X03774Y02357*
X0378Y0235*
X03787Y02344*
X03795Y0234*
X03805Y02339*
X03814Y0234*
X03822Y02344*
X0383Y0235*
X03835Y02357*
X03836Y02359*
X04388*
X04394Y0236*
X04399Y02364*
X04462Y02427*
X04487*
Y02478*
X04436*
Y02443*
X04382Y0239*
X03836*
X03835Y02392*
X0383Y024*
X03822Y02405*
X03814Y02409*
X03805Y0241*
X03799Y02409*
X0375Y02458*
Y02775*
X03748Y02782*
X03744Y02789*
X03713Y0282*
X03715Y02824*
X03788*
X03887Y02725*
Y02584*
X03873*
Y0254*
X03868Y0254*
X03826*
Y02584*
X03767*
Y0254*
Y02503*
Y02492*
X03796*
X03826*
Y02509*
X03868*
X03873Y02509*
Y02504*
Y02465*
X03932*
Y02472*
X03982*
X03988Y02473*
X03993Y02476*
X04015Y02499*
X04046*
X04047Y02498*
X04054Y02494*
X04062Y02492*
X04122*
X0413Y02494*
X04137Y02498*
X04142Y02506*
X04144Y02514*
X04142Y02523*
X04137Y0253*
X0413Y02535*
X04122Y02536*
X04062*
X04054Y02535*
X04047Y0253*
X04046Y02529*
X04009*
X04003Y02528*
X03998Y02525*
X03976Y02502*
X03936*
X03934Y02504*
X03936Y02509*
X03937Y02509*
X03955*
X0396Y0251*
X03965Y02514*
X0399Y02539*
X03994Y02544*
X03995Y0255*
Y02735*
X03994Y0274*
X0399Y02745*
X03905Y02831*
Y03*
X03904Y03005*
X039Y0301*
X03848Y03063*
X0385Y03068*
X0387*
X03914Y03023*
Y02865*
X03915Y02859*
X03919Y02854*
X04077Y02696*
Y02636*
X04062*
X04054Y02635*
X04047Y0263*
X04042Y02623*
X0404Y02614*
X04042Y02606*
X04047Y02598*
X04054Y02594*
X04062Y02592*
X04122*
X0413Y02594*
X04137Y02598*
X04142Y02606*
X04144Y02614*
X04142Y02623*
X04137Y0263*
X0413Y02635*
X04122Y02636*
X04107*
Y02702*
X04106Y02708*
X04103Y02713*
X03945Y02871*
Y0303*
X03944Y03035*
X0394Y0304*
X03892Y03089*
X03894Y03093*
X03919*
X03954Y03058*
Y02885*
X03955Y02879*
X03959Y02874*
X04009Y02823*
X04014Y0282*
X0402Y02819*
X04046*
X04047Y02818*
X04054Y02814*
X04062Y02812*
X04122*
X0413Y02814*
X04137Y02818*
X04142Y02826*
X04144Y02834*
X04142Y02843*
X04137Y0285*
X0413Y02855*
X04122Y02856*
X04062*
X04054Y02855*
X04047Y0285*
X04046Y02849*
X04026*
X03985Y02891*
Y02903*
X0399Y02904*
X03992Y02902*
X04Y02896*
X04005Y02895*
Y0292*
Y02944*
X04Y02943*
X03992Y02938*
X0399Y02935*
X03985Y02937*
Y03065*
X03985Y03066*
X03989Y03068*
X0405Y03007*
X0405Y03002*
X04047Y03*
X04042Y02993*
X0404Y02984*
X04042Y02976*
X04047Y02968*
X04054Y02964*
X04062Y02962*
X04122*
X0413Y02964*
X04137Y02968*
X04142Y02976*
X04144Y02984*
X04142Y02993*
X04137Y03*
X0413Y03005*
X04122Y03006*
X04085*
Y0301*
X04084Y03015*
X0408Y0302*
X03956Y03145*
X03955Y03146*
X03954Y03152*
X0399Y03189*
X04046*
X04047Y03188*
X04054Y03184*
X04062Y03182*
X04122*
X0413Y03184*
X04137Y03188*
X04142Y03196*
X04144Y03204*
X04142Y03213*
X04137Y0322*
X0413Y03225*
X04122Y03226*
X04062*
X04054Y03225*
X04047Y0322*
X04046Y03219*
X03984*
X03978Y03218*
X03973Y03215*
X03933Y03175*
X03888*
X03886Y0318*
X04042Y03336*
X04047Y03338*
X04054Y03334*
X04062Y03332*
X04122*
X0413Y03334*
X04137Y03338*
X04142Y03346*
X04144Y03354*
X04142Y03363*
X04137Y0337*
X0413Y03375*
X04122Y03376*
X04062*
X04054Y03375*
X04047Y0337*
X04046Y03369*
X04039*
X04033Y03368*
X04028Y03365*
X03939Y03276*
X03935Y03278*
X03935Y0328*
Y0338*
X03934Y03385*
X0393Y0339*
X0377Y0355*
X03765Y03554*
X0376Y03555*
X03711*
X03695Y03571*
Y03618*
X03711Y03634*
X03767*
Y03617*
X03796*
X03826*
Y03628*
Y03665*
Y03709*
X03767*
Y03665*
X03705*
X03699Y03664*
X03694Y0366*
X03674Y03641*
X0367Y03643*
Y03668*
X03741Y03739*
X04041*
X04043Y03735*
X04042Y03733*
X0404Y03724*
X04042Y03716*
X04047Y03708*
X04054Y03704*
X04062Y03702*
X04122*
X0413Y03704*
X04137Y03708*
X04142Y03716*
X04144Y03724*
X04142Y03733*
X04137Y0374*
X0413Y03745*
X04122Y03746*
X04091*
X04072Y03765*
X04067Y03769*
X04062Y0377*
X03735*
X03729Y03769*
X03724Y03765*
X03644Y03685*
X0364Y0368*
X03639Y03675*
Y0354*
X0364Y03534*
X03644Y03529*
X03694Y03479*
X03699Y03475*
X03705Y03474*
X03758*
X03869Y03363*
Y03301*
X0382Y03252*
X03803*
X038Y03257*
X03801Y03262*
X038Y03269*
X03796Y03274*
X03791Y03278*
X03784Y03279*
X03765*
X03712Y03332*
Y03342*
X03722*
Y03394*
X03712*
Y03403*
X03711Y03408*
X03707Y03413*
X03685Y03435*
X0368Y03439*
X03675Y0344*
X03535*
X03529Y03439*
X03524Y03435*
X03408Y0332*
X03351*
X03347Y03323*
Y03325*
Y03363*
X03264*
Y03325*
Y03323*
X03261Y03319*
X03259Y03319*
X03254Y03315*
X03204Y03265*
X032Y0326*
X03199Y03255*
Y02371*
X03149Y0232*
X03145Y02315*
X03144Y0231*
Y02177*
X03139Y02175*
X03136Y02179*
X03128Y02185*
X03118Y0219*
X03108Y02191*
X03097Y0219*
X03087Y02185*
X03079Y02179*
X03073Y02171*
X03069Y02161*
X03067Y02151*
X03069Y0214*
X03073Y0213*
X03079Y02122*
X03087Y02116*
X03097Y02112*
X03108Y0211*
X03118Y02112*
X03128Y02116*
X03136Y02122*
X03139Y02126*
X03144Y02124*
Y02077*
X03139Y02075*
X03136Y02079*
X03128Y02085*
X03118Y0209*
X03108Y02091*
X03097Y0209*
X03087Y02085*
X03079Y02079*
X03073Y02071*
X03069Y02061*
X03067Y02051*
X03069Y0204*
X03073Y0203*
X03079Y02022*
X03087Y02016*
X03097Y02012*
X03108Y0201*
X03118Y02012*
X03128Y02016*
X03136Y02022*
X03139Y02026*
X03144Y02024*
Y02005*
X03145Y01999*
X03149Y01994*
X03168Y01974*
X03166Y0197*
X02931*
X02893Y02008*
X02896Y02012*
X02897Y02012*
X02908Y0201*
X02918Y02012*
X02928Y02016*
X02936Y02022*
X02942Y0203*
X02947Y0204*
X02948Y02051*
X02947Y02061*
X02942Y02071*
X02936Y02079*
X02928Y02085*
X02918Y0209*
X02908Y02091*
X02897Y0209*
X02887Y02085*
X02879Y02079*
X02875Y02074*
X0287Y02075*
Y02104*
X02869Y02109*
X02865Y02114*
X02844Y02135*
X02847Y0214*
X02848Y02151*
X02847Y02161*
X02842Y02171*
X02836Y02179*
X02828Y02185*
X02818Y0219*
X02808Y02191*
X02797Y0219*
X02787Y02185*
X02779Y02179*
X02773Y02171*
X02769Y02161*
X02767Y02151*
X02769Y0214*
X02773Y0213*
X02779Y02122*
X02787Y02116*
X02797Y02112*
X02808Y0211*
X02818Y02112*
X02823Y02114*
X02839Y02097*
Y02083*
X02834Y0208*
X02828Y02085*
X02818Y0209*
X02808Y02091*
X02797Y0209*
X02787Y02085*
X02779Y02079*
X02773Y02071*
X02769Y02061*
X02767Y02051*
X02769Y0204*
X02773Y0203*
X02779Y02022*
X02787Y02016*
X02797Y02012*
X02808Y0201*
X02818Y02012*
X02828Y02016*
X02835Y02021*
X02839Y0202*
X0284Y02019*
X0284Y02019*
X02844Y02014*
X02908Y01949*
X02906Y01945*
X02325*
X02324Y01945*
X02307Y01946*
X02291Y0195*
X02275Y01957*
X0226Y01966*
X02247Y01977*
X02236Y0199*
X02227Y02005*
X0222Y02021*
X02216Y02037*
X02215Y02054*
X02215Y02055*
Y02781*
X02333*
X02349Y02783*
X02366Y02786*
X02381Y02793*
X02396Y02802*
X02408Y02813*
X02419Y02825*
X02428Y0284*
X02434Y02855*
X02438Y02872*
X0244Y02888*
Y03409*
X02438Y03426*
X02434Y03442*
X02428Y03457*
X02419Y03472*
X02408Y03485*
X02396Y03495*
X02381Y03504*
X02366Y03511*
X02349Y03515*
X02333Y03516*
X0222*
Y04035*
X0222Y04035*
X02221Y04052*
X02225Y04068*
X02232Y04084*
X02241Y04099*
X02252Y04112*
X02265Y04123*
X0228Y04132*
X02296Y04139*
X02312Y04143*
X02329Y04144*
X0233Y04144*
X0535*
X0535Y04144*
X05367Y04143*
G37*
G36*
X03679Y03399D02*
X03677Y03394D01*
X03671*
Y03342*
X03681*
Y03326*
X03682Y0332*
X03686Y03315*
X03725Y03276*
X03725Y03274*
X03721Y03269*
X0372Y03262*
X03721Y03256*
X03725Y0325*
Y03249*
X03721Y03243*
X0372Y03237*
X03721Y0323*
X03725Y03224*
Y03223*
X03721Y03218*
X0372Y03211*
X03721Y03204*
X03725Y03199*
Y03198*
X03721Y03192*
X0372Y03185*
X03721Y03179*
X03725Y03173*
Y03172*
X03721Y03166*
X0372Y0316*
X03721Y03153*
X03725Y03148*
Y03146*
X03721Y03141*
X0372Y03134*
X03721Y03128*
X03725Y03122*
Y03121*
X03721Y03115*
X0372Y03109*
X03721Y03102*
X03725Y03096*
Y03095*
X03721Y0309*
X0372Y03083*
X03721Y03076*
X03725Y03071*
Y0307*
X03721Y03064*
X0372Y03057*
X03721Y03052*
X03718Y03047*
X03577*
X03574Y03052*
X03575Y03057*
X03574Y03064*
X0357Y0307*
Y03071*
X03574Y03076*
X03575Y03083*
X03574Y0309*
X0357Y03095*
Y03096*
X03574Y03102*
X03575Y03109*
X03574Y03115*
X0357Y03121*
Y03122*
X03574Y03128*
X03575Y03134*
X03574Y03141*
X0357Y03146*
Y03148*
X03574Y03153*
X03575Y0316*
X03574Y03166*
X0357Y03172*
Y03173*
X03574Y03179*
X03575Y03185*
X03574Y03192*
X0357Y03198*
Y03199*
X03574Y03204*
X03575Y03211*
X03574Y03218*
X0357Y03223*
Y03224*
X03574Y0323*
X03575Y03237*
X03574Y03243*
X0357Y03249*
Y0325*
X03574Y03256*
X03574Y03257*
X03534*
X03494*
Y03257*
X03491Y03252*
X0342*
X03418Y03259*
X03413Y03268*
X03404Y03273*
X03395Y03275*
X03385Y03273*
X03377Y03268*
X03371Y03259*
X03369Y0325*
X03371Y0324*
X03377Y03232*
X03377Y03231*
X03376Y03226*
X03344*
X03324Y03246*
X03325Y0325*
X03323Y03259*
X03318Y03268*
X03309Y03273*
X033Y03275*
X0329Y03273*
X03282Y03268*
X03276Y03259*
X03274Y0325*
X03276Y0324*
X03282Y03232*
X0329Y03226*
X033Y03224*
X03303Y03225*
X03322Y03205*
X0332Y03201*
X03285*
X0328Y032*
X03275Y03196*
X03234Y03156*
X0323Y03158*
Y03248*
X03271Y03289*
X03415*
X0342Y0329*
X03425Y03294*
X03541Y03409*
X03668*
X03679Y03399*
G37*
G36*
X03874Y02993D02*
Y02825D01*
X03875Y02819*
X03879Y02814*
X03964Y02728*
Y02556*
X03948Y0254*
X03937*
X03932Y0254*
Y02584*
X03918*
Y02731*
X03917Y02737*
X03914Y02742*
X03805Y0285*
X038Y02854*
X03795Y02855*
X03696*
X03695Y02857*
X0369Y02864*
X03757Y02931*
X03783*
Y02982*
X03776*
Y03015*
X03784*
X03791Y03016*
X03796Y0302*
X038Y03025*
X03801Y03032*
X038Y03037*
X03803Y03042*
X03825*
X03874Y02993*
G37*
%LNhvcape-2*%
%LPC*%
G36*
X02313Y0409D02*
Y04056D01*
X02347*
X02347Y04061*
X02342Y04071*
X02336Y04079*
X02328Y04085*
X02318Y0409*
X02313Y0409*
G37*
G36*
X02303D02*
X02297Y0409D01*
X02287Y04085*
X02279Y04079*
X02273Y04071*
X02269Y04061*
X02268Y04056*
X02303*
Y0409*
G37*
G36*
X04898Y04066D02*
Y04031D01*
X04932*
X04932Y04037*
X04928Y04046*
X04921Y04055*
X04913Y04061*
X04903Y04065*
X04898Y04066*
G37*
G36*
X04888D02*
X04882Y04065D01*
X04873Y04061*
X04864Y04055*
X04858Y04046*
X04854Y04037*
X04853Y04031*
X04888*
Y04066*
G37*
G36*
X02347Y04046D02*
X02313D01*
Y04011*
X02318Y04012*
X02328Y04016*
X02336Y04022*
X02342Y0403*
X02347Y0404*
X02347Y04046*
G37*
G36*
X02303D02*
X02268D01*
X02269Y0404*
X02273Y0403*
X02279Y04022*
X02287Y04016*
X02297Y04012*
X02303Y04011*
Y04046*
G37*
G36*
X04508Y04091D02*
X04497Y0409D01*
X04487Y04085*
X04479Y04079*
X04473Y04071*
X04469Y04061*
X04467Y04051*
X04469Y0404*
X04473Y0403*
X04479Y04022*
X04487Y04016*
X04497Y04012*
X04508Y0401*
X04518Y04012*
X04528Y04016*
X04536Y04022*
X04542Y0403*
X04547Y0404*
X04548Y04051*
X04547Y04061*
X04542Y04071*
X04536Y04079*
X04528Y04085*
X04518Y0409*
X04508Y04091*
G37*
G36*
X04408D02*
X04397Y0409D01*
X04387Y04085*
X04379Y04079*
X04373Y04071*
X04369Y04061*
X04367Y04051*
X04369Y0404*
X04373Y0403*
X04379Y04022*
X04387Y04016*
X04397Y04012*
X04408Y0401*
X04418Y04012*
X04428Y04016*
X04436Y04022*
X04442Y0403*
X04447Y0404*
X04448Y04051*
X04447Y04061*
X04442Y04071*
X04436Y04079*
X04428Y04085*
X04418Y0409*
X04408Y04091*
G37*
G36*
X04308D02*
X04297Y0409D01*
X04287Y04085*
X04279Y04079*
X04273Y04071*
X04269Y04061*
X04267Y04051*
X04269Y0404*
X04273Y0403*
X04279Y04022*
X04287Y04016*
X04297Y04012*
X04308Y0401*
X04318Y04012*
X04328Y04016*
X04336Y04022*
X04342Y0403*
X04347Y0404*
X04348Y04051*
X04347Y04061*
X04342Y04071*
X04336Y04079*
X04328Y04085*
X04318Y0409*
X04308Y04091*
G37*
G36*
X04208D02*
X04197Y0409D01*
X04187Y04085*
X04179Y04079*
X04173Y04071*
X04169Y04061*
X04167Y04051*
X04169Y0404*
X04173Y0403*
X04179Y04022*
X04187Y04016*
X04197Y04012*
X04208Y0401*
X04218Y04012*
X04228Y04016*
X04236Y04022*
X04242Y0403*
X04247Y0404*
X04248Y04051*
X04247Y04061*
X04242Y04071*
X04236Y04079*
X04228Y04085*
X04218Y0409*
X04208Y04091*
G37*
G36*
X04108D02*
X04097Y0409D01*
X04087Y04085*
X04079Y04079*
X04073Y04071*
X04069Y04061*
X04067Y04051*
X04069Y0404*
X04073Y0403*
X04079Y04022*
X04087Y04016*
X04097Y04012*
X04108Y0401*
X04118Y04012*
X04128Y04016*
X04136Y04022*
X04142Y0403*
X04147Y0404*
X04148Y04051*
X04147Y04061*
X04142Y04071*
X04136Y04079*
X04128Y04085*
X04118Y0409*
X04108Y04091*
G37*
G36*
X04008D02*
X03997Y0409D01*
X03987Y04085*
X03979Y04079*
X03973Y04071*
X03969Y04061*
X03967Y04051*
X03969Y0404*
X03973Y0403*
X03979Y04022*
X03987Y04016*
X03997Y04012*
X04008Y0401*
X04018Y04012*
X04028Y04016*
X04036Y04022*
X04042Y0403*
X04047Y0404*
X04048Y04051*
X04047Y04061*
X04042Y04071*
X04036Y04079*
X04028Y04085*
X04018Y0409*
X04008Y04091*
G37*
G36*
X03908D02*
X03897Y0409D01*
X03887Y04085*
X03879Y04079*
X03873Y04071*
X03869Y04061*
X03867Y04051*
X03869Y0404*
X03873Y0403*
X03879Y04022*
X03887Y04016*
X03897Y04012*
X03908Y0401*
X03918Y04012*
X03928Y04016*
X03936Y04022*
X03942Y0403*
X03947Y0404*
X03948Y04051*
X03947Y04061*
X03942Y04071*
X03936Y04079*
X03928Y04085*
X03918Y0409*
X03908Y04091*
G37*
G36*
X03808D02*
X03797Y0409D01*
X03787Y04085*
X03779Y04079*
X03773Y04071*
X03769Y04061*
X03767Y04051*
X03769Y0404*
X03773Y0403*
X03779Y04022*
X03787Y04016*
X03797Y04012*
X03808Y0401*
X03818Y04012*
X03828Y04016*
X03836Y04022*
X03842Y0403*
X03847Y0404*
X03848Y04051*
X03847Y04061*
X03842Y04071*
X03836Y04079*
X03828Y04085*
X03818Y0409*
X03808Y04091*
G37*
G36*
X03708D02*
X03697Y0409D01*
X03687Y04085*
X03679Y04079*
X03673Y04071*
X03669Y04061*
X03667Y04051*
X03669Y0404*
X03673Y0403*
X03679Y04022*
X03687Y04016*
X03697Y04012*
X03708Y0401*
X03718Y04012*
X03728Y04016*
X03736Y04022*
X03742Y0403*
X03747Y0404*
X03748Y04051*
X03747Y04061*
X03742Y04071*
X03736Y04079*
X03728Y04085*
X03718Y0409*
X03708Y04091*
G37*
G36*
X03608D02*
X03597Y0409D01*
X03587Y04085*
X03579Y04079*
X03573Y04071*
X03569Y04061*
X03567Y04051*
X03569Y0404*
X03573Y0403*
X03579Y04022*
X03587Y04016*
X03597Y04012*
X03608Y0401*
X03618Y04012*
X03628Y04016*
X03636Y04022*
X03642Y0403*
X03647Y0404*
X03648Y04051*
X03647Y04061*
X03642Y04071*
X03636Y04079*
X03628Y04085*
X03618Y0409*
X03608Y04091*
G37*
G36*
X03508D02*
X03497Y0409D01*
X03487Y04085*
X03479Y04079*
X03473Y04071*
X03469Y04061*
X03467Y04051*
X03469Y0404*
X03473Y0403*
X03479Y04022*
X03487Y04016*
X03497Y04012*
X03508Y0401*
X03518Y04012*
X03528Y04016*
X03536Y04022*
X03542Y0403*
X03547Y0404*
X03548Y04051*
X03547Y04061*
X03542Y04071*
X03536Y04079*
X03528Y04085*
X03518Y0409*
X03508Y04091*
G37*
G36*
X03408D02*
X03397Y0409D01*
X03387Y04085*
X03379Y04079*
X03373Y04071*
X03369Y04061*
X03367Y04051*
X03369Y0404*
X03373Y0403*
X03379Y04022*
X03387Y04016*
X03397Y04012*
X03408Y0401*
X03418Y04012*
X03428Y04016*
X03436Y04022*
X03442Y0403*
X03447Y0404*
X03448Y04051*
X03447Y04061*
X03442Y04071*
X03436Y04079*
X03428Y04085*
X03418Y0409*
X03408Y04091*
G37*
G36*
X03308D02*
X03297Y0409D01*
X03287Y04085*
X03279Y04079*
X03273Y04071*
X03269Y04061*
X03267Y04051*
X03269Y0404*
X03273Y0403*
X03279Y04022*
X03287Y04016*
X03297Y04012*
X03308Y0401*
X03318Y04012*
X03328Y04016*
X03336Y04022*
X03342Y0403*
X03347Y0404*
X03348Y04051*
X03347Y04061*
X03342Y04071*
X03336Y04079*
X03328Y04085*
X03318Y0409*
X03308Y04091*
G37*
G36*
X03208D02*
X03197Y0409D01*
X03187Y04085*
X03179Y04079*
X03173Y04071*
X03169Y04061*
X03167Y04051*
X03169Y0404*
X03173Y0403*
X03179Y04022*
X03187Y04016*
X03197Y04012*
X03208Y0401*
X03218Y04012*
X03228Y04016*
X03236Y04022*
X03242Y0403*
X03247Y0404*
X03248Y04051*
X03247Y04061*
X03242Y04071*
X03236Y04079*
X03228Y04085*
X03218Y0409*
X03208Y04091*
G37*
G36*
X03108D02*
X03097Y0409D01*
X03087Y04085*
X03079Y04079*
X03073Y04071*
X03069Y04061*
X03067Y04051*
X03069Y0404*
X03073Y0403*
X03079Y04022*
X03087Y04016*
X03097Y04012*
X03108Y0401*
X03118Y04012*
X03128Y04016*
X03136Y04022*
X03142Y0403*
X03147Y0404*
X03148Y04051*
X03147Y04061*
X03142Y04071*
X03136Y04079*
X03128Y04085*
X03118Y0409*
X03108Y04091*
G37*
G36*
X03008D02*
X02997Y0409D01*
X02987Y04085*
X02979Y04079*
X02973Y04071*
X02969Y04061*
X02967Y04051*
X02969Y0404*
X02973Y0403*
X02979Y04022*
X02987Y04016*
X02997Y04012*
X03008Y0401*
X03018Y04012*
X03028Y04016*
X03036Y04022*
X03042Y0403*
X03047Y0404*
X03048Y04051*
X03047Y04061*
X03042Y04071*
X03036Y04079*
X03028Y04085*
X03018Y0409*
X03008Y04091*
G37*
G36*
X02908D02*
X02897Y0409D01*
X02887Y04085*
X02879Y04079*
X02873Y04071*
X02869Y04061*
X02867Y04051*
X02869Y0404*
X02873Y0403*
X02879Y04022*
X02887Y04016*
X02897Y04012*
X02908Y0401*
X02918Y04012*
X02928Y04016*
X02936Y04022*
X02942Y0403*
X02947Y0404*
X02948Y04051*
X02947Y04061*
X02942Y04071*
X02936Y04079*
X02928Y04085*
X02918Y0409*
X02908Y04091*
G37*
G36*
X02808D02*
X02797Y0409D01*
X02787Y04085*
X02779Y04079*
X02773Y04071*
X02769Y04061*
X02767Y04051*
X02769Y0404*
X02773Y0403*
X02779Y04022*
X02787Y04016*
X02797Y04012*
X02808Y0401*
X02818Y04012*
X02828Y04016*
X02836Y04022*
X02842Y0403*
X02847Y0404*
X02848Y04051*
X02847Y04061*
X02842Y04071*
X02836Y04079*
X02828Y04085*
X02818Y0409*
X02808Y04091*
G37*
G36*
X02708D02*
X02697Y0409D01*
X02687Y04085*
X02679Y04079*
X02673Y04071*
X02669Y04061*
X02667Y04051*
X02669Y0404*
X02673Y0403*
X02679Y04022*
X02687Y04016*
X02697Y04012*
X02708Y0401*
X02718Y04012*
X02728Y04016*
X02736Y04022*
X02742Y0403*
X02747Y0404*
X02748Y04051*
X02747Y04061*
X02742Y04071*
X02736Y04079*
X02728Y04085*
X02718Y0409*
X02708Y04091*
G37*
G36*
X02608D02*
X02597Y0409D01*
X02587Y04085*
X02579Y04079*
X02573Y04071*
X02569Y04061*
X02567Y04051*
X02569Y0404*
X02573Y0403*
X02579Y04022*
X02587Y04016*
X02597Y04012*
X02608Y0401*
X02618Y04012*
X02628Y04016*
X02636Y04022*
X02642Y0403*
X02647Y0404*
X02648Y04051*
X02647Y04061*
X02642Y04071*
X02636Y04079*
X02628Y04085*
X02618Y0409*
X02608Y04091*
G37*
G36*
X02508D02*
X02497Y0409D01*
X02487Y04085*
X02479Y04079*
X02473Y04071*
X02469Y04061*
X02467Y04051*
X02469Y0404*
X02473Y0403*
X02479Y04022*
X02487Y04016*
X02497Y04012*
X02508Y0401*
X02518Y04012*
X02528Y04016*
X02536Y04022*
X02542Y0403*
X02547Y0404*
X02548Y04051*
X02547Y04061*
X02542Y04071*
X02536Y04079*
X02528Y04085*
X02518Y0409*
X02508Y04091*
G37*
G36*
X02408D02*
X02397Y0409D01*
X02387Y04085*
X02379Y04079*
X02373Y04071*
X02369Y04061*
X02367Y04051*
X02369Y0404*
X02373Y0403*
X02379Y04022*
X02387Y04016*
X02397Y04012*
X02408Y0401*
X02418Y04012*
X02428Y04016*
X02436Y04022*
X02442Y0403*
X02447Y0404*
X02448Y04051*
X02447Y04061*
X02442Y04071*
X02436Y04079*
X02428Y04085*
X02418Y0409*
X02408Y04091*
G37*
G36*
X04932Y04021D02*
X04898D01*
Y03987*
X04903Y03987*
X04913Y03991*
X04921Y03998*
X04928Y04006*
X04932Y04016*
X04932Y04021*
G37*
G36*
X04888D02*
X04853D01*
X04854Y04016*
X04858Y04006*
X04864Y03998*
X04873Y03991*
X04882Y03987*
X04888Y03987*
Y04021*
G37*
G36*
X02348Y03991D02*
X02313D01*
Y03956*
X02348*
Y03991*
G37*
G36*
X02303D02*
X02268D01*
Y03956*
X02303*
Y03991*
G37*
G36*
X02348Y03946D02*
X02313D01*
Y03911*
X02348*
Y03946*
G37*
G36*
X02303D02*
X02268D01*
Y03911*
X02303*
Y03946*
G37*
G36*
X04508Y03991D02*
X04497Y0399D01*
X04487Y03985*
X04479Y03979*
X04473Y03971*
X04469Y03961*
X04467Y03951*
X04469Y0394*
X04473Y0393*
X04479Y03922*
X04487Y03916*
X04497Y03912*
X04508Y0391*
X04518Y03912*
X04528Y03916*
X04536Y03922*
X04542Y0393*
X04547Y0394*
X04548Y03951*
X04547Y03961*
X04542Y03971*
X04536Y03979*
X04528Y03985*
X04518Y0399*
X04508Y03991*
G37*
G36*
X04408D02*
X04397Y0399D01*
X04387Y03985*
X04379Y03979*
X04373Y03971*
X04369Y03961*
X04367Y03951*
X04369Y0394*
X04373Y0393*
X04379Y03922*
X04387Y03916*
X04397Y03912*
X04408Y0391*
X04418Y03912*
X04428Y03916*
X04436Y03922*
X04442Y0393*
X04447Y0394*
X04448Y03951*
X04447Y03961*
X04442Y03971*
X04436Y03979*
X04428Y03985*
X04418Y0399*
X04408Y03991*
G37*
G36*
X04308D02*
X04297Y0399D01*
X04287Y03985*
X04279Y03979*
X04273Y03971*
X04269Y03961*
X04267Y03951*
X04269Y0394*
X04273Y0393*
X04279Y03922*
X04287Y03916*
X04297Y03912*
X04308Y0391*
X04318Y03912*
X04328Y03916*
X04336Y03922*
X04342Y0393*
X04347Y0394*
X04348Y03951*
X04347Y03961*
X04342Y03971*
X04336Y03979*
X04328Y03985*
X04318Y0399*
X04308Y03991*
G37*
G36*
X04208D02*
X04197Y0399D01*
X04187Y03985*
X04179Y03979*
X04173Y03971*
X04169Y03961*
X04167Y03951*
X04169Y0394*
X04173Y0393*
X04179Y03922*
X04187Y03916*
X04197Y03912*
X04208Y0391*
X04218Y03912*
X04228Y03916*
X04236Y03922*
X04242Y0393*
X04247Y0394*
X04248Y03951*
X04247Y03961*
X04242Y03971*
X04236Y03979*
X04228Y03985*
X04218Y0399*
X04208Y03991*
G37*
G36*
X04108D02*
X04097Y0399D01*
X04087Y03985*
X04079Y03979*
X04073Y03971*
X04069Y03961*
X04067Y03951*
X04069Y0394*
X04073Y0393*
X04079Y03922*
X04087Y03916*
X04097Y03912*
X04108Y0391*
X04118Y03912*
X04128Y03916*
X04136Y03922*
X04142Y0393*
X04147Y0394*
X04148Y03951*
X04147Y03961*
X04142Y03971*
X04136Y03979*
X04128Y03985*
X04118Y0399*
X04108Y03991*
G37*
G36*
X04008D02*
X03997Y0399D01*
X03987Y03985*
X03979Y03979*
X03973Y03971*
X03969Y03961*
X03967Y03951*
X03969Y0394*
X03973Y0393*
X03979Y03922*
X03987Y03916*
X03997Y03912*
X04008Y0391*
X04018Y03912*
X04028Y03916*
X04036Y03922*
X04042Y0393*
X04047Y0394*
X04048Y03951*
X04047Y03961*
X04042Y03971*
X04036Y03979*
X04028Y03985*
X04018Y0399*
X04008Y03991*
G37*
G36*
X03908D02*
X03897Y0399D01*
X03887Y03985*
X03879Y03979*
X03873Y03971*
X03869Y03961*
X03867Y03951*
X03869Y0394*
X03873Y0393*
X03879Y03922*
X03887Y03916*
X03897Y03912*
X03908Y0391*
X03918Y03912*
X03928Y03916*
X03936Y03922*
X03942Y0393*
X03947Y0394*
X03948Y03951*
X03947Y03961*
X03942Y03971*
X03936Y03979*
X03928Y03985*
X03918Y0399*
X03908Y03991*
G37*
G36*
X03808D02*
X03797Y0399D01*
X03787Y03985*
X03779Y03979*
X03773Y03971*
X03769Y03961*
X03767Y03951*
X03769Y0394*
X03773Y0393*
X03779Y03922*
X03787Y03916*
X03797Y03912*
X03808Y0391*
X03818Y03912*
X03828Y03916*
X03836Y03922*
X03842Y0393*
X03847Y0394*
X03848Y03951*
X03847Y03961*
X03842Y03971*
X03836Y03979*
X03828Y03985*
X03818Y0399*
X03808Y03991*
G37*
G36*
X03708D02*
X03697Y0399D01*
X03687Y03985*
X03679Y03979*
X03673Y03971*
X03669Y03961*
X03667Y03951*
X03669Y0394*
X03673Y0393*
X03679Y03922*
X03687Y03916*
X03697Y03912*
X03708Y0391*
X03718Y03912*
X03728Y03916*
X03736Y03922*
X03742Y0393*
X03747Y0394*
X03748Y03951*
X03747Y03961*
X03742Y03971*
X03736Y03979*
X03728Y03985*
X03718Y0399*
X03708Y03991*
G37*
G36*
X03608D02*
X03597Y0399D01*
X03587Y03985*
X03579Y03979*
X03573Y03971*
X03569Y03961*
X03567Y03951*
X03569Y0394*
X03573Y0393*
X03579Y03922*
X03587Y03916*
X03597Y03912*
X03608Y0391*
X03618Y03912*
X03628Y03916*
X03636Y03922*
X03642Y0393*
X03647Y0394*
X03648Y03951*
X03647Y03961*
X03642Y03971*
X03636Y03979*
X03628Y03985*
X03618Y0399*
X03608Y03991*
G37*
G36*
X03508D02*
X03497Y0399D01*
X03487Y03985*
X03479Y03979*
X03473Y03971*
X03469Y03961*
X03467Y03951*
X03469Y0394*
X03473Y0393*
X03479Y03922*
X03487Y03916*
X03497Y03912*
X03508Y0391*
X03518Y03912*
X03528Y03916*
X03536Y03922*
X03542Y0393*
X03547Y0394*
X03548Y03951*
X03547Y03961*
X03542Y03971*
X03536Y03979*
X03528Y03985*
X03518Y0399*
X03508Y03991*
G37*
G36*
X03408D02*
X03397Y0399D01*
X03387Y03985*
X03379Y03979*
X03373Y03971*
X03369Y03961*
X03367Y03951*
X03369Y0394*
X03373Y0393*
X03379Y03922*
X03387Y03916*
X03397Y03912*
X03408Y0391*
X03418Y03912*
X03428Y03916*
X03436Y03922*
X03442Y0393*
X03447Y0394*
X03448Y03951*
X03447Y03961*
X03442Y03971*
X03436Y03979*
X03428Y03985*
X03418Y0399*
X03408Y03991*
G37*
G36*
X03308D02*
X03297Y0399D01*
X03287Y03985*
X03279Y03979*
X03273Y03971*
X03269Y03961*
X03267Y03951*
X03269Y0394*
X03273Y0393*
X03279Y03922*
X03287Y03916*
X03297Y03912*
X03308Y0391*
X03318Y03912*
X03328Y03916*
X03336Y03922*
X03342Y0393*
X03347Y0394*
X03348Y03951*
X03347Y03961*
X03342Y03971*
X03336Y03979*
X03328Y03985*
X03318Y0399*
X03308Y03991*
G37*
G36*
X03208D02*
X03197Y0399D01*
X03187Y03985*
X03179Y03979*
X03173Y03971*
X03169Y03961*
X03167Y03951*
X03169Y0394*
X03173Y0393*
X03179Y03922*
X03187Y03916*
X03197Y03912*
X03208Y0391*
X03218Y03912*
X03228Y03916*
X03236Y03922*
X03242Y0393*
X03247Y0394*
X03248Y03951*
X03247Y03961*
X03242Y03971*
X03236Y03979*
X03228Y03985*
X03218Y0399*
X03208Y03991*
G37*
G36*
X03108D02*
X03097Y0399D01*
X03087Y03985*
X03079Y03979*
X03073Y03971*
X03069Y03961*
X03067Y03951*
X03069Y0394*
X03073Y0393*
X03079Y03922*
X03087Y03916*
X03097Y03912*
X03108Y0391*
X03118Y03912*
X03128Y03916*
X03136Y03922*
X03142Y0393*
X03147Y0394*
X03148Y03951*
X03147Y03961*
X03142Y03971*
X03136Y03979*
X03128Y03985*
X03118Y0399*
X03108Y03991*
G37*
G36*
X03008D02*
X02997Y0399D01*
X02987Y03985*
X02979Y03979*
X02973Y03971*
X02969Y03961*
X02967Y03951*
X02969Y0394*
X02973Y0393*
X02979Y03922*
X02987Y03916*
X02997Y03912*
X03008Y0391*
X03018Y03912*
X03028Y03916*
X03036Y03922*
X03042Y0393*
X03047Y0394*
X03048Y03951*
X03047Y03961*
X03042Y03971*
X03036Y03979*
X03028Y03985*
X03018Y0399*
X03008Y03991*
G37*
G36*
X02908D02*
X02897Y0399D01*
X02887Y03985*
X02879Y03979*
X02873Y03971*
X02869Y03961*
X02867Y03951*
X02869Y0394*
X02873Y0393*
X02879Y03922*
X02887Y03916*
X02897Y03912*
X02908Y0391*
X02918Y03912*
X02928Y03916*
X02936Y03922*
X02942Y0393*
X02947Y0394*
X02948Y03951*
X02947Y03961*
X02942Y03971*
X02936Y03979*
X02928Y03985*
X02918Y0399*
X02908Y03991*
G37*
G36*
X02808D02*
X02797Y0399D01*
X02787Y03985*
X02779Y03979*
X02773Y03971*
X02769Y03961*
X02767Y03951*
X02769Y0394*
X02773Y0393*
X02779Y03922*
X02787Y03916*
X02797Y03912*
X02808Y0391*
X02818Y03912*
X02828Y03916*
X02836Y03922*
X02842Y0393*
X02847Y0394*
X02848Y03951*
X02847Y03961*
X02842Y03971*
X02836Y03979*
X02828Y03985*
X02818Y0399*
X02808Y03991*
G37*
G36*
X02708D02*
X02697Y0399D01*
X02687Y03985*
X02679Y03979*
X02673Y03971*
X02669Y03961*
X02667Y03951*
X02669Y0394*
X02673Y0393*
X02679Y03922*
X02687Y03916*
X02697Y03912*
X02708Y0391*
X02718Y03912*
X02728Y03916*
X02736Y03922*
X02742Y0393*
X02747Y0394*
X02748Y03951*
X02747Y03961*
X02742Y03971*
X02736Y03979*
X02728Y03985*
X02718Y0399*
X02708Y03991*
G37*
G36*
X02608D02*
X02597Y0399D01*
X02587Y03985*
X02579Y03979*
X02573Y03971*
X02569Y03961*
X02567Y03951*
X02569Y0394*
X02573Y0393*
X02579Y03922*
X02587Y03916*
X02597Y03912*
X02608Y0391*
X02618Y03912*
X02628Y03916*
X02636Y03922*
X02642Y0393*
X02647Y0394*
X02648Y03951*
X02647Y03961*
X02642Y03971*
X02636Y03979*
X02628Y03985*
X02618Y0399*
X02608Y03991*
G37*
G36*
X02508D02*
X02497Y0399D01*
X02487Y03985*
X02479Y03979*
X02473Y03971*
X02469Y03961*
X02467Y03951*
X02469Y0394*
X02473Y0393*
X02479Y03922*
X02487Y03916*
X02497Y03912*
X02508Y0391*
X02518Y03912*
X02528Y03916*
X02536Y03922*
X02542Y0393*
X02547Y0394*
X02548Y03951*
X02547Y03961*
X02542Y03971*
X02536Y03979*
X02528Y03985*
X02518Y0399*
X02508Y03991*
G37*
G36*
X02408D02*
X02397Y0399D01*
X02387Y03985*
X02379Y03979*
X02373Y03971*
X02369Y03961*
X02367Y03951*
X02369Y0394*
X02373Y0393*
X02379Y03922*
X02387Y03916*
X02397Y03912*
X02408Y0391*
X02418Y03912*
X02428Y03916*
X02436Y03922*
X02442Y0393*
X02447Y0394*
X02448Y03951*
X02447Y03961*
X02442Y03971*
X02436Y03979*
X02428Y03985*
X02418Y0399*
X02408Y03991*
G37*
G36*
X02351Y03831D02*
Y03796D01*
X02382*
Y03831*
X02351*
G37*
G36*
X0335Y0386D02*
X0329D01*
Y03812*
X03225*
X03216Y03811*
X03208Y03806*
X03163Y0376*
X03115*
Y03779*
X03032*
Y0376*
X02738*
X02729Y03759*
X02721Y03754*
X02489Y03521*
X02484Y03514*
X02482Y03505*
Y03385*
X02476*
X02467Y03383*
X0246Y03378*
X02455Y03371*
X02453Y03363*
X02455Y03354*
X0246Y03347*
X02467Y03342*
X02476Y0334*
X02482*
Y03335*
X02476*
X02467Y03333*
X0246Y03328*
X02455Y03321*
X02453Y03313*
X02455Y03304*
X0246Y03297*
X02467Y03292*
X02476Y0329*
X02482*
Y03285*
X02476*
X02467Y03283*
X0246Y03278*
X02455Y03271*
X02453Y03263*
X02455Y03254*
X0246Y03247*
X02467Y03242*
X02476Y0324*
X02535*
X02543Y03242*
X0255Y03247*
X02555Y03254*
X02557Y03263*
X02555Y03271*
X0255Y03278*
X02543Y03283*
X02535Y03285*
X02528*
Y0329*
X02535*
X02543Y03292*
X0255Y03297*
X02555Y03304*
X02557Y03313*
X02555Y03321*
X0255Y03328*
X02543Y03333*
X02535Y03335*
X02528*
Y0334*
X02535*
X02543Y03342*
X0255Y03347*
X02555Y03354*
X02557Y03363*
X02555Y03371*
X0255Y03378*
X02543Y03383*
X02535Y03385*
X02528*
Y03496*
X02747Y03715*
X03032*
Y03696*
X03115*
Y03715*
X03173*
X03181Y03716*
X03189Y03721*
X03234Y03767*
X0329*
Y0372*
X0335*
Y0386*
G37*
G36*
X02382Y03786D02*
X02351D01*
Y03752*
X02382*
Y03786*
G37*
G36*
X0231Y03831D02*
X02307D01*
X02305*
X02236*
Y03752*
X02256*
Y03738*
X02257Y03732*
X0226Y03727*
X02279Y03709*
X02284Y03705*
X02288Y03704*
Y03637*
Y03635*
Y03632*
Y0363*
Y03561*
X02368*
Y03579*
X02373Y0358*
X02395Y03558*
X02394Y03555*
X02396Y03545*
X02402Y03537*
X0241Y03531*
X0242Y03529*
X02429Y03531*
X02438Y03537*
X02443Y03545*
X02445Y03555*
X02443Y03564*
X02438Y03573*
X02429Y03578*
X0242Y0358*
X02416Y03579*
X02389Y03607*
X02384Y0361*
X02378Y03612*
X02368*
Y0363*
Y03632*
Y03635*
Y03637*
Y03707*
X02343*
Y03711*
X02342Y03717*
X02339Y03722*
X0233Y0373*
X02325Y03734*
X0232Y03735*
X02296*
X02287Y03744*
Y03752*
X02305*
X02307*
X0231*
X02312*
X02341*
Y03791*
Y03831*
X02312*
X0231*
G37*
G36*
X04487Y03762D02*
X04466D01*
Y03741*
X04487*
Y03762*
G37*
G36*
X04456D02*
X04436D01*
Y03741*
X04456*
Y03762*
G37*
G36*
X04487Y03731D02*
X04466D01*
Y03711*
X04487*
Y03731*
G37*
G36*
X04456D02*
X04436D01*
Y03711*
X04456*
Y03731*
G37*
G36*
X03982Y03712D02*
X03972Y03711D01*
X03964Y03705*
X03962Y03702*
X03932*
Y03709*
X03873*
Y03665*
X03932*
Y03672*
X03962*
X03964Y03669*
X03972Y03663*
X03982Y03661*
X03992Y03663*
X04Y03669*
X04006Y03677*
X04007Y03687*
X04006Y03697*
X04Y03705*
X03992Y03711*
X03982Y03712*
G37*
G36*
X04312Y03746D02*
X04253D01*
X04245Y03745*
X04238Y0374*
X04237Y03739*
X04214*
X04208Y03738*
X04203Y03735*
X04179Y0371*
X04175Y03705*
X04174Y037*
Y03546*
X04118Y03489*
X04115Y0349*
X04107Y03495*
X04099Y03499*
X0409Y035*
X0408Y03499*
X04072Y03495*
X04065Y0349*
X04059Y03482*
X04055Y03474*
X04054Y03465*
X04055Y03455*
X04059Y03447*
X04065Y0344*
X04072Y03434*
X0408Y0343*
X0409Y03429*
X04099Y0343*
X04107Y03434*
X04115Y0344*
X04118Y0344*
X04174Y03383*
Y0328*
X04164Y03269*
X04138*
X04137Y0327*
X0413Y03275*
X04122Y03276*
X04062*
X04054Y03275*
X04047Y0327*
X04042Y03263*
X0404Y03254*
X04042Y03246*
X04047Y03238*
X04054Y03234*
X04062Y03232*
X04122*
X0413Y03234*
X04137Y03238*
X04138Y03239*
X0417*
X04176Y0324*
X04181Y03243*
X042Y03263*
X04204Y03268*
X04205Y03274*
Y0339*
X04204Y03395*
X042Y034*
X04136Y03465*
X0419Y03518*
X04194Y03514*
X04199Y0351*
X04205Y03509*
X04423*
X04429Y0351*
X04434Y03514*
X04457Y03537*
X04487*
Y03588*
X04436*
Y03558*
X04417Y0354*
X04211*
X04205Y03546*
Y03693*
X0422Y03709*
X04237*
X04238Y03708*
X04245Y03704*
X04253Y03702*
X04312*
X04321Y03704*
X04328Y03708*
X04333Y03716*
X04335Y03724*
X04333Y03733*
X04328Y0374*
X04321Y03745*
X04312Y03746*
G37*
G36*
X04578Y03704D02*
X04527D01*
Y03695*
X04487*
Y03703*
X04436*
Y03692*
X04325*
X04321Y03695*
X04312Y03696*
X04253*
X04245Y03695*
X04238Y0369*
X04233Y03683*
X04231Y03674*
X04233Y03666*
X04238Y03658*
X04245Y03654*
X04253Y03652*
X04312*
X04321Y03654*
X04325Y03656*
X04433*
X04436Y03652*
Y03647*
X04435Y03642*
X04325*
X04321Y03645*
X04312Y03646*
X04253*
X04245Y03645*
X04238Y0364*
X04233Y03633*
X04231Y03624*
X04233Y03616*
X04238Y03608*
X04245Y03604*
X04253Y03602*
X04312*
X04321Y03604*
X04325Y03606*
X04436*
Y03596*
X04487*
Y03604*
X04527*
Y03597*
X04578*
Y03647*
Y03652*
Y03654*
Y03704*
G37*
G36*
X04122Y03696D02*
X04097D01*
Y03679*
X04143*
X04142Y03683*
X04137Y0369*
X0413Y03695*
X04122Y03696*
G37*
G36*
X04087D02*
X04062D01*
X04054Y03695*
X04047Y0369*
X04042Y03683*
X04041Y03679*
X04087*
Y03696*
G37*
G36*
X04143Y03669D02*
X04097D01*
Y03652*
X04122*
X0413Y03654*
X04137Y03658*
X04142Y03666*
X04143Y03669*
G37*
G36*
X04087D02*
X04041D01*
X04042Y03666*
X04047Y03658*
X04054Y03654*
X04062Y03652*
X04087*
Y03669*
G37*
G36*
X03079Y03679D02*
Y03643D01*
X03115*
X03114Y03648*
X0311Y03658*
X03103Y03667*
X03094Y03674*
X03084Y03678*
X03079Y03679*
G37*
G36*
X03069D02*
X03063Y03678D01*
X03053Y03674*
X03044Y03667*
X03037Y03658*
X03033Y03648*
X03032Y03643*
X03069*
Y03679*
G37*
G36*
X04122Y03646D02*
X04062D01*
X04054Y03645*
X04047Y0364*
X04046Y03639*
X03979*
X03973Y03638*
X03968Y03635*
X03961Y03627*
X03932*
Y03634*
X03873*
Y0359*
X03932*
Y03597*
X03967*
X03973Y03598*
X03978Y03601*
X03985Y03609*
X04046*
X04047Y03608*
X04054Y03604*
X04062Y03602*
X04122*
X0413Y03604*
X04137Y03608*
X04142Y03616*
X04144Y03624*
X04142Y03633*
X04137Y0364*
X0413Y03645*
X04122Y03646*
G37*
G36*
X05099Y03836D02*
X05082Y03835D01*
X05066Y03831*
X05051Y03825*
X05037Y03816*
X05024Y03806*
X05014Y03793*
X05005Y03779*
X04999Y03764*
X04995Y03748*
X04994Y03731*
X04995Y03715*
X04999Y03699*
X05005Y03684*
X05014Y0367*
X05024Y03657*
X05037Y03647*
X05051Y03638*
X05066Y03632*
X05082Y03628*
X05099Y03627*
X05115Y03628*
X05131Y03632*
X05146Y03638*
X0516Y03647*
X05173Y03657*
X05183Y0367*
X05192Y03684*
X05198Y03699*
X05202Y03715*
X05203Y03731*
X05202Y03748*
X05198Y03764*
X05192Y03779*
X05183Y03793*
X05173Y03806*
X0516Y03816*
X05146Y03825*
X05131Y03831*
X05115Y03835*
X05099Y03836*
G37*
G36*
X03735Y03619D02*
Y036D01*
X03754*
X03753Y03604*
X03748Y03613*
X03739Y03618*
X03735Y03619*
G37*
G36*
X03725D02*
X0372Y03618D01*
X03712Y03613*
X03706Y03604*
X03705Y036*
X03725*
Y03619*
G37*
G36*
X03115Y03633D02*
X03079D01*
Y03596*
X03084Y03597*
X03094Y03601*
X03103Y03608*
X0311Y03617*
X03114Y03627*
X03115Y03633*
G37*
G36*
X03069D02*
X03032D01*
X03033Y03627*
X03037Y03617*
X03044Y03608*
X03053Y03601*
X03063Y03597*
X03069Y03596*
Y03633*
G37*
G36*
X03826Y03607D02*
X03801D01*
Y0359*
X03826*
Y03607*
G37*
G36*
X03791D02*
X03767D01*
Y0359*
X03791*
Y03607*
G37*
G36*
X04122Y03596D02*
X04097D01*
Y03579*
X04143*
X04142Y03583*
X04137Y0359*
X0413Y03595*
X04122Y03596*
G37*
G36*
X04087D02*
X04062D01*
X04054Y03595*
X04047Y0359*
X04042Y03583*
X04041Y03579*
X04087*
Y03596*
G37*
G36*
X04312D02*
X04288D01*
Y03579*
X04334*
X04333Y03583*
X04328Y0359*
X04321Y03595*
X04312Y03596*
G37*
G36*
X04278D02*
X04253D01*
X04245Y03595*
X04238Y0359*
X04233Y03583*
X04232Y03579*
X04278*
Y03596*
G37*
G36*
X03754Y0359D02*
X03735D01*
Y0357*
X03739Y03571*
X03748Y03577*
X03753Y03585*
X03754Y0359*
G37*
G36*
X03725D02*
X03705D01*
X03706Y03585*
X03712Y03577*
X0372Y03571*
X03725Y0357*
Y0359*
G37*
G36*
X04334Y03569D02*
X04288D01*
Y03552*
X04312*
X04321Y03554*
X04328Y03558*
X04333Y03566*
X04334Y03569*
G37*
G36*
X04278D02*
X04232D01*
X04233Y03566*
X04238Y03558*
X04245Y03554*
X04253Y03552*
X04278*
Y03569*
G37*
G36*
X04143D02*
X04097D01*
Y03552*
X04122*
X0413Y03554*
X04137Y03558*
X04142Y03566*
X04143Y03569*
G37*
G36*
X04087D02*
X04041D01*
X04042Y03566*
X04047Y03558*
X04054Y03554*
X04062Y03552*
X04087*
Y03569*
G37*
G36*
X0335Y03595D02*
X03325D01*
Y0353*
X0335*
Y03595*
G37*
G36*
X03315D02*
X0329D01*
Y0353*
X03315*
Y03595*
G37*
G36*
X0335Y0352D02*
X03325D01*
Y03455*
X0335*
Y0352*
G37*
G36*
X03315D02*
X0329D01*
Y03455*
X03315*
Y0352*
G37*
G36*
X04369Y03441D02*
X04349D01*
Y0342*
X04369*
Y03441*
G37*
G36*
X04339D02*
X04318D01*
Y0342*
X04339*
Y03441*
G37*
G36*
X05086Y03501D02*
X04999D01*
Y03414*
X05086*
Y03501*
G37*
G36*
X04369Y0341D02*
X04349D01*
Y03389*
X04369*
Y0341*
G37*
G36*
X04339D02*
X04318D01*
Y03389*
X04339*
Y0341*
G37*
G36*
X03347Y03413D02*
X03311D01*
Y03373*
X03347*
Y03413*
G37*
G36*
X03301D02*
X03264D01*
Y03373*
X03301*
Y03413*
G37*
G36*
X04607Y03387D02*
X04587D01*
Y03366*
X04607*
Y03387*
G37*
G36*
X04577D02*
X04556D01*
Y03366*
X04577*
Y03387*
G37*
G36*
X05154Y03446D02*
X05143Y03445D01*
X05133Y03441*
X05124Y03434*
X05117Y03425*
X05112Y03414*
X05111Y03403*
X05112Y03391*
X05117Y03381*
X05124Y03372*
X05133Y03365*
X05143Y03361*
X05154Y03359*
X05166Y03361*
X05176Y03365*
X05185Y03372*
X05192Y03381*
X05197Y03391*
X05198Y03403*
X05197Y03414*
X05192Y03425*
X05185Y03434*
X05176Y03441*
X05166Y03445*
X05154Y03446*
G37*
G36*
X04607Y03356D02*
X04587D01*
Y03336*
X04607*
Y03356*
G37*
G36*
X04577D02*
X04556D01*
Y03336*
X04577*
Y03356*
G37*
G36*
X04484Y03387D02*
X04432D01*
Y03336*
X04484*
Y03346*
X04497*
Y03336*
X04548*
Y03387*
X04497*
Y03377*
X04484*
Y03387*
G37*
G36*
X0431Y03441D02*
X04259D01*
Y03389*
X04269*
Y03376*
X04253*
X04245Y03375*
X04238Y0337*
X04233Y03363*
X04231Y03354*
X04233Y03346*
X04238Y03338*
X04245Y03334*
X04253Y03332*
X04312*
X04321Y03334*
X04328Y03338*
X04333Y03346*
X04335Y03354*
X04333Y03363*
X04328Y0337*
X04321Y03375*
X04312Y03376*
X043*
Y03389*
X0431*
Y03441*
G37*
G36*
X03074Y03579D02*
X03063Y03578D01*
X03053Y03574*
X03044Y03567*
X03037Y03558*
X03033Y03548*
X03032Y03538*
X03033Y03527*
X03037Y03517*
X03044Y03508*
X03051Y03503*
Y03421*
X03052Y03412*
X03057Y03404*
X0311Y03352*
X03117Y03347*
X03126Y03345*
X03154*
Y03323*
X03237*
Y03413*
X03154*
Y03391*
X03136*
X03096Y0343*
Y03503*
X03103Y03508*
X0311Y03517*
X03114Y03527*
X03115Y03538*
X03114Y03548*
X0311Y03558*
X03103Y03567*
X03094Y03574*
X03084Y03578*
X03074Y03579*
G37*
G36*
X04122Y03326D02*
X04097D01*
Y03309*
X04143*
X04142Y03313*
X04137Y0332*
X0413Y03325*
X04122Y03326*
G37*
G36*
X04087D02*
X04062D01*
X04054Y03325*
X04047Y0332*
X04042Y03313*
X04041Y03309*
X04087*
Y03326*
G37*
G36*
X05043Y03392D02*
X05031Y0339D01*
X05021Y03386*
X05012Y03379*
X05005Y0337*
X05Y03359*
X04999Y03348*
X05Y03337*
X05005Y03326*
X05012Y03317*
X05021Y0331*
X05031Y03306*
X05043Y03305*
X05054Y03306*
X05064Y0331*
X05073Y03317*
X0508Y03326*
X05085Y03337*
X05086Y03348*
X05085Y03359*
X0508Y0337*
X05073Y03379*
X05064Y03386*
X05054Y0339*
X05043Y03392*
G37*
G36*
X04143Y03299D02*
X04097D01*
Y03282*
X04122*
X0413Y03284*
X04137Y03288*
X04142Y03296*
X04143Y03299*
G37*
G36*
X04087D02*
X04041D01*
X04042Y03296*
X04047Y03288*
X04054Y03284*
X04062Y03282*
X04087*
Y03299*
G37*
G36*
X05154Y03337D02*
X05143Y03336D01*
X05133Y03331*
X05124Y03325*
X05117Y03315*
X05112Y03305*
X05111Y03294*
X05112Y03282*
X05117Y03272*
X05124Y03263*
X05133Y03256*
X05143Y03252*
X05154Y0325*
X05166Y03252*
X05176Y03256*
X05185Y03263*
X05192Y03272*
X05197Y03282*
X05198Y03294*
X05197Y03305*
X05192Y03315*
X05185Y03325*
X05176Y03331*
X05166Y03336*
X05154Y03337*
G37*
G36*
X02535Y03235D02*
X0251D01*
Y03218*
X02556*
X02555Y03221*
X0255Y03228*
X02543Y03233*
X02535Y03235*
G37*
G36*
X025D02*
X02476D01*
X02467Y03233*
X0246Y03228*
X02455Y03221*
X02454Y03218*
X025*
Y03235*
G37*
G36*
X04602Y03217D02*
X04582D01*
Y03196*
X04602*
Y03217*
G37*
G36*
X04572D02*
X04551D01*
Y03196*
X04572*
Y03217*
G37*
G36*
X02556Y03208D02*
X0251D01*
Y0319*
X02535*
X02543Y03192*
X0255Y03197*
X02555Y03204*
X02556Y03208*
G37*
G36*
X025D02*
X02454D01*
X02455Y03204*
X0246Y03197*
X02467Y03192*
X02476Y0319*
X025*
Y03208*
G37*
G36*
X04312Y03226D02*
X04253D01*
X04245Y03225*
X04238Y0322*
X04233Y03213*
X04231Y03204*
X04233Y03196*
X04238Y03188*
X04245Y03184*
X04253Y03182*
X04312*
X04321Y03184*
X04328Y03188*
X04333Y03196*
X04335Y03204*
X04333Y03213*
X04328Y0322*
X04321Y03225*
X04312Y03226*
G37*
G36*
X04602Y03186D02*
X04582D01*
Y03166*
X04602*
Y03186*
G37*
G36*
X04572D02*
X04551D01*
Y03166*
X04572*
Y03186*
G37*
G36*
X04482Y03218D02*
X04431D01*
Y03167*
X04482*
Y03177*
X04492*
Y03166*
X04543*
Y03217*
X04492*
Y03208*
X04482*
Y03218*
G37*
G36*
X05365Y04127D02*
X05076D01*
X05069Y04126*
X05063Y04122*
X05006Y04064*
X05003Y04065*
X04993Y04067*
X04982Y04065*
X04973Y04061*
X04964Y04055*
X04958Y04046*
X04954Y04037*
X04952Y04026*
X04954Y04016*
X04958Y04006*
X04964Y03998*
X04973Y03991*
X04982Y03987*
X04993Y03986*
X05003Y03987*
X05006Y03988*
X05012Y03982*
Y03917*
X04798Y03703*
X04637*
Y03704*
X04586*
Y03652*
Y03649*
Y03597*
X04637*
Y03612*
X04786*
X04792Y03614*
X04798Y03618*
X0506Y03879*
X05067Y03887*
X05071Y03892*
X05072Y03899*
Y03981*
X0508Y03988*
X05082Y03987*
X05093Y03986*
X05103Y03987*
X05113Y03991*
X05121Y03998*
X05128Y04006*
X05132Y04016*
X05133Y04026*
X05132Y04037*
X05131Y04039*
X05158Y04067*
X05173*
X05174Y04062*
X05173Y04061*
X05164Y04055*
X05158Y04046*
X05154Y04037*
X05152Y04026*
X05154Y04016*
X05158Y04006*
X05164Y03998*
X05173Y03991*
X05182Y03987*
X05193Y03986*
X05203Y03987*
X05213Y03991*
X05221Y03998*
X05228Y04006*
X05232Y04016*
X05233Y04026*
X05232Y04037*
X05228Y04046*
X05221Y04055*
X05213Y04061*
X05212Y04062*
X05213Y04067*
X05273*
X05274Y04062*
X05273Y04061*
X05264Y04055*
X05258Y04046*
X05254Y04037*
X05252Y04026*
X05254Y04016*
X05258Y04006*
X05264Y03998*
X05273Y03991*
X05282Y03987*
X05293Y03986*
X05303Y03987*
X05313Y03991*
X05321Y03998*
X05328Y04006*
X05332Y04016*
X05333Y04026*
X05332Y04037*
X05328Y04046*
X05321Y04055*
X05313Y04061*
X05312Y04062*
X05313Y04067*
X05347*
X05377Y04037*
Y02897*
X05246Y02766*
X05194*
X05192Y0277*
X05185Y02779*
X05176Y02786*
X05166Y02791*
X05154Y02792*
X05143Y02791*
X05133Y02786*
X05124Y02779*
X05122Y02777*
X05117Y02779*
Y02795*
X05139Y02817*
X05143Y02815*
X05154Y02814*
X05166Y02815*
X05176Y0282*
X05185Y02827*
X05192Y02836*
X05197Y02846*
X05198Y02857*
X05197Y02869*
X05192Y02879*
X05185Y02888*
X05181Y02892*
X05183Y02897*
X05195*
X05201Y02898*
X05207Y02902*
X05247Y02942*
X05251Y02948*
X05252Y02955*
Y02995*
X05251Y03002*
X05247Y03008*
X05195Y0306*
X05197Y03064*
X05198Y03076*
X05197Y03087*
X05192Y03097*
X05185Y03106*
X05176Y03113*
X05166Y03118*
X05154Y03119*
X05143Y03118*
X05133Y03113*
X05124Y03106*
X05117Y03098*
X05112Y03099*
Y0316*
X05112Y03161*
X05117Y03163*
X05124Y03154*
X05133Y03147*
X05143Y03142*
X05154Y03141*
X05166Y03142*
X05176Y03147*
X05185Y03154*
X05192Y03163*
X05197Y03173*
X05198Y03185*
X05197Y03196*
X05192Y03206*
X05185Y03215*
X05176Y03222*
X05166Y03227*
X05154Y03228*
X05143Y03227*
X05133Y03222*
X05124Y03215*
X05117Y03206*
X05112Y03196*
X05111Y03185*
X05112Y03173*
X05108Y03171*
X05107Y03172*
X05082Y03197*
X05076Y03201*
X05073Y03202*
X05072Y03207*
X05073Y03208*
X0508Y03217*
X05085Y03228*
X05086Y03239*
X05085Y0325*
X0508Y03261*
X05073Y0327*
X05064Y03277*
X05054Y03281*
X05043Y03283*
X05031Y03281*
X05021Y03277*
X05012Y0327*
X05005Y03261*
X05Y0325*
X04999Y03239*
X05Y03228*
X05005Y03217*
X05012Y03208*
X05013Y03207*
X05012Y03202*
X05008Y03201*
X05002Y03197*
X04987Y03182*
X04834Y03336*
X04833Y03339*
X04828Y03348*
X04819Y03353*
X0481Y03355*
X048Y03353*
X04792Y03348*
X04791Y03347*
X04715*
X04708Y03346*
X04702Y03342*
X04667Y03307*
X04501*
X04494Y03315*
X04488Y03319*
X04484Y0332*
Y03328*
X04432*
Y03322*
X04325*
X04321Y03325*
X04312Y03326*
X04253*
X04245Y03325*
X04238Y0332*
X04233Y03313*
X04231Y03304*
X04233Y03296*
X04238Y03288*
X04245Y03284*
X04253Y03282*
X04312*
X04321Y03284*
X04325Y03286*
X04432*
Y03277*
X04431*
Y03272*
X04325*
X04321Y03275*
X04312Y03276*
X04253*
X04245Y03275*
X04238Y0327*
X04233Y03263*
X04231Y03254*
X04233Y03246*
X04238Y03238*
X04245Y03234*
X04253Y03232*
X04312*
X04321Y03234*
X04325Y03236*
X04431*
Y03226*
X04482*
Y03234*
X04486Y03235*
X04492Y03239*
X045Y03247*
X04667*
X04697Y03217*
X04703Y03213*
X0471Y03212*
X04771*
X04772Y03212*
X0478Y03206*
X0479Y03204*
X0479Y03204*
X04952Y03042*
Y03005*
X04953Y02998*
X04957Y02992*
X04992Y02957*
X04998Y02953*
X05005Y02952*
X05015*
X05017Y02947*
X05012Y02943*
X05005Y02934*
X05Y02923*
X05Y02917*
X05086*
X05085Y02923*
X05082Y0293*
X05086Y02932*
X05117Y02902*
X05123Y02898*
X05127Y02897*
X05128Y02892*
X05124Y02888*
X05117Y02879*
X05112Y02869*
X05111Y02857*
X05112Y02846*
X05114Y02842*
X05089Y02817*
X05083Y02818*
X05083*
X0508Y02825*
X05073Y02834*
X05064Y02841*
X05054Y02845*
X05048Y02846*
Y02803*
Y0276*
X05054Y02761*
X05064Y02765*
X05073Y02772*
X05077Y02776*
X05082Y02775*
Y02725*
X05082Y02721*
X05078Y02719*
X05073Y02725*
X05064Y02732*
X05054Y02736*
X05043Y02737*
X05031Y02736*
X05021Y02732*
X05012Y02725*
X05005Y02716*
X05Y02705*
X04999Y02694*
X05Y02683*
X05005Y02672*
X05012Y02663*
X0502Y02657*
Y02591*
X05021Y02583*
X05026Y02575*
X05034Y0257*
X05043Y02569*
X05173*
X05305Y02437*
Y02134*
X05299Y0213*
X05293Y02121*
X05289Y02112*
X05287Y02101*
X05289Y02091*
X05293Y02081*
X05299Y02073*
X05308Y02066*
X05317Y02062*
X05328Y02061*
X05338Y02062*
X05348Y02066*
X05356Y02073*
X05363Y02081*
X05367Y02091*
X05368Y02101*
X05367Y02112*
X05363Y02121*
X05356Y0213*
X05351Y02134*
Y02446*
X05349Y02455*
X05344Y02463*
X05199Y02608*
X05191Y02613*
X05183Y02614*
X05066*
Y02657*
X05073Y02663*
X0508Y02672*
X05085Y02683*
X05086Y02694*
X05085Y02705*
X05083Y02708*
X05088Y02711*
X05127Y02672*
X05133Y02668*
X0514Y02667*
X05225*
X05232Y02668*
X05238Y02672*
X05432Y02867*
X05436Y02872*
X05437Y02879*
Y04055*
X05436Y04062*
X05432Y04068*
X05378Y04122*
X05372Y04126*
X05365Y04127*
G37*
G36*
X02696Y03385D02*
X02692Y03385D01*
X02666*
X02658Y03383*
X02651Y03378*
X02646Y03371*
X02644Y03363*
X02646Y03354*
X02651Y03347*
X02658Y03342*
X02666Y0334*
X02673*
Y03335*
X02666*
X02658Y03333*
X02651Y03328*
X02646Y03321*
X02644Y03313*
X02646Y03304*
X02651Y03297*
X02658Y03292*
X02666Y0329*
X02673*
Y03285*
X02666*
X02658Y03283*
X02651Y03278*
X02646Y03271*
X02644Y03263*
X02646Y03254*
X02651Y03247*
X02658Y03242*
X02666Y0324*
X02673*
Y03235*
X02666*
X02658Y03233*
X02651Y03228*
X02646Y03221*
X02644Y03213*
X02646Y03204*
X02651Y03197*
X02658Y03192*
X02666Y0319*
X02673*
Y03094*
X0264*
Y03067*
X02585*
Y03107*
X02485*
Y03022*
X02532*
X02535Y03022*
X0264*
Y02865*
X02739*
Y03094*
X02719*
Y0319*
X02726*
X02734Y03192*
X02741Y03197*
X02746Y03204*
X02748Y03213*
X02746Y03221*
X02741Y03228*
X02734Y03233*
X02726Y03235*
X02719*
Y0324*
X02726*
X02734Y03242*
X02741Y03247*
X02746Y03254*
X02748Y03263*
X02746Y03271*
X02741Y03278*
X02734Y03283*
X02726Y03285*
X02719*
Y0329*
X02726*
X02734Y03292*
X02741Y03297*
X02746Y03304*
X02748Y03313*
X02746Y03321*
X02741Y03328*
X02734Y03333*
X02726Y03335*
X02719*
Y0334*
X02726*
X02734Y03342*
X02741Y03347*
X02746Y03354*
X02748Y03363*
X02746Y03371*
X02741Y03378*
X02734Y03383*
X02726Y03385*
X027*
X02696Y03385*
G37*
G36*
X04369Y03071D02*
X04349D01*
Y0305*
X04369*
Y03071*
G37*
G36*
X04339D02*
X04318D01*
Y0305*
X04339*
Y03071*
G37*
G36*
X04369Y0304D02*
X04349D01*
Y03019*
X04369*
Y0304*
G37*
G36*
X04339D02*
X04318D01*
Y03019*
X04339*
Y0304*
G37*
G36*
X04612Y03022D02*
X04592D01*
Y03001*
X04612*
Y03022*
G37*
G36*
X04582D02*
X04561D01*
Y03001*
X04582*
Y03022*
G37*
G36*
X04612Y02991D02*
X04592D01*
Y02971*
X04612*
Y02991*
G37*
G36*
X04582D02*
X04561D01*
Y02971*
X04582*
Y02991*
G37*
G36*
X04489Y03022D02*
X04437D01*
Y02971*
X04489*
Y02981*
X04502*
Y02971*
X04553*
Y03022*
X04502*
Y03012*
X04489*
Y03022*
G37*
G36*
X0431Y03071D02*
X04259D01*
Y03019*
X04269*
Y03006*
X04253*
X04245Y03005*
X04238Y03*
X04233Y02993*
X04231Y02984*
X04233Y02976*
X04238Y02968*
X04245Y02964*
X04253Y02962*
X04312*
X04321Y02964*
X04328Y02968*
X04333Y02976*
X04335Y02984*
X04333Y02993*
X04328Y03*
X04321Y03005*
X04312Y03006*
X043*
Y03019*
X0431*
Y03071*
G37*
G36*
X04489Y02963D02*
X04437D01*
Y02952*
X04325*
X04321Y02955*
X04312Y02956*
X04253*
X04245Y02955*
X04238Y0295*
X04233Y02943*
X04231Y02934*
X04233Y02926*
X04238Y02918*
X04245Y02914*
X04253Y02912*
X04312*
X04321Y02914*
X04325Y02916*
X04436*
X04437Y02912*
X04436Y02907*
Y02902*
X04325*
X04321Y02905*
X04312Y02906*
X04253*
X04245Y02905*
X04238Y029*
X04233Y02893*
X04231Y02884*
X04233Y02876*
X04238Y02868*
X04245Y02864*
X04253Y02862*
X04312*
X04321Y02864*
X04325Y02866*
X04436*
Y02856*
X04487*
Y02864*
X04491Y02865*
X04497Y02869*
X04508Y02879*
X04762*
X04775Y02867*
X04776Y0286*
X04782Y02852*
X04782Y02851*
Y0269*
X04783Y02683*
X04787Y02677*
X04877Y02587*
Y02346*
X04872Y02344*
X04657Y02559*
X04653Y02561*
X04647Y02567*
Y02594*
X04596*
Y02544*
Y02542*
Y02539*
Y02487*
X04622*
X0491Y02199*
Y02137*
X04908Y02136*
X04899Y0213*
X04893Y02121*
X04889Y02112*
X04887Y02101*
X04889Y02091*
X04893Y02081*
X04899Y02073*
X04908Y02066*
X04917Y02062*
X04928Y02061*
X04938Y02062*
X04948Y02066*
X04956Y02073*
X04963Y02081*
X04967Y02091*
X04968Y02101*
X04967Y02112*
X04963Y02121*
X04956Y0213*
X04948Y02136*
X04946Y02137*
Y02206*
X04947Y02207*
X0495Y02208*
X0501Y02149*
Y02137*
X05008Y02136*
X04999Y0213*
X04993Y02121*
X04989Y02112*
X04987Y02101*
X04989Y02091*
X04993Y02081*
X04999Y02073*
X05008Y02066*
X05017Y02062*
X05028Y02061*
X05038Y02062*
X05048Y02066*
X05056Y02073*
X05063Y02081*
X05067Y02091*
X05068Y02101*
X05067Y02112*
X05063Y02121*
X05056Y0213*
X05048Y02136*
X05046Y02137*
Y02156*
X05044Y02163*
X0504Y02169*
X04997Y02212*
X04999Y02217*
X05132*
X05147Y02202*
Y02145*
X05141Y02139*
X05138Y0214*
X05128Y02142*
X05117Y0214*
X05108Y02136*
X05099Y0213*
X05093Y02121*
X05089Y02112*
X05087Y02101*
X05089Y02091*
X05093Y02081*
X05099Y02073*
X05108Y02066*
X05117Y02062*
X05128Y02061*
X05138Y02062*
X05148Y02066*
X05156Y02073*
X05163Y02081*
X05167Y02091*
X05168Y02101*
X05167Y02112*
X05166Y02114*
X05174Y02123*
X05181Y02123*
X0519Y02114*
X05189Y02112*
X05187Y02101*
X05189Y02091*
X05193Y02081*
X05199Y02073*
X05208Y02066*
X05217Y02062*
X05228Y02061*
X05238Y02062*
X05248Y02066*
X05256Y02073*
X05263Y02081*
X05267Y02091*
X05268Y02101*
X05267Y02112*
X05263Y02121*
X05256Y0213*
X05248Y02136*
X05238Y0214*
X05228Y02142*
X05217Y0214*
X05215Y02139*
X05207Y02147*
Y0222*
X05206Y02227*
X05202Y02233*
X05163Y02272*
X05157Y02276*
X0515Y02277*
X05002*
X04937Y02342*
Y02605*
X04936Y02612*
X04932Y02618*
X04925Y02625*
X04842Y02707*
Y02841*
X04845Y02843*
X04849Y02849*
X0485Y02856*
Y02883*
X04849Y0289*
X04845Y02896*
X04818Y02922*
X0482Y0293*
X04818Y02939*
X04813Y02948*
X04804Y02953*
X04795Y02955*
X04785Y02953*
X04777Y02948*
X04776Y02947*
X0477Y02946*
X04764Y02942*
X04762Y0294*
X04509*
X04499Y0295*
X04493Y02954*
X04489Y02955*
Y02963*
G37*
G36*
X04122Y02956D02*
X04097D01*
Y02939*
X04143*
X04142Y02943*
X04137Y0295*
X0413Y02955*
X04122Y02956*
G37*
G36*
X04087D02*
X04062D01*
X04054Y02955*
X04047Y0295*
X04042Y02943*
X04041Y02939*
X04087*
Y02956*
G37*
G36*
X03009Y03094D02*
X0291D01*
Y02865*
X03009*
Y02952*
X03109*
X03114Y02944*
X03123Y02937*
X03133Y02933*
X03145Y02932*
X03156Y02933*
X03166Y02937*
X03175Y02944*
X03182Y02953*
X03186Y02963*
X03187Y02975*
X03186Y02986*
X03182Y02996*
X03175Y03005*
X03166Y03012*
X03156Y03016*
X03145Y03017*
X03133Y03016*
X03123Y03012*
X03114Y03005*
X03109Y02997*
X03009*
Y03094*
G37*
G36*
X04015Y02944D02*
Y02925D01*
X04034*
X04033Y02929*
X04028Y02938*
X04019Y02943*
X04015Y02944*
G37*
G36*
X04143Y02929D02*
X04097D01*
Y02912*
X04122*
X0413Y02914*
X04137Y02918*
X04142Y02926*
X04143Y02929*
G37*
G36*
X04087D02*
X04041D01*
X04042Y02926*
X04047Y02918*
X04054Y02914*
X04062Y02912*
X04087*
Y02929*
G37*
G36*
X04034Y02915D02*
X04015D01*
Y02895*
X04019Y02896*
X04028Y02902*
X04033Y0291*
X04034Y02915*
G37*
G36*
X02585Y02932D02*
X0254D01*
Y02895*
X02585*
Y02932*
G37*
G36*
X0253D02*
X02485D01*
Y02895*
X0253*
Y02932*
G37*
G36*
X05086Y02907D02*
X05048D01*
Y02869*
X05054Y0287*
X05064Y02874*
X05073Y02881*
X0508Y0289*
X05085Y02901*
X05086Y02907*
G37*
G36*
X05038D02*
X05D01*
X05Y02901*
X05005Y0289*
X05012Y02881*
X05021Y02874*
X05031Y0287*
X05038Y02869*
Y02907*
G37*
G36*
X02585Y02885D02*
X0254D01*
Y02847*
X02585*
Y02885*
G37*
G36*
X0253D02*
X02485D01*
Y02847*
X0253*
Y02885*
G37*
G36*
X04607Y02847D02*
X04587D01*
Y02826*
X04607*
Y02847*
G37*
G36*
X04577D02*
X04556D01*
Y02826*
X04577*
Y02847*
G37*
G36*
X04312Y02856D02*
X04253D01*
X04245Y02855*
X04238Y0285*
X04233Y02843*
X04231Y02834*
X04233Y02826*
X04238Y02818*
X04245Y02814*
X04253Y02812*
X04312*
X04321Y02814*
X04328Y02818*
X04333Y02826*
X04335Y02834*
X04333Y02843*
X04328Y0285*
X04321Y02855*
X04312Y02856*
G37*
G36*
X05038Y02846D02*
X05031Y02845D01*
X05021Y02841*
X05012Y02834*
X05005Y02825*
X05Y02814*
X05Y02808*
X05038*
Y02846*
G37*
G36*
X04607Y02816D02*
X04587D01*
Y02796*
X04607*
Y02816*
G37*
G36*
X04577D02*
X04556D01*
Y02796*
X04577*
Y02816*
G37*
G36*
X04487Y02848D02*
X04436D01*
Y02797*
X04487*
Y02807*
X04497*
Y02796*
X04548*
Y02847*
X04497*
Y02838*
X04487*
Y02848*
G37*
G36*
X05038Y02798D02*
X05D01*
X05Y02792*
X05005Y02781*
X05012Y02772*
X05021Y02765*
X05031Y02761*
X05038Y0276*
Y02798*
G37*
G36*
X04487Y02652D02*
X04466D01*
Y02631*
X04487*
Y02652*
G37*
G36*
X04456D02*
X04436D01*
Y02631*
X04456*
Y02652*
G37*
G36*
X04487Y02621D02*
X04466D01*
Y02601*
X04487*
Y02621*
G37*
G36*
X04456D02*
X04436D01*
Y02601*
X04456*
Y02621*
G37*
G36*
X04122Y02906D02*
X04062D01*
X04054Y02905*
X04047Y029*
X04042Y02893*
X0404Y02884*
X04042Y02876*
X04047Y02868*
X04054Y02864*
X04062Y02862*
X04122*
X0413Y02864*
X04137Y02868*
X04138Y02869*
X04159*
X04179Y02848*
Y02805*
X0418Y02799*
X04184Y02794*
X04234Y02744*
X04239Y0274*
X04245Y02739*
X04255*
X04257Y02737*
X04259Y02735*
Y0269*
X0426Y02684*
X04264Y02679*
X04268Y02675*
Y02636*
X04253*
X04245Y02635*
X04238Y0263*
X04233Y02623*
X04231Y02614*
X04233Y02606*
X04238Y02598*
X04245Y02594*
X04253Y02592*
X04312*
X04321Y02594*
X04328Y02598*
X04333Y02606*
X04335Y02614*
X04333Y02623*
X04328Y0263*
X04321Y02635*
X04312Y02636*
X04298*
Y02681*
X04297Y02687*
X04294Y02692*
X0429Y02696*
Y02735*
X04293Y02737*
X04298Y02745*
X043Y02755*
X04298Y02764*
X04293Y02773*
X04284Y02778*
X04275Y0278*
X04265Y02778*
X04257Y02773*
X04255Y02771*
X0425Y02771*
X0421Y02811*
Y02855*
X04209Y0286*
X04205Y02865*
X04176Y02895*
X04171Y02898*
X04165Y02899*
X04138*
X04137Y029*
X0413Y02905*
X04122Y02906*
G37*
G36*
X04588Y02594D02*
X04537D01*
Y02585*
X04487*
Y02593*
X04436*
Y02582*
X04325*
X04321Y02585*
X04312Y02586*
X04253*
X04245Y02585*
X04238Y0258*
X04233Y02573*
X04231Y02564*
X04233Y02556*
X04238Y02548*
X04245Y02544*
X04253Y02542*
X04312*
X04321Y02544*
X04325Y02546*
X04433*
X04436Y02542*
Y02537*
X04435Y02532*
X04325*
X04321Y02535*
X04312Y02536*
X04253*
X04245Y02535*
X04238Y0253*
X04233Y02523*
X04231Y02514*
X04233Y02506*
X04238Y02498*
X04245Y02494*
X04253Y02492*
X04312*
X04321Y02494*
X04325Y02496*
X04436*
Y02486*
X04487*
Y02494*
X04537*
Y02487*
X04588*
Y02537*
Y02542*
Y02544*
Y02594*
G37*
G36*
X04122Y02586D02*
X04097D01*
Y02569*
X04143*
X04142Y02573*
X04137Y0258*
X0413Y02585*
X04122Y02586*
G37*
G36*
X04087D02*
X04062D01*
X04054Y02585*
X04047Y0258*
X04042Y02573*
X04041Y02569*
X04087*
Y02586*
G37*
G36*
X04143Y02559D02*
X04097D01*
Y02542*
X04122*
X0413Y02544*
X04137Y02548*
X04142Y02556*
X04143Y02559*
G37*
G36*
X04087D02*
X04041D01*
X04042Y02556*
X04047Y02548*
X04054Y02544*
X04062Y02542*
X04087*
Y02559*
G37*
G36*
X04122Y02486D02*
X04097D01*
Y02469*
X04143*
X04142Y02473*
X04137Y0248*
X0413Y02485*
X04122Y02486*
G37*
G36*
X04087D02*
X04062D01*
X04054Y02485*
X04047Y0248*
X04042Y02473*
X04041Y02469*
X04087*
Y02486*
G37*
G36*
X04312D02*
X04288D01*
Y02469*
X04334*
X04333Y02473*
X04328Y0248*
X04321Y02485*
X04312Y02486*
G37*
G36*
X04278D02*
X04253D01*
X04245Y02485*
X04238Y0248*
X04233Y02473*
X04232Y02469*
X04278*
Y02486*
G37*
G36*
X03826Y02482D02*
X03801D01*
Y02465*
X03826*
Y02482*
G37*
G36*
X03791D02*
X03767D01*
Y02465*
X03791*
Y02482*
G37*
G36*
X04334Y02459D02*
X04288D01*
Y02442*
X04312*
X04321Y02444*
X04328Y02448*
X04333Y02456*
X04334Y02459*
G37*
G36*
X04278D02*
X04232D01*
X04233Y02456*
X04238Y02448*
X04245Y02444*
X04253Y02442*
X04278*
Y02459*
G37*
G36*
X04143D02*
X04097D01*
Y02442*
X04122*
X0413Y02444*
X04137Y02448*
X04142Y02456*
X04143Y02459*
G37*
G36*
X04087D02*
X04041D01*
X04042Y02456*
X04047Y02448*
X04054Y02444*
X04062Y02442*
X04087*
Y02459*
G37*
G36*
X05099Y02524D02*
X05082Y02523D01*
X05066Y02519*
X05051Y02513*
X05037Y02504*
X05024Y02494*
X05014Y02481*
X05005Y02467*
X04999Y02452*
X04995Y02436*
X04994Y0242*
X04995Y02403*
X04999Y02387*
X05005Y02372*
X05014Y02358*
X05024Y02346*
X05037Y02335*
X05051Y02326*
X05066Y0232*
X05082Y02316*
X05099Y02315*
X05115Y02316*
X05131Y0232*
X05146Y02326*
X0516Y02335*
X05173Y02346*
X05183Y02358*
X05192Y02372*
X05198Y02387*
X05202Y02403*
X05203Y0242*
X05202Y02436*
X05198Y02452*
X05192Y02467*
X05183Y02481*
X05173Y02494*
X0516Y02504*
X05146Y02513*
X05131Y02519*
X05115Y02523*
X05099Y02524*
G37*
G36*
X0306Y02285D02*
X0305Y02284D01*
X03042Y0228*
X03035Y02275*
X03031Y0227*
X0247*
X02462Y02268*
X02455Y02264*
X02393Y02202*
X02389Y02195*
X02387Y02188*
Y02185*
X02379Y02179*
X02373Y02171*
X02369Y02161*
X02367Y02151*
X02369Y0214*
X02373Y0213*
X02379Y02122*
X02387Y02116*
X02397Y02112*
X02408Y0211*
X02418Y02112*
X02428Y02116*
X02436Y02122*
X02442Y0213*
X02447Y0214*
X02448Y02151*
X02447Y02161*
X02442Y02171*
X02436Y02179*
X02434Y0218*
X02434Y02185*
X02478Y02229*
X03031*
X03035Y02225*
X03042Y02219*
X0305Y02215*
X0306Y02214*
X03069Y02215*
X03077Y02219*
X03085Y02225*
X0309Y02232*
X03094Y0224*
X03095Y0225*
X03094Y02259*
X0309Y02267*
X03085Y02275*
X03077Y0228*
X03069Y02284*
X0306Y02285*
G37*
G36*
X04513Y0219D02*
Y02156D01*
X04547*
X04547Y02161*
X04542Y02171*
X04536Y02179*
X04528Y02185*
X04518Y0219*
X04513Y0219*
G37*
G36*
X04413D02*
Y02156D01*
X04447*
X04447Y02161*
X04442Y02171*
X04436Y02179*
X04428Y02185*
X04418Y0219*
X04413Y0219*
G37*
G36*
X02313D02*
Y02156D01*
X02347*
X02347Y02161*
X02342Y02171*
X02336Y02179*
X02328Y02185*
X02318Y0219*
X02313Y0219*
G37*
G36*
X04503D02*
X04497Y0219D01*
X04487Y02185*
X04479Y02179*
X04473Y02171*
X04469Y02161*
X04468Y02156*
X04503*
Y0219*
G37*
G36*
X04403D02*
X04397Y0219D01*
X04387Y02185*
X04379Y02179*
X04373Y02171*
X04369Y02161*
X04368Y02156*
X04403*
Y0219*
G37*
G36*
X02303D02*
X02297Y0219D01*
X02287Y02185*
X02279Y02179*
X02273Y02171*
X02269Y02161*
X02268Y02156*
X02303*
Y0219*
G37*
G36*
X04547Y02146D02*
X04513D01*
Y02111*
X04518Y02112*
X04528Y02116*
X04536Y02122*
X04542Y0213*
X04547Y0214*
X04547Y02146*
G37*
G36*
X04447D02*
X04413D01*
Y02111*
X04418Y02112*
X04428Y02116*
X04436Y02122*
X04442Y0213*
X04447Y0214*
X04447Y02146*
G37*
G36*
X02347D02*
X02313D01*
Y02111*
X02318Y02112*
X02328Y02116*
X02336Y02122*
X02342Y0213*
X02347Y0214*
X02347Y02146*
G37*
G36*
X04503D02*
X04468D01*
X04469Y0214*
X04473Y0213*
X04479Y02122*
X04487Y02116*
X04497Y02112*
X04503Y02111*
Y02146*
G37*
G36*
X04403D02*
X04368D01*
X04369Y0214*
X04373Y0213*
X04379Y02122*
X04387Y02116*
X04397Y02112*
X04403Y02111*
Y02146*
G37*
G36*
X02303D02*
X02268D01*
X02269Y0214*
X02273Y0213*
X02279Y02122*
X02287Y02116*
X02297Y02112*
X02303Y02111*
Y02146*
G37*
G36*
X04308Y02191D02*
X04297Y0219D01*
X04287Y02185*
X04279Y02179*
X04273Y02171*
X04269Y02161*
X04267Y02151*
X04269Y0214*
X04273Y0213*
X04279Y02122*
X04287Y02116*
X04297Y02112*
X04308Y0211*
X04318Y02112*
X04328Y02116*
X04336Y02122*
X04342Y0213*
X04347Y0214*
X04348Y02151*
X04347Y02161*
X04342Y02171*
X04336Y02179*
X04328Y02185*
X04318Y0219*
X04308Y02191*
G37*
G36*
X04208D02*
X04197Y0219D01*
X04187Y02185*
X04179Y02179*
X04173Y02171*
X04169Y02161*
X04167Y02151*
X04169Y0214*
X04173Y0213*
X04179Y02122*
X04187Y02116*
X04197Y02112*
X04208Y0211*
X04218Y02112*
X04228Y02116*
X04236Y02122*
X04242Y0213*
X04247Y0214*
X04248Y02151*
X04247Y02161*
X04242Y02171*
X04236Y02179*
X04228Y02185*
X04218Y0219*
X04208Y02191*
G37*
G36*
X04108D02*
X04097Y0219D01*
X04087Y02185*
X04079Y02179*
X04073Y02171*
X04069Y02161*
X04067Y02151*
X04069Y0214*
X04073Y0213*
X04079Y02122*
X04087Y02116*
X04097Y02112*
X04108Y0211*
X04118Y02112*
X04128Y02116*
X04136Y02122*
X04142Y0213*
X04147Y0214*
X04148Y02151*
X04147Y02161*
X04142Y02171*
X04136Y02179*
X04128Y02185*
X04118Y0219*
X04108Y02191*
G37*
G36*
X04008D02*
X03997Y0219D01*
X03987Y02185*
X03979Y02179*
X03973Y02171*
X03969Y02161*
X03967Y02151*
X03969Y0214*
X03973Y0213*
X03979Y02122*
X03987Y02116*
X03997Y02112*
X04008Y0211*
X04018Y02112*
X04028Y02116*
X04036Y02122*
X04042Y0213*
X04047Y0214*
X04048Y02151*
X04047Y02161*
X04042Y02171*
X04036Y02179*
X04028Y02185*
X04018Y0219*
X04008Y02191*
G37*
G36*
X03908D02*
X03897Y0219D01*
X03887Y02185*
X03879Y02179*
X03873Y02171*
X03869Y02161*
X03867Y02151*
X03869Y0214*
X03873Y0213*
X03879Y02122*
X03887Y02116*
X03897Y02112*
X03908Y0211*
X03918Y02112*
X03928Y02116*
X03936Y02122*
X03942Y0213*
X03947Y0214*
X03948Y02151*
X03947Y02161*
X03942Y02171*
X03936Y02179*
X03928Y02185*
X03918Y0219*
X03908Y02191*
G37*
G36*
X03808D02*
X03797Y0219D01*
X03787Y02185*
X03779Y02179*
X03773Y02171*
X03769Y02161*
X03767Y02151*
X03769Y0214*
X03773Y0213*
X03779Y02122*
X03787Y02116*
X03797Y02112*
X03808Y0211*
X03818Y02112*
X03828Y02116*
X03836Y02122*
X03842Y0213*
X03847Y0214*
X03848Y02151*
X03847Y02161*
X03842Y02171*
X03836Y02179*
X03828Y02185*
X03818Y0219*
X03808Y02191*
G37*
G36*
X03708D02*
X03697Y0219D01*
X03687Y02185*
X03679Y02179*
X03673Y02171*
X03669Y02161*
X03667Y02151*
X03669Y0214*
X03673Y0213*
X03679Y02122*
X03687Y02116*
X03697Y02112*
X03708Y0211*
X03718Y02112*
X03728Y02116*
X03736Y02122*
X03742Y0213*
X03747Y0214*
X03748Y02151*
X03747Y02161*
X03742Y02171*
X03736Y02179*
X03728Y02185*
X03718Y0219*
X03708Y02191*
G37*
G36*
X03008D02*
X02997Y0219D01*
X02987Y02185*
X02979Y02179*
X02973Y02171*
X02969Y02161*
X02967Y02151*
X02969Y0214*
X02973Y0213*
X02979Y02122*
X02987Y02116*
X02997Y02112*
X03008Y0211*
X03018Y02112*
X03028Y02116*
X03036Y02122*
X03042Y0213*
X03047Y0214*
X03048Y02151*
X03047Y02161*
X03042Y02171*
X03036Y02179*
X03028Y02185*
X03018Y0219*
X03008Y02191*
G37*
G36*
X02908D02*
X02897Y0219D01*
X02887Y02185*
X02879Y02179*
X02873Y02171*
X02869Y02161*
X02867Y02151*
X02869Y0214*
X02873Y0213*
X02879Y02122*
X02887Y02116*
X02897Y02112*
X02908Y0211*
X02918Y02112*
X02928Y02116*
X02936Y02122*
X02942Y0213*
X02947Y0214*
X02948Y02151*
X02947Y02161*
X02942Y02171*
X02936Y02179*
X02928Y02185*
X02918Y0219*
X02908Y02191*
G37*
G36*
X02708D02*
X02697Y0219D01*
X02687Y02185*
X02679Y02179*
X02673Y02171*
X02669Y02161*
X02667Y02151*
X02669Y0214*
X02673Y0213*
X02679Y02122*
X02687Y02116*
X02697Y02112*
X02708Y0211*
X02718Y02112*
X02728Y02116*
X02736Y02122*
X02742Y0213*
X02747Y0214*
X02748Y02151*
X02747Y02161*
X02742Y02171*
X02736Y02179*
X02728Y02185*
X02718Y0219*
X02708Y02191*
G37*
G36*
X02608D02*
X02597Y0219D01*
X02587Y02185*
X02579Y02179*
X02573Y02171*
X02569Y02161*
X02567Y02151*
X02569Y0214*
X02573Y0213*
X02579Y02122*
X02587Y02116*
X02597Y02112*
X02608Y0211*
X02618Y02112*
X02628Y02116*
X02636Y02122*
X02642Y0213*
X02647Y0214*
X02648Y02151*
X02647Y02161*
X02642Y02171*
X02636Y02179*
X02628Y02185*
X02618Y0219*
X02608Y02191*
G37*
G36*
X02508D02*
X02497Y0219D01*
X02487Y02185*
X02479Y02179*
X02473Y02171*
X02469Y02161*
X02467Y02151*
X02469Y0214*
X02473Y0213*
X02479Y02122*
X02487Y02116*
X02497Y02112*
X02508Y0211*
X02518Y02112*
X02528Y02116*
X02536Y02122*
X02542Y0213*
X02547Y0214*
X02548Y02151*
X02547Y02161*
X02542Y02171*
X02536Y02179*
X02528Y02185*
X02518Y0219*
X02508Y02191*
G37*
G36*
X04513Y0209D02*
Y02056D01*
X04547*
X04547Y02061*
X04542Y02071*
X04536Y02079*
X04528Y02085*
X04518Y0209*
X04513Y0209*
G37*
G36*
X04413D02*
Y02056D01*
X04447*
X04447Y02061*
X04442Y02071*
X04436Y02079*
X04428Y02085*
X04418Y0209*
X04413Y0209*
G37*
G36*
X02348Y02091D02*
X02313D01*
Y02056*
X02348*
Y02091*
G37*
G36*
X04503Y0209D02*
X04497Y0209D01*
X04487Y02085*
X04479Y02079*
X04473Y02071*
X04469Y02061*
X04468Y02056*
X04503*
Y0209*
G37*
G36*
X04403D02*
X04397Y0209D01*
X04387Y02085*
X04379Y02079*
X04373Y02071*
X04369Y02061*
X04368Y02056*
X04403*
Y0209*
G37*
G36*
X02303Y02091D02*
X02268D01*
Y02056*
X02303*
Y02091*
G37*
G36*
X04547Y02046D02*
X04513D01*
Y02011*
X04518Y02012*
X04528Y02016*
X04536Y02022*
X04542Y0203*
X04547Y0204*
X04547Y02046*
G37*
G36*
X04447D02*
X04413D01*
Y02011*
X04418Y02012*
X04428Y02016*
X04436Y02022*
X04442Y0203*
X04447Y0204*
X04447Y02046*
G37*
G36*
X04503D02*
X04468D01*
X04469Y0204*
X04473Y0203*
X04479Y02022*
X04487Y02016*
X04497Y02012*
X04503Y02011*
Y02046*
G37*
G36*
X04403D02*
X04368D01*
X04369Y0204*
X04373Y0203*
X04379Y02022*
X04387Y02016*
X04397Y02012*
X04403Y02011*
Y02046*
G37*
G36*
X02348D02*
X02313D01*
Y02011*
X02348*
Y02046*
G37*
G36*
X02303D02*
X02268D01*
Y02011*
X02303*
Y02046*
G37*
G36*
X04308Y02091D02*
X04297Y0209D01*
X04287Y02085*
X04279Y02079*
X04273Y02071*
X04269Y02061*
X04267Y02051*
X04269Y0204*
X04273Y0203*
X04279Y02022*
X04287Y02016*
X04297Y02012*
X04308Y0201*
X04318Y02012*
X04328Y02016*
X04336Y02022*
X04342Y0203*
X04347Y0204*
X04348Y02051*
X04347Y02061*
X04342Y02071*
X04336Y02079*
X04328Y02085*
X04318Y0209*
X04308Y02091*
G37*
G36*
X04208D02*
X04197Y0209D01*
X04187Y02085*
X04179Y02079*
X04173Y02071*
X04169Y02061*
X04167Y02051*
X04169Y0204*
X04173Y0203*
X04179Y02022*
X04187Y02016*
X04197Y02012*
X04208Y0201*
X04218Y02012*
X04228Y02016*
X04236Y02022*
X04242Y0203*
X04247Y0204*
X04248Y02051*
X04247Y02061*
X04242Y02071*
X04236Y02079*
X04228Y02085*
X04218Y0209*
X04208Y02091*
G37*
G36*
X04108D02*
X04097Y0209D01*
X04087Y02085*
X04079Y02079*
X04073Y02071*
X04069Y02061*
X04067Y02051*
X04069Y0204*
X04073Y0203*
X04079Y02022*
X04087Y02016*
X04097Y02012*
X04108Y0201*
X04118Y02012*
X04128Y02016*
X04136Y02022*
X04142Y0203*
X04147Y0204*
X04148Y02051*
X04147Y02061*
X04142Y02071*
X04136Y02079*
X04128Y02085*
X04118Y0209*
X04108Y02091*
G37*
G36*
X04008D02*
X03997Y0209D01*
X03987Y02085*
X03979Y02079*
X03973Y02071*
X03969Y02061*
X03967Y02051*
X03969Y0204*
X03973Y0203*
X03979Y02022*
X03987Y02016*
X03997Y02012*
X04008Y0201*
X04018Y02012*
X04028Y02016*
X04036Y02022*
X04042Y0203*
X04047Y0204*
X04048Y02051*
X04047Y02061*
X04042Y02071*
X04036Y02079*
X04028Y02085*
X04018Y0209*
X04008Y02091*
G37*
G36*
X03908D02*
X03897Y0209D01*
X03887Y02085*
X03879Y02079*
X03873Y02071*
X03869Y02061*
X03867Y02051*
X03869Y0204*
X03873Y0203*
X03879Y02022*
X03887Y02016*
X03897Y02012*
X03908Y0201*
X03918Y02012*
X03928Y02016*
X03936Y02022*
X03942Y0203*
X03947Y0204*
X03948Y02051*
X03947Y02061*
X03942Y02071*
X03936Y02079*
X03928Y02085*
X03918Y0209*
X03908Y02091*
G37*
G36*
X03808D02*
X03797Y0209D01*
X03787Y02085*
X03779Y02079*
X03773Y02071*
X03769Y02061*
X03767Y02051*
X03769Y0204*
X03773Y0203*
X03779Y02022*
X03787Y02016*
X03797Y02012*
X03808Y0201*
X03818Y02012*
X03828Y02016*
X03836Y02022*
X03842Y0203*
X03847Y0204*
X03848Y02051*
X03847Y02061*
X03842Y02071*
X03836Y02079*
X03828Y02085*
X03818Y0209*
X03808Y02091*
G37*
G36*
X03008D02*
X02997Y0209D01*
X02987Y02085*
X02979Y02079*
X02973Y02071*
X02969Y02061*
X02967Y02051*
X02969Y0204*
X02973Y0203*
X02979Y02022*
X02987Y02016*
X02997Y02012*
X03008Y0201*
X03018Y02012*
X03028Y02016*
X03036Y02022*
X03042Y0203*
X03047Y0204*
X03048Y02051*
X03047Y02061*
X03042Y02071*
X03036Y02079*
X03028Y02085*
X03018Y0209*
X03008Y02091*
G37*
G36*
X02708D02*
X02697Y0209D01*
X02687Y02085*
X02679Y02079*
X02673Y02071*
X02669Y02061*
X02667Y02051*
X02669Y0204*
X02673Y0203*
X02679Y02022*
X02687Y02016*
X02697Y02012*
X02708Y0201*
X02718Y02012*
X02728Y02016*
X02736Y02022*
X02742Y0203*
X02747Y0204*
X02748Y02051*
X02747Y02061*
X02742Y02071*
X02736Y02079*
X02728Y02085*
X02718Y0209*
X02708Y02091*
G37*
G36*
X02608D02*
X02597Y0209D01*
X02587Y02085*
X02579Y02079*
X02573Y02071*
X02569Y02061*
X02567Y02051*
X02569Y0204*
X02573Y0203*
X02579Y02022*
X02587Y02016*
X02597Y02012*
X02608Y0201*
X02618Y02012*
X02628Y02016*
X02636Y02022*
X02642Y0203*
X02647Y0204*
X02648Y02051*
X02647Y02061*
X02642Y02071*
X02636Y02079*
X02628Y02085*
X02618Y0209*
X02608Y02091*
G37*
G36*
X02508D02*
X02497Y0209D01*
X02487Y02085*
X02479Y02079*
X02473Y02071*
X02469Y02061*
X02467Y02051*
X02469Y0204*
X02473Y0203*
X02479Y02022*
X02487Y02016*
X02497Y02012*
X02508Y0201*
X02518Y02012*
X02528Y02016*
X02536Y02022*
X02542Y0203*
X02547Y0204*
X02548Y02051*
X02547Y02061*
X02542Y02071*
X02536Y02079*
X02528Y02085*
X02518Y0209*
X02508Y02091*
G37*
G36*
X02408D02*
X02397Y0209D01*
X02387Y02085*
X02379Y02079*
X02373Y02071*
X02369Y02061*
X02367Y02051*
X02369Y0204*
X02373Y0203*
X02379Y02022*
X02387Y02016*
X02397Y02012*
X02408Y0201*
X02418Y02012*
X02428Y02016*
X02436Y02022*
X02442Y0203*
X02447Y0204*
X02448Y02051*
X02447Y02061*
X02442Y02071*
X02436Y02079*
X02428Y02085*
X02418Y0209*
X02408Y02091*
G37*
G36*
X03663Y03394D02*
X03642D01*
Y03373*
X03663*
Y03394*
G37*
G36*
X03632D02*
X03612D01*
Y03373*
X03632*
Y03394*
G37*
G36*
X03663Y03363D02*
X03642D01*
Y03342*
X03663*
Y03363*
G37*
G36*
X03632D02*
X03612D01*
Y03342*
X03632*
Y03363*
G37*
G36*
X03558Y03279D02*
X03539D01*
Y03267*
X03574*
X03574Y03269*
X0357Y03274*
X03564Y03278*
X03558Y03279*
G37*
G36*
X03529D02*
X0351D01*
X03504Y03278*
X03498Y03274*
X03495Y03269*
X03494Y03267*
X03529*
Y03279*
G37*
G36*
X03645Y03269D02*
Y0325D01*
X03664*
X03663Y03254*
X03658Y03263*
X03649Y03268*
X03645Y03269*
G37*
G36*
X03635D02*
X0363Y03268D01*
X03622Y03263*
X03616Y03254*
X03615Y0325*
X03635*
Y03269*
G37*
G36*
X03664Y0324D02*
X03645D01*
Y0322*
X03649Y03221*
X03658Y03227*
X03663Y03235*
X03664Y0324*
G37*
G36*
X03635D02*
X03615D01*
X03616Y03235*
X03622Y03227*
X0363Y03221*
X03635Y0322*
Y0324*
G37*
G36*
X03842Y02982D02*
X03822D01*
Y02961*
X03842*
Y02982*
G37*
G36*
X03812D02*
X03791D01*
Y02961*
X03812*
Y02982*
G37*
G36*
X03842Y02951D02*
X03822D01*
Y02931*
X03842*
Y02951*
G37*
G36*
X03812D02*
X03791D01*
Y02931*
X03812*
Y02951*
G37*
G36*
X03845Y02889D02*
Y0287D01*
X03864*
X03863Y02874*
X03858Y02883*
X03849Y02888*
X03845Y02889*
G37*
G36*
X03835D02*
X0383Y02888D01*
X03822Y02883*
X03816Y02874*
X03815Y0287*
X03835*
Y02889*
G37*
G36*
X03864Y0286D02*
X03845D01*
Y0284*
X03849Y02841*
X03858Y02847*
X03863Y02855*
X03864Y0286*
G37*
G36*
X03835D02*
X03815D01*
X03816Y02855*
X03822Y02847*
X0383Y02841*
X03835Y0284*
Y0286*
G37*
%LNhvcape-3*%
%LPD*%
G54D10*
X03696Y03368D03*
X03637D03*
X03758Y02956D03*
X03817D03*
X04285Y03415D03*
X04344D03*
X04285Y03045D03*
X04344D03*
X04587Y02996D03*
X04528D03*
X04562Y02568D03*
X04621D03*
X04562Y02513D03*
X04621D03*
X04552Y03678D03*
X04611D03*
X04552Y03623D03*
X04611D03*
X04523Y02821D03*
X04582D03*
X04577Y03191D03*
X04518D03*
X04582Y03361D03*
X04523D03*
G54D11*
X03534Y03262D03*
Y03237D03*
Y03211D03*
Y03185D03*
Y0316D03*
Y03134D03*
Y03109D03*
Y03083D03*
Y03057D03*
Y03032D03*
X0376Y03262D03*
Y03237D03*
Y03211D03*
Y03185D03*
Y0316D03*
Y03134D03*
Y03109D03*
Y03083D03*
Y03057D03*
Y03032D03*
G54D12*
X02535Y0289D03*
Y03065D03*
G54D13*
X04461Y02567D03*
Y02626D03*
X04456Y03251D03*
Y03192D03*
X04463Y02938D03*
Y02997D03*
X04461Y02881D03*
Y02822D03*
Y03677D03*
Y03736D03*
Y03562D03*
Y03621D03*
Y02511D03*
Y02452D03*
X04458Y03303D03*
Y03362D03*
G54D14*
X02271Y03791D03*
X02346D03*
G54D15*
X03903Y03687D03*
Y03612D03*
X03796D03*
Y0365D03*
Y03687D03*
X03903Y02562D03*
Y02487D03*
X03796D03*
Y02525D03*
Y02562D03*
G54D16*
X02505Y03363D03*
Y03313D03*
Y03263D03*
Y03213D03*
X02696Y03363D03*
Y03313D03*
Y03263D03*
Y03213D03*
X04283Y02464D03*
Y02514D03*
Y02564D03*
Y02614D03*
X04092Y02464D03*
Y02514D03*
Y02564D03*
Y02614D03*
X04283Y02834D03*
Y02884D03*
Y02934D03*
Y02984D03*
X04092Y02834D03*
Y02884D03*
Y02934D03*
Y02984D03*
Y03354D03*
Y03304D03*
Y03254D03*
Y03204D03*
X04283Y03354D03*
Y03304D03*
Y03254D03*
Y03204D03*
Y03574D03*
Y03624D03*
Y03674D03*
Y03724D03*
X04092Y03574D03*
Y03624D03*
Y03674D03*
Y03724D03*
G54D17*
X03306Y03368D03*
X03196D03*
G54D18*
X0332Y0379D03*
Y03525D03*
G54D19*
X02328Y03671D03*
Y03596D03*
G54D20*
X0269Y0298D03*
G54D21*
X0296Y0298D03*
G54D22*
X0376Y03211D02*
X03851D01*
X03705Y0354D02*
X0376D01*
X0368Y03565D02*
X03705Y0354D01*
X0368Y03565D02*
Y03625D01*
X03705Y0365*
X03796*
X03851Y03211D02*
X0392Y0328D01*
Y0338*
X0376Y0354D02*
X0392Y0338D01*
X0376Y03083D02*
X03876D01*
X0393Y0303*
Y02865D02*
Y0303D01*
Y02865D02*
X04092Y02702D01*
Y02614D02*
Y02702D01*
X0376Y03057D02*
X03832D01*
X0389Y03*
Y02825D02*
Y03D01*
Y02825D02*
X0398Y02735D01*
Y0255D02*
Y02735D01*
X03955Y02525D02*
X0398Y0255D01*
X03796Y02525D02*
X03955D01*
X0376Y03237D02*
X03827D01*
X03885Y03295*
X03765Y0349D02*
X03885Y0337D01*
Y03295D02*
Y0337D01*
X04062Y03755D02*
X04092Y03724D01*
X03735Y03755D02*
X04062D01*
X03705Y0349D02*
X03765D01*
X03655Y0354D02*
X03705Y0349D01*
X03655Y0354D02*
Y03675D01*
X03735Y03755*
X0376Y0316D02*
X0394D01*
X03984Y03204*
X04092*
X0376Y03185D02*
X0387D01*
X04039Y03354*
X04092*
X0376Y03109D02*
X03925D01*
X0397Y03065*
Y02885D02*
Y03065D01*
Y02885D02*
X0402Y02834D01*
X04092*
X0376Y03134D02*
X03945D01*
X0407Y0301*
Y0298D02*
Y0301D01*
X04461Y02822D02*
X04522D01*
X03608Y02033D02*
Y02051D01*
X0355Y01975D02*
X03608Y02033D01*
X0319Y01975D02*
X0355D01*
X0316Y02005D02*
X0319Y01975D01*
X0316Y02005D02*
Y0231D01*
X03215Y02365*
Y03255*
X03265Y03305*
X03696Y03326D02*
Y03368D01*
Y03403*
X03675Y03425D02*
X03696Y03403D01*
X03535Y03425D02*
X03675D01*
X03415Y03305D02*
X03535Y03425D01*
X03265Y03305D02*
X03415D01*
X03696Y03326D02*
X0376Y03262D01*
X03334Y03134D02*
X03534D01*
X0328Y0308D02*
X03334Y03134D01*
X0328Y02265D02*
Y0308D01*
Y02265D02*
X0336Y02185D01*
Y0212D02*
Y02185D01*
Y0212D02*
X0338Y021D01*
X03457*
X03508Y02151*
X03349Y03109D02*
X03534D01*
X033Y0306D02*
X03349Y03109D01*
X033Y02295D02*
Y0306D01*
Y02295D02*
X03408Y02187D01*
Y02151D02*
Y02187D01*
X03338Y03211D02*
X03534D01*
X033Y0325D02*
X03338Y03211D01*
X03285Y03185D02*
X03534D01*
X0324Y0314D02*
X03285Y03185D01*
X0324Y0235D02*
Y0314D01*
X03208Y02318D02*
X0324Y0235D01*
X03208Y02151D02*
Y02318D01*
X03315Y0316D02*
X03534D01*
X0326Y03105D02*
X03315Y0316D01*
X0326Y02103D02*
Y03105D01*
X03208Y02051D02*
X0326Y02103D01*
X03437Y03057D02*
X03534D01*
X03415Y03035D02*
X03437Y03057D01*
X03415Y03D02*
Y03035D01*
X03408Y03237D02*
X03534D01*
X03395Y0325D02*
X03408Y03237D01*
X03308Y02132D02*
Y02151D01*
Y02132D02*
X03355Y02085D01*
Y02025D02*
Y02085D01*
Y02025D02*
X0338Y02D01*
X0353*
X0356Y0203*
Y02075*
X03581Y02096*
X03626*
X0366Y02062*
Y01995D02*
Y02062D01*
X0362Y01955D02*
X0366Y01995D01*
X02925Y01955D02*
X0362D01*
X02855Y02025D02*
X02925Y01955D01*
X02855Y02025D02*
Y02104D01*
X02808Y02151D02*
X02855Y02104D01*
X03383Y03083D02*
X03534D01*
X03345Y03045D02*
X03383Y03083D01*
X03345Y03D02*
Y03045D01*
X03665Y0284D02*
X03795D01*
X03903Y02731*
Y02562D02*
Y02731D01*
X04283Y02614D02*
Y02681D01*
X04092Y03254D02*
X0417D01*
X04092Y02884D02*
X04165D01*
X04195Y02855*
X04214Y03724D02*
X04283D01*
X0419Y037D02*
X04214Y03724D01*
X0417Y03254D02*
X0419Y03274D01*
Y0339*
X0409Y03465D02*
X04115D01*
X0419Y0339*
X04115Y03465D02*
X0419Y0354D01*
Y037*
X04275Y0269D02*
X04283Y02681D01*
X03903Y03687D02*
X03982D01*
X03534Y03032D02*
X0376D01*
X04388Y02375D02*
X04461Y02447D01*
X03805Y02375D02*
X04388D01*
X0419Y0354D02*
X04205Y03525D01*
X04423*
X04461Y03562*
X03665Y0284D02*
Y0286D01*
X0376Y02955*
Y03032*
X04275Y0269D02*
Y02755D01*
X04195Y02805D02*
Y02855D01*
Y02805D02*
X04245Y02755D01*
X04275*
X02328Y03596D02*
X02378D01*
X0242Y03555*
X03747Y03612D02*
X03796D01*
X0373Y03595D02*
X03747Y03612D01*
X04024Y02934D02*
X04092D01*
X0401Y0292D02*
X04024Y02934D01*
X03817Y02887D02*
Y02956D01*
Y02887D02*
X0384Y02865D01*
X0383Y02415D02*
X04042D01*
X03796Y02448D02*
Y02487D01*
X04042Y02415D02*
X04092Y02464D01*
X03796Y02448D02*
X0383Y02415D01*
X02308Y03877D02*
Y03951D01*
X02728Y03638D02*
X03074D01*
X02346Y03791D02*
Y03838D01*
X0261Y0352D02*
X02728Y03638D01*
X02308Y03877D02*
X02346Y03838D01*
X03637Y03247D02*
Y03368D01*
Y03247D02*
X0364Y03245D01*
X03622Y03262D02*
X03637Y03247D01*
X03534Y03262D02*
X03622D01*
X02583Y03213D02*
X0261Y0324D01*
Y0352*
X02505Y03213D02*
X02583D01*
X02271Y03738D02*
Y03791D01*
Y03738D02*
X0229Y0372D01*
X0232*
X02328Y03711*
Y03671D02*
Y03711D01*
X05043Y02694D02*
X05045Y02692D01*
X0296Y0298D02*
X02965Y02975D01*
X0269Y0298D02*
X02696Y02986D01*
X03903Y03612D02*
X03967D01*
X03979Y03624*
X04092*
X04458Y03362D02*
X04522D01*
X04456Y03192D02*
X04517D01*
X04463Y02997D02*
X04527D01*
X04285Y03356D02*
Y03415D01*
Y02986D02*
Y03045D01*
X04283Y02984D02*
X04285Y02986D01*
X04009Y02514D02*
X04092D01*
X03982Y02487D02*
X04009Y02514D01*
X03903Y02487D02*
X03982D01*
G54D23*
X04461Y02567D02*
X04557D01*
X04283Y02564D02*
X04461D01*
X04502Y02922D02*
X0477D01*
X04486Y02938D02*
X04502Y02922D01*
X0477D02*
X04777Y0293D01*
X04795Y02921D02*
X04832Y02883D01*
X04825Y027D02*
X04912Y02612D01*
X04795Y02921D02*
Y0293D01*
X04283Y02934D02*
X04459D01*
X04777Y0293D02*
X04795D01*
X04463Y02938D02*
X04486D01*
X04995Y0226D02*
X0515D01*
X0492Y02335D02*
Y02605D01*
Y02335D02*
X04995Y0226D01*
X0519Y0214D02*
X05228Y02101D01*
X0515Y0226D02*
X0519Y0222D01*
Y0214D02*
Y0222D01*
X04825Y02849D02*
X04832Y02856D01*
X04825Y027D02*
Y02849D01*
X04832Y02856D02*
Y02883D01*
X04912Y02612D02*
D01*
X0492Y02605D01*
X04485Y02881D02*
X045Y02897D01*
X04772Y02895D02*
X04797Y0287D01*
X04461Y02881D02*
X04485D01*
X04283Y02884D02*
X04459D01*
X045Y02897D02*
X0477D01*
X04895Y02325D02*
X04985Y02235D01*
X0514*
X05128Y02101D02*
X05165Y02138D01*
X0514Y02235D02*
X05165Y0221D01*
Y02138D02*
Y0221D01*
X04797Y0287D02*
X048D01*
Y0269D02*
Y0287D01*
Y0269D02*
X04895Y02595D01*
Y02325D02*
Y02595D01*
X04621Y02568D02*
X04643Y02546D01*
X04644*
X05028Y02101D02*
Y02156D01*
X0487Y02314D02*
X05028Y02156D01*
X04644Y02546D02*
X0487Y02321D01*
Y02314D02*
Y02321D01*
X04621Y02513D02*
X04928Y02206D01*
Y02101D02*
Y02206D01*
X0471Y0323D02*
X0479D01*
X04675Y03265D02*
X0471Y0323D01*
X0479D02*
X0497Y0305D01*
X04493Y03265D02*
X04675D01*
X05075Y0297D02*
X0513Y02915D01*
X0497Y03005D02*
X05005Y0297D01*
X05075*
X0513Y02915D02*
X05195D01*
X05235Y02955*
Y02995*
X0497Y03005D02*
Y0305D01*
X05154Y03076D02*
X05235Y02995D01*
X0448Y03251D02*
X04493Y03265D01*
X04456Y03251D02*
X0448D01*
X04283Y03254D02*
X04454D01*
X04494Y0329D02*
X04675D01*
X04715Y0333*
X0481*
X04987Y03157D02*
X05015Y03185D01*
X05095Y03026D02*
Y0316D01*
Y03026D02*
X05154Y02966D01*
X05015Y03185D02*
X0507D01*
X05095Y0316*
X04812Y03332D02*
X04987Y03157D01*
X04458Y03303D02*
X04481D01*
X04494Y0329*
X04283Y03304D02*
X04456D01*
X04993Y04026D02*
X05076Y0411D01*
X05365*
X0542Y04055*
Y02879D02*
Y04055D01*
X05225Y02685D02*
X0542Y02879D01*
X04611Y03678D02*
X04619Y03685D01*
X04805*
X0503Y0391*
Y0399*
X04993Y04026D02*
X0503Y0399D01*
X0514Y02685D02*
X05225D01*
X051Y02725D02*
X0514Y02685D01*
X051Y02725D02*
Y02803D01*
X05154Y02857*
X05093Y04026D02*
X05151Y04085D01*
X05355*
X05395Y04045*
Y0289D02*
Y04045D01*
X05253Y02748D02*
X05395Y0289D01*
X04611Y03623D02*
X04619Y0363D01*
X04786*
X05047Y03892*
X05055Y03899D02*
Y03988D01*
X05047Y03892D02*
X05055Y03899D01*
Y03988D02*
X05093Y04026D01*
X05154Y02748D02*
X05253D01*
X04461Y03621D02*
X04551D01*
X04283Y03624D02*
X0446D01*
X04461Y03674D02*
X04462Y03673D01*
X04461Y03677D02*
X04552D01*
X04283Y03674D02*
X04461D01*
X04463Y02512D02*
X04557D01*
X04283Y02514D02*
X04463D01*
G54D24*
X02408Y02188D02*
X0247Y0225D01*
X02408Y02151D02*
Y02188D01*
X0247Y0225D02*
X0306D01*
X03665Y0284D02*
X0373Y02775D01*
Y0245D02*
Y02775D01*
Y0245D02*
X03805Y02375D01*
G54D25*
X03074Y03421D02*
Y03538D01*
Y03421D02*
X03126Y03368D01*
X03196*
X02738Y03738D02*
X03074D01*
X02505Y03265D02*
Y03505D01*
X02738Y03738*
X03074D02*
X03173D01*
X03225Y0379*
X0332*
Y03525D02*
X03395D01*
X03162Y03638D02*
X03275Y03525D01*
X03074Y03638D02*
X03162D01*
X0343Y0341D02*
Y0349D01*
X03395Y03525D02*
X0343Y0349D01*
X03388Y03368D02*
X0343Y0341D01*
X03275Y03525D02*
X0332D01*
X03306Y03368D02*
X03388D01*
X02535Y0273D02*
Y0287D01*
X02308Y02503D02*
X02535Y0273D01*
X02308Y02151D02*
Y02503D01*
Y02051D02*
Y02151D01*
X05043Y02591D02*
Y02694D01*
Y02591D02*
X05183D01*
X05328Y02446*
Y02101D02*
Y02446D01*
X02965Y02975D02*
X03145D01*
X02535Y03045D02*
X0268D01*
X02696Y02986D02*
Y03213D01*
Y03263*
Y03313*
Y03363*
G54D26*
X05154Y02748D03*
Y02857D03*
X05043Y03021D03*
X05154Y03294D03*
Y02966D03*
Y03076D03*
X05043Y02694D03*
Y02803D03*
Y02912D03*
Y0313D03*
X05154Y03185D03*
X05043Y03239D03*
Y03348D03*
X05154Y03403D03*
G54D27*
X05328Y02101D03*
X05228D03*
X05128D03*
X05028D03*
X04928D03*
X05293Y04026D03*
X05193D03*
X05093D03*
X04993D03*
X04893D03*
X04508Y04051D03*
X04408D03*
X04308D03*
X04208D03*
X04108D03*
X04008D03*
X03908D03*
X03808D03*
X03708D03*
X03608D03*
X03508D03*
X03408D03*
X03308D03*
X03208D03*
X03108D03*
X03008D03*
X02908D03*
X02808D03*
X02708D03*
X02608D03*
X02508D03*
X02408D03*
X02308D03*
X04508Y03951D03*
X04408D03*
X04308D03*
X04208D03*
X04108D03*
X04008D03*
X03908D03*
X03808D03*
X03708D03*
X03608D03*
X03508D03*
X03408D03*
X03308D03*
X03208D03*
X03108D03*
X03008D03*
X02908D03*
X02808D03*
X02708D03*
X02608D03*
X02508D03*
X02408D03*
Y02051D03*
X02508D03*
X02608D03*
X02708D03*
X02808D03*
X02908D03*
X03008D03*
X03108D03*
X03208D03*
X03308D03*
X03408D03*
X03508D03*
X03608D03*
X03708D03*
X03808D03*
X03908D03*
X04008D03*
X04108D03*
X04208D03*
X04308D03*
X04408D03*
X04508D03*
X02308Y02151D03*
X02408D03*
X02508D03*
X02608D03*
X02708D03*
X02808D03*
X02908D03*
X03008D03*
X03108D03*
X03208D03*
X03308D03*
X03408D03*
X03508D03*
X03608D03*
X03708D03*
X03808D03*
X03908D03*
X04008D03*
X04108D03*
X04208D03*
X04308D03*
X04408D03*
X04508D03*
G54D28*
X03074Y03738D03*
G54D29*
X03074Y03638D03*
Y03538D03*
G54D30*
X02308Y03951D03*
Y02051D03*
G54D31*
X05099Y0242D03*
Y03731D03*
G54D32*
X05043Y03457D03*
G54D33*
X04795Y0293D03*
X048Y0287D03*
X033Y0325D03*
X03415Y03D03*
X03395Y0325D03*
X03345Y03D03*
X04275Y02755D03*
X03982Y03687D03*
X0242Y03555D03*
X0373Y03595D03*
X0401Y0292D03*
X0384Y02865D03*
X0364Y03245D03*
X0479Y0323D03*
X0481Y0333D03*
G54D34*
X0306Y0225D03*
X03665Y0284D03*
X0409Y03465D03*
X03805Y02375D03*
G54D35*
X03145Y02975D03*
M02*