%FSTAX23Y23*%
%MOIN*%
%SFA1B1*%

%IPPOS*%
%ADD22C,0.010000*%
%ADD36C,0.023600*%
%ADD37C,0.009800*%
%ADD38C,0.007900*%
%LNhvcape-1*%
%LPD*%
G54D22*
X02465Y02845D02*
X0261D01*
Y0311*
X02465D02*
X0261D01*
X02465Y02845D02*
Y0311D01*
X04869Y01979D02*
X05387D01*
Y02223*
X04868D02*
X05387D01*
X04868Y0198D02*
Y02223D01*
X04834Y03904D02*
X05352D01*
Y04148*
X04833D02*
X05352D01*
X04833Y03905D02*
Y04148D01*
X0313Y03355D02*
Y03385D01*
X03115Y0337D02*
X03145D01*
X0343Y03805D02*
Y03845D01*
X0341Y03825D02*
X0345D01*
X0319Y03525D02*
X0329D01*
X0335D02*
X03455D01*
X0319D02*
Y03735D01*
X03245Y0379*
X0329*
X03455Y03525D02*
Y03745D01*
X0341Y0379D02*
X03455Y03745D01*
X0335Y0379D02*
X0341D01*
X02315Y0354D02*
X02345D01*
X0233Y03525D02*
Y03555D01*
X02476Y03432D02*
X03146D01*
Y03846*
X02476Y03432D02*
Y03846D01*
X03146*
X02258Y04107D02*
X04573D01*
Y03889D02*
Y04107D01*
X02258Y03889D02*
X04573D01*
X02258D02*
Y04026D01*
Y03976D02*
Y04107D01*
Y02076D02*
Y02207D01*
Y01989D02*
Y02126D01*
Y01989D02*
X04573D01*
Y02207*
X02258D02*
X04573D01*
X0264Y03095D02*
X0301D01*
Y02865D02*
Y03095D01*
X0264Y02865D02*
X0301D01*
X0264D02*
Y03095D01*
X02785Y0306D02*
X02825D01*
Y03D02*
Y0306D01*
Y0288D02*
Y03D01*
Y0288D02*
X0286D01*
X02815Y03005D02*
X02835D01*
Y02945D02*
Y03005D01*
X02815Y02945D02*
X02835D01*
X02815D02*
Y03005D01*
X02855Y0291D02*
Y02945D01*
X028Y03D02*
X02855Y02945D01*
X028Y03D02*
Y0304D01*
X0227Y02365D02*
Y02355D01*
X0226*
X0228*
X0227*
Y02325*
X0228Y02315*
X0231Y02355D02*
Y02315D01*
Y02335*
X0232Y02345*
X0233Y02355*
X0234*
X0237D02*
Y02325D01*
X0238Y02315*
X0241*
Y02355*
X02469D02*
X02439D01*
X02429Y02345*
Y02325*
X02439Y02315*
X02469*
X02489D02*
Y02375D01*
Y02335D02*
X02519Y02355D01*
X02489Y02335D02*
X02519Y02315D01*
X02549Y02375D02*
Y02315D01*
Y02345*
X02559Y02355*
X02579*
X02589Y02345*
Y02315*
X02619Y02355D02*
X02639D01*
X02649Y02345*
Y02315*
X02619*
X02609Y02325*
X02619Y02335*
X02649*
X02709Y02355D02*
X02679D01*
X02669Y02345*
Y02325*
X02679Y02315*
X02709*
X02729D02*
Y02375D01*
Y02335D02*
X02759Y02355D01*
X02729Y02335D02*
X02759Y02315D01*
X02789D02*
X02809D01*
X02799*
Y02355*
X02789*
X02839Y02315D02*
Y02355D01*
X02869*
X02879Y02345*
Y02315*
X02919Y02295D02*
X02929D01*
X02939Y02305*
Y02355*
X02909*
X02899Y02345*
Y02325*
X02909Y02315*
X02939*
X02959D02*
Y02325D01*
X02969*
Y02315*
X02959*
X03029Y02295D02*
X03039D01*
X03049Y02305*
Y02355*
X03019*
X03009Y02345*
Y02325*
X03019Y02315*
X03049*
X03069D02*
X03089D01*
X03079*
Y02355*
X03069*
X03129Y02365D02*
Y02355D01*
X03119*
X03139*
X03129*
Y02325*
X03139Y02315*
X03169Y02375D02*
Y02315D01*
Y02345*
X03179Y02355*
X03199*
X03209Y02345*
Y02315*
X03229Y02355D02*
Y02325D01*
X03239Y02315*
X03269*
Y02355*
X03289Y02375D02*
Y02315D01*
X03319*
X03329Y02325*
Y02335*
Y02345*
X03319Y02355*
X03289*
X03349Y02315D02*
Y02325D01*
X03359*
Y02315*
X03349*
X03399D02*
X03419D01*
X03409*
Y02355*
X03399*
X03459Y02315D02*
X03479D01*
X03489Y02325*
Y02345*
X03479Y02355*
X03459*
X03449Y02345*
Y02325*
X03459Y02315*
X0362Y03405D02*
Y03445D01*
X0364*
X03646Y03438*
Y03425*
X0364Y03418*
X0362*
X03633D02*
X03646Y03405D01*
X0366D02*
X03673D01*
X03666*
Y03445*
X0366Y03438*
X0372Y03445D02*
X03706Y03438D01*
X03693Y03425*
Y03411*
X037Y03405*
X03713*
X0372Y03411*
Y03418*
X03713Y03425*
X03693*
X03781Y02913D02*
X03775Y0292D01*
X03761*
X03755Y02913*
Y02886*
X03761Y0288*
X03775*
X03781Y02886*
X03795Y0292D02*
X03821D01*
Y02913*
X03795Y02886*
Y0288*
X02465Y0281D02*
X02491D01*
X02478*
Y0277*
X02505Y0281D02*
Y02783D01*
X02518Y0277*
X02531Y02783*
Y0281*
X02571Y02803D02*
X02565Y0281D01*
X02551*
X02545Y02803*
Y02796*
X02551Y0279*
X02565*
X02571Y02783*
Y02776*
X02565Y0277*
X02551*
X02545Y02776*
X02585Y0277D02*
X02598D01*
X02591*
Y0281*
X02585Y02803*
X0428Y0308D02*
Y0312D01*
X043*
X04306Y03113*
Y031*
X043Y03093*
X0428*
X04293D02*
X04306Y0308D01*
X04346Y0312D02*
X0432D01*
Y031*
X04333Y03106*
X0434*
X04346Y031*
Y03086*
X0434Y0308*
X04326*
X0432Y03086*
X04285Y03455D02*
Y03495D01*
X04305*
X04311Y03488*
Y03475*
X04305Y03468*
X04285*
X04298D02*
X04311Y03455D01*
X04351D02*
X04325D01*
X04351Y03481*
Y03488*
X04345Y03495*
X04331*
X04325Y03488*
X0441Y0237D02*
Y0241D01*
X0443*
X04436Y02403*
Y0239*
X0443Y02383*
X0441*
X04423D02*
X04436Y0237D01*
X0445D02*
X04463D01*
X04456*
Y0241*
X0445Y02403*
X0451Y0237D02*
X04483D01*
X0451Y02396*
Y02403*
X04503Y0241*
X0449*
X04483Y02403*
X04546Y02778D02*
X0454Y02785D01*
X04526*
X0452Y02778*
Y02751*
X04526Y02745*
X0454*
X04546Y02751*
X04586Y02785D02*
X04573Y02778D01*
X0456Y02765*
Y02751*
X04566Y02745*
X0458*
X04586Y02751*
Y02758*
X0458Y02765*
X0456*
X02425Y0366D02*
X02385D01*
Y0364*
X02391Y03633*
X02418*
X02425Y0364*
Y0366*
X02385Y0362D02*
Y03606D01*
Y03613*
X02425*
X02418Y0362*
X046Y0406D02*
Y041D01*
X0462*
X04626Y04093*
Y0408*
X0462Y04073*
X046*
X0464Y0406D02*
X04653D01*
X04646*
Y041*
X0464Y04093*
X0461Y0199D02*
Y0203D01*
X0463*
X04636Y02023*
Y0201*
X0463Y02003*
X0461*
X04676Y0199D02*
X0465D01*
X04676Y02016*
Y02023*
X0467Y0203*
X04656*
X0465Y02023*
X04155Y03145D02*
Y03111D01*
X04161Y03105*
X04175*
X04181Y03111*
Y03145*
X04215Y03105D02*
Y03145D01*
X04195Y03125*
X04221*
X04425Y033D02*
X04385D01*
Y0332*
X04391Y03326*
X04405*
X04411Y0332*
Y033*
Y03313D02*
X04425Y03326D01*
X04391Y0334D02*
X04385Y03346D01*
Y0336*
X04391Y03366*
X04398*
X04405Y0336*
Y03353*
Y0336*
X04411Y03366*
X04418*
X04425Y0336*
Y03346*
X04418Y0334*
X04546Y03058D02*
X0454Y03065D01*
X04526*
X0452Y03058*
Y03031*
X04526Y03025*
X0454*
X04546Y03031*
X04586Y03065D02*
X0456D01*
Y03045*
X04573Y03051*
X0458*
X04586Y03045*
Y03031*
X0458Y03025*
X04566*
X0456Y03031*
X0287Y035D02*
Y03473D01*
X02883Y0346*
X02896Y03473*
Y035*
X0291Y0346D02*
Y035D01*
X0293*
X02936Y03493*
Y0348*
X0293Y03473*
X0291*
X02923D02*
X02936Y0346D01*
X0295D02*
X02963D01*
X02956*
Y035*
X0295Y03493*
X0443Y0282D02*
X0439D01*
Y0284*
X04396Y02846*
X0441*
X04416Y0284*
Y0282*
Y02833D02*
X0443Y02846D01*
X0439Y0286D02*
Y02886D01*
X04396*
X04423Y0286*
X0443*
X04425Y02935D02*
X04385D01*
Y02955*
X04391Y02961*
X04405*
X04411Y02955*
Y02935*
Y02948D02*
X04425Y02961D01*
X04385Y03001D02*
X04391Y02988D01*
X04405Y02975*
X04418*
X04425Y02981*
Y02995*
X04418Y03001*
X04411*
X04405Y02995*
Y02975*
X0442Y0319D02*
X0438D01*
Y0321*
X04386Y03216*
X044*
X04406Y0321*
Y0319*
Y03203D02*
X0442Y03216D01*
Y0325D02*
X0438D01*
X044Y0323*
Y03256*
X04931Y0385D02*
X04918D01*
X04925*
Y03816*
X04918Y0381*
X04911*
X04905Y03816*
X04945Y0381D02*
X04958D01*
X04951*
Y0385*
X04945Y03843*
X02606Y03136D02*
Y03163D01*
X026Y0317*
X02586*
X0258Y03163*
Y03136*
X02586Y0313*
X026*
X02593Y03143D02*
X02606Y0313D01*
X026D02*
X02606Y03136D01*
X0262Y0313D02*
X02633D01*
X02626*
Y0317*
X0262Y03163*
X0478Y02175D02*
Y02215D01*
X048*
X04806Y02208*
Y02195*
X048Y02188*
X0478*
X0482Y02208D02*
X04826Y02215D01*
X0484*
X04846Y02208*
Y02201*
X0484Y02195*
X04833*
X0484*
X04846Y02188*
Y02181*
X0484Y02175*
X04826*
X0482Y02181*
X04735Y03915D02*
Y03955D01*
X04755*
X04761Y03948*
Y03935*
X04755Y03928*
X04735*
X04795Y03915D02*
Y03955D01*
X04775Y03935*
X04801*
X02875Y0312D02*
Y0316D01*
X02895*
X02901Y03153*
Y0314*
X02895Y03133*
X02875*
X02915Y0316D02*
X02941D01*
X02928*
Y0312*
X02981Y03153D02*
X02975Y0316D01*
X02961*
X02955Y03153*
Y03126*
X02961Y0312*
X02975*
X02981Y03126*
X02995Y0312D02*
X03008D01*
X03001*
Y0316*
X02995Y03153*
X04541D02*
X04535Y0316D01*
X04521*
X04515Y03153*
Y03126*
X04521Y0312*
X04535*
X04541Y03126*
X04575Y0312D02*
Y0316D01*
X04555Y0314*
X04581*
X0416Y03525D02*
Y03491D01*
X04166Y03485*
X0418*
X04186Y03491*
Y03525*
X042Y03485D02*
X04213D01*
X04206*
Y03525*
X042Y03518*
X03783Y02675D02*
Y02642D01*
X0379Y02635*
X03803*
X0381Y02642*
Y02675*
X0385Y02635D02*
X03823D01*
X0385Y02662*
Y02668*
X03843Y02675*
X0383*
X03823Y02668*
X03423Y03461D02*
X0343Y03455D01*
X03443*
X0345Y03461*
Y03488*
X03443Y03495*
X0343*
X03423Y03488*
X0341Y03495D02*
X03396D01*
X03403*
Y03455*
X0341Y03461*
X03181Y03271D02*
X03175Y03265D01*
Y03251*
X03181Y03245*
X03208*
X03215Y03251*
Y03265*
X03208Y03271*
X03215Y03311D02*
Y03285D01*
X03188Y03311*
X03181*
X03175Y03305*
Y03291*
X03181Y03285*
X04539Y03445D02*
X04533Y03452D01*
X04519*
X04513Y03445*
Y03418*
X04519Y03412*
X04533*
X04539Y03418*
X04553Y03445D02*
X04559Y03452D01*
X04573*
X04579Y03445*
Y03438*
X04573Y03432*
X04566*
X04573*
X04579Y03425*
Y03418*
X04573Y03412*
X04559*
X04553Y03418*
X02395Y0377D02*
Y0381D01*
X02415*
X02421Y03803*
Y0379*
X02415Y03783*
X02395*
X02408D02*
X02421Y0377D01*
X02435D02*
X02448D01*
X02441*
Y0381*
X02435Y03803*
X0443Y03485D02*
Y03525D01*
X0445*
X04456Y03518*
Y03505*
X0445Y03498*
X0443*
X04443D02*
X04456Y03485D01*
X0447Y03518D02*
X04476Y03525D01*
X0449*
X04496Y03518*
Y03511*
X0449Y03505*
X04496Y03498*
Y03491*
X0449Y03485*
X04476*
X0447Y03491*
Y03498*
X04476Y03505*
X0447Y03511*
Y03518*
X04476Y03505D02*
X0449D01*
X0455Y03545D02*
Y03585D01*
X0457*
X04576Y03578*
Y03565*
X0457Y03558*
X0455*
X04563D02*
X04576Y03545D01*
X0459Y03551D02*
X04596Y03545D01*
X0461*
X04616Y03551*
Y03578*
X0461Y03585*
X04596*
X0459Y03578*
Y03571*
X04596Y03565*
X04616*
X04535Y0372D02*
Y0376D01*
X04555*
X04561Y03753*
Y0374*
X04555Y03733*
X04535*
X04548D02*
X04561Y0372D01*
X04575D02*
X04588D01*
X04581*
Y0376*
X04575Y03753*
X04608D02*
X04615Y0376D01*
X04628*
X04635Y03753*
Y03726*
X04628Y0372*
X04615*
X04608Y03726*
Y03753*
X0442Y0377D02*
Y0381D01*
X0444*
X04446Y03803*
Y0379*
X0444Y03783*
X0442*
X04433D02*
X04446Y0377D01*
X0446D02*
X04473D01*
X04466*
Y0381*
X0446Y03803*
X04493Y0377D02*
X04506D01*
X045*
Y0381*
X04493Y03803*
X04545Y0243D02*
Y0247D01*
X04565*
X04571Y02463*
Y0245*
X04565Y02443*
X04545*
X04558D02*
X04571Y0243D01*
X04585D02*
X04598D01*
X04591*
Y0247*
X04585Y02463*
X04618D02*
X04625Y0247D01*
X04638*
X04645Y02463*
Y02456*
X04638Y0245*
X04631*
X04638*
X04645Y02443*
Y02436*
X04638Y0243*
X04625*
X04618Y02436*
X0455Y0261D02*
Y0265D01*
X0457*
X04576Y02643*
Y0263*
X0457Y02623*
X0455*
X04563D02*
X04576Y0261D01*
X0459D02*
X04603D01*
X04596*
Y0265*
X0459Y02643*
X04643Y0261D02*
Y0265D01*
X04623Y0263*
X0465*
X04415Y02665D02*
Y02705D01*
X04435*
X04441Y02698*
Y02685*
X04435Y02678*
X04415*
X04428D02*
X04441Y02665D01*
X04455D02*
X04468D01*
X04461*
Y02705*
X04455Y02698*
X04515Y02705D02*
X04488D01*
Y02685*
X04501Y02691*
X04508*
X04515Y02685*
Y02671*
X04508Y02665*
X04495*
X04488Y02671*
X04155Y02785D02*
Y02751D01*
X04161Y02745*
X04175*
X04181Y02751*
Y02785*
X04195Y02778D02*
X04201Y02785D01*
X04215*
X04221Y02778*
Y02771*
X04215Y02765*
X04208*
X04215*
X04221Y02758*
Y02751*
X04215Y02745*
X04201*
X04195Y02751*
X03615Y02995D02*
Y02961D01*
X03621Y02955*
X03635*
X03641Y02961*
Y02995*
X03681D02*
X03668Y02988D01*
X03655Y02975*
Y02961*
X03661Y02955*
X03675*
X03681Y02961*
Y02968*
X03675Y02975*
X03655*
X03825Y0379D02*
Y03756D01*
X03831Y0375*
X03845*
X03851Y03756*
Y0379*
X03865D02*
X03891D01*
Y03783*
X03865Y03756*
Y0375*
X0416Y02415D02*
Y02381D01*
X04166Y02375*
X0418*
X04186Y02381*
Y02415*
X042Y02408D02*
X04206Y02415D01*
X0422*
X04226Y02408*
Y02401*
X0422Y02395*
X04226Y02388*
Y02381*
X0422Y02375*
X04206*
X042Y02381*
Y02388*
X04206Y02395*
X042Y02401*
Y02408*
X04206Y02395D02*
X0422D01*
X04903Y03467D02*
Y03454D01*
Y0346*
X04943*
X04936Y03467*
Y02714D02*
X04943Y02707D01*
Y02694*
X04936Y02687*
X04929*
X04923Y02694*
X04916Y02687*
X04909*
X04903Y02694*
Y02707*
X04909Y02714*
X04916*
X04923Y02707*
X04929Y02714*
X04936*
X04923Y02707D02*
Y02694D01*
X05213Y02786D02*
Y02772D01*
Y02779*
X05253*
X05246Y02786*
X05253Y02726D02*
Y02752D01*
X05233*
X05239Y02739*
Y02732*
X05233Y02726*
X05219*
X05213Y02732*
Y02746*
X05219Y02752*
X05224Y03416D02*
X05218Y03409D01*
Y03396*
X05224Y03389*
X05251*
X05258Y03396*
Y03409*
X05251Y03416*
X05244*
X05238Y03409*
Y03389*
X05278Y03286D02*
Y03272D01*
Y03279*
X05318*
X05311Y03286*
X05318Y03226D02*
Y03252D01*
X05298*
X05304Y03239*
Y03232*
X05298Y03226*
X05284*
X05278Y03232*
Y03246*
X05284Y03252*
X05298Y03212D02*
Y03186D01*
X05264Y03172D02*
X05304D01*
Y03152*
X05298Y03146*
X05284*
X05278Y03152*
Y03172*
Y03132D02*
Y03119D01*
Y03126*
X05304*
Y03132*
X05278Y03099D02*
X05304D01*
Y03079*
X05298Y03072*
X05278*
X05318Y03019D02*
X05278D01*
Y02999*
X05284Y02992*
X05311*
X05318Y02999*
Y03019*
X05278Y02979D02*
Y02959D01*
X05284Y02952*
X05291Y02959*
Y02972*
X05298Y02979*
X05304Y02972*
Y02952*
Y02939D02*
X05284D01*
X05278Y02932*
Y02912*
X05304*
X05318Y02899D02*
X05278D01*
Y02879*
X05284Y02872*
X05291*
X05298*
X05304Y02879*
Y02899*
X05418Y03826D02*
Y03839D01*
X05424Y03846*
X05438*
X05444Y03839*
Y03826*
X05438Y03819*
X05431*
Y03846*
X05458Y03779D02*
X05418D01*
Y03799*
X05424Y03806*
X05438*
X05444Y03799*
Y03779*
X05404Y03752D02*
Y03746D01*
X05411Y03739*
X05444*
Y03759*
X05438Y03766*
X05424*
X05418Y03759*
Y03739*
Y03706D02*
Y03719D01*
X05424Y03726*
X05438*
X05444Y03719*
Y03706*
X05438Y03699*
X05431*
Y03726*
X05418Y02436D02*
Y02449D01*
X05424Y02456*
X05438*
X05444Y02449*
Y02436*
X05438Y02429*
X05431*
Y02456*
X05458Y02389D02*
X05418D01*
Y02409*
X05424Y02416*
X05438*
X05444Y02409*
Y02389*
X05404Y02362D02*
Y02356D01*
X05411Y02349*
X05444*
Y02369*
X05438Y02376*
X05424*
X05418Y02369*
Y02349*
Y02316D02*
Y02329D01*
X05424Y02336*
X05438*
X05444Y02329*
Y02316*
X05438Y02309*
X05431*
Y02336*
X0223Y0371D02*
X0227D01*
Y0369*
X02263Y03683*
X0225*
X02243Y0369*
Y0371*
X0223Y03663D02*
Y0365D01*
X02236Y03643*
X0225*
X02256Y0365*
Y03663*
X0225Y0367*
X02236*
X0223Y03663*
X02256Y0363D02*
X02236D01*
X0223Y03623*
X02236Y03616*
X0223Y0361*
X02236Y03603*
X02256*
X0223Y0357D02*
Y03583D01*
X02236Y0359*
X0225*
X02256Y03583*
Y0357*
X0225Y03563*
X02243*
Y0359*
X02256Y0355D02*
X0223D01*
X02243*
X0225Y03543*
X02256Y03536*
Y0353*
G54D36*
X03687Y03056D02*
D01*
X03687Y03057*
X03686Y03058*
X03686Y03059*
X03686Y0306*
X03686Y0306*
X03686Y03061*
X03685Y03062*
X03685Y03063*
X03684Y03063*
X03684Y03064*
X03683Y03065*
X03683Y03065*
X03682Y03066*
X03681Y03066*
X03681Y03067*
X0368Y03067*
X03679Y03067*
X03678Y03068*
X03678Y03068*
X03677Y03068*
X03676Y03068*
X03675Y03068*
X03674*
X03674Y03068*
X03673Y03068*
X03672Y03068*
X03671Y03068*
X0367Y03067*
X0367Y03067*
X03669Y03067*
X03668Y03066*
X03668Y03066*
X03667Y03065*
X03666Y03065*
X03666Y03064*
X03665Y03063*
X03665Y03063*
X03664Y03062*
X03664Y03061*
X03664Y0306*
X03663Y0306*
X03663Y03059*
X03663Y03058*
X03663Y03057*
X03663Y03056*
X03663Y03056*
X03663Y03055*
X03663Y03054*
X03663Y03053*
X03664Y03052*
X03664Y03052*
X03664Y03051*
X03665Y0305*
X03665Y03049*
X03666Y03049*
X03666Y03048*
X03667Y03048*
X03668Y03047*
X03668Y03047*
X03669Y03046*
X0367Y03046*
X0367Y03045*
X03671Y03045*
X03672Y03045*
X03673Y03045*
X03674Y03045*
X03674Y03045*
X03675*
X03676Y03045*
X03677Y03045*
X03678Y03045*
X03678Y03045*
X03679Y03045*
X0368Y03046*
X03681Y03046*
X03681Y03047*
X03682Y03047*
X03683Y03048*
X03683Y03048*
X03684Y03049*
X03684Y03049*
X03685Y0305*
X03685Y03051*
X03686Y03052*
X03686Y03052*
X03686Y03053*
X03686Y03054*
X03686Y03055*
X03687Y03056*
X03687Y03056*
X02613Y03345D02*
D01*
X02613Y03345*
X02613Y03346*
X02613Y03347*
X02613Y03348*
X02613Y03349*
X02612Y03349*
X02612Y0335*
X02612Y03351*
X02611Y03352*
X02611Y03352*
X0261Y03353*
X02609Y03353*
X02609Y03354*
X02608Y03354*
X02607Y03355*
X02607Y03355*
X02606Y03356*
X02605Y03356*
X02604Y03356*
X02604Y03356*
X02603Y03356*
X02602Y03356*
X02601*
X026Y03356*
X02599Y03356*
X02599Y03356*
X02598Y03356*
X02597Y03356*
X02596Y03355*
X02596Y03355*
X02595Y03354*
X02594Y03354*
X02594Y03353*
X02593Y03353*
X02592Y03352*
X02592Y03352*
X02591Y03351*
X02591Y0335*
X02591Y03349*
X0259Y03349*
X0259Y03348*
X0259Y03347*
X0259Y03346*
X0259Y03345*
X0259Y03345*
X0259Y03344*
X0259Y03343*
X0259Y03342*
X0259Y03341*
X0259Y03341*
X02591Y0334*
X02591Y03339*
X02591Y03338*
X02592Y03338*
X02592Y03337*
X02593Y03336*
X02594Y03336*
X02594Y03335*
X02595Y03335*
X02596Y03334*
X02596Y03334*
X02597Y03334*
X02598Y03333*
X02599Y03333*
X02599Y03333*
X026Y03333*
X02601Y03333*
X02602*
X02603Y03333*
X02604Y03333*
X02604Y03333*
X02605Y03333*
X02606Y03334*
X02607Y03334*
X02607Y03334*
X02608Y03335*
X02609Y03335*
X02609Y03336*
X0261Y03336*
X02611Y03337*
X02611Y03338*
X02612Y03338*
X02612Y03339*
X02612Y0334*
X02613Y03341*
X02613Y03341*
X02613Y03342*
X02613Y03343*
X02613Y03344*
X02613Y03345*
X042Y02596D02*
D01*
X042Y02597*
X042Y02598*
X042Y02599*
X042Y02599*
X04199Y026*
X04199Y02601*
X04199Y02602*
X04198Y02602*
X04198Y02603*
X04197Y02604*
X04197Y02604*
X04196Y02605*
X04196Y02605*
X04195Y02606*
X04194Y02606*
X04194Y02607*
X04193Y02607*
X04192Y02607*
X04191Y02608*
X0419Y02608*
X0419Y02608*
X04189Y02608*
X04188*
X04187Y02608*
X04186Y02608*
X04186Y02608*
X04185Y02607*
X04184Y02607*
X04183Y02607*
X04183Y02606*
X04182Y02606*
X04181Y02605*
X04181Y02605*
X0418Y02604*
X04179Y02604*
X04179Y02603*
X04178Y02602*
X04178Y02602*
X04178Y02601*
X04177Y026*
X04177Y02599*
X04177Y02599*
X04177Y02598*
X04177Y02597*
X04177Y02596*
X04177Y02595*
X04177Y02595*
X04177Y02594*
X04177Y02593*
X04177Y02592*
X04178Y02591*
X04178Y02591*
X04178Y0259*
X04179Y02589*
X04179Y02589*
X0418Y02588*
X04181Y02587*
X04181Y02587*
X04182Y02586*
X04183Y02586*
X04183Y02586*
X04184Y02585*
X04185Y02585*
X04186Y02585*
X04186Y02585*
X04187Y02584*
X04188Y02584*
X04189*
X0419Y02584*
X0419Y02585*
X04191Y02585*
X04192Y02585*
X04193Y02585*
X04194Y02586*
X04194Y02586*
X04195Y02586*
X04196Y02587*
X04196Y02587*
X04197Y02588*
X04197Y02589*
X04198Y02589*
X04198Y0259*
X04199Y02591*
X04199Y02591*
X04199Y02592*
X042Y02593*
X042Y02594*
X042Y02595*
X042Y02595*
X042Y02596*
Y02966D02*
D01*
X042Y02967*
X042Y02968*
X042Y02969*
X042Y02969*
X04199Y0297*
X04199Y02971*
X04199Y02972*
X04198Y02972*
X04198Y02973*
X04197Y02974*
X04197Y02974*
X04196Y02975*
X04196Y02975*
X04195Y02976*
X04194Y02976*
X04194Y02977*
X04193Y02977*
X04192Y02977*
X04191Y02978*
X0419Y02978*
X0419Y02978*
X04189Y02978*
X04188*
X04187Y02978*
X04186Y02978*
X04186Y02978*
X04185Y02977*
X04184Y02977*
X04183Y02977*
X04183Y02976*
X04182Y02976*
X04181Y02975*
X04181Y02975*
X0418Y02974*
X04179Y02974*
X04179Y02973*
X04178Y02972*
X04178Y02972*
X04178Y02971*
X04177Y0297*
X04177Y02969*
X04177Y02969*
X04177Y02968*
X04177Y02967*
X04177Y02966*
X04177Y02965*
X04177Y02965*
X04177Y02964*
X04177Y02963*
X04177Y02962*
X04178Y02961*
X04178Y02961*
X04178Y0296*
X04179Y02959*
X04179Y02959*
X0418Y02958*
X04181Y02957*
X04181Y02957*
X04182Y02956*
X04183Y02956*
X04183Y02956*
X04184Y02955*
X04185Y02955*
X04186Y02955*
X04186Y02955*
X04187Y02954*
X04188Y02954*
X04189*
X0419Y02954*
X0419Y02955*
X04191Y02955*
X04192Y02955*
X04193Y02955*
X04194Y02956*
X04194Y02956*
X04195Y02956*
X04196Y02957*
X04196Y02957*
X04197Y02958*
X04197Y02959*
X04198Y02959*
X04198Y0296*
X04199Y02961*
X04199Y02961*
X04199Y02962*
X042Y02963*
X042Y02964*
X042Y02965*
X042Y02965*
X042Y02966*
Y03336D02*
D01*
X042Y03337*
X042Y03338*
X042Y03339*
X042Y03339*
X04199Y0334*
X04199Y03341*
X04199Y03342*
X04198Y03342*
X04198Y03343*
X04197Y03344*
X04197Y03344*
X04196Y03345*
X04196Y03345*
X04195Y03346*
X04194Y03346*
X04194Y03347*
X04193Y03347*
X04192Y03347*
X04191Y03348*
X0419Y03348*
X0419Y03348*
X04189Y03348*
X04188*
X04187Y03348*
X04186Y03348*
X04186Y03348*
X04185Y03347*
X04184Y03347*
X04183Y03347*
X04183Y03346*
X04182Y03346*
X04181Y03345*
X04181Y03345*
X0418Y03344*
X04179Y03344*
X04179Y03343*
X04178Y03342*
X04178Y03342*
X04178Y03341*
X04177Y0334*
X04177Y03339*
X04177Y03339*
X04177Y03338*
X04177Y03337*
X04177Y03336*
X04177Y03335*
X04177Y03335*
X04177Y03334*
X04177Y03333*
X04177Y03332*
X04178Y03331*
X04178Y03331*
X04178Y0333*
X04179Y03329*
X04179Y03329*
X0418Y03328*
X04181Y03327*
X04181Y03327*
X04182Y03326*
X04183Y03326*
X04183Y03326*
X04184Y03325*
X04185Y03325*
X04186Y03325*
X04186Y03325*
X04187Y03324*
X04188Y03324*
X04189*
X0419Y03324*
X0419Y03325*
X04191Y03325*
X04192Y03325*
X04193Y03325*
X04194Y03326*
X04194Y03326*
X04195Y03326*
X04196Y03327*
X04196Y03327*
X04197Y03328*
X04197Y03329*
X04198Y03329*
X04198Y0333*
X04199Y03331*
X04199Y03331*
X04199Y03332*
X042Y03333*
X042Y03334*
X042Y03335*
X042Y03335*
X042Y03336*
Y03706D02*
D01*
X042Y03707*
X042Y03708*
X042Y03709*
X042Y03709*
X04199Y0371*
X04199Y03711*
X04199Y03712*
X04198Y03712*
X04198Y03713*
X04197Y03714*
X04197Y03714*
X04196Y03715*
X04196Y03715*
X04195Y03716*
X04194Y03716*
X04194Y03717*
X04193Y03717*
X04192Y03717*
X04191Y03718*
X0419Y03718*
X0419Y03718*
X04189Y03718*
X04188*
X04187Y03718*
X04186Y03718*
X04186Y03718*
X04185Y03717*
X04184Y03717*
X04183Y03717*
X04183Y03716*
X04182Y03716*
X04181Y03715*
X04181Y03715*
X0418Y03714*
X04179Y03714*
X04179Y03713*
X04178Y03712*
X04178Y03712*
X04178Y03711*
X04177Y0371*
X04177Y03709*
X04177Y03709*
X04177Y03708*
X04177Y03707*
X04177Y03706*
X04177Y03705*
X04177Y03705*
X04177Y03704*
X04177Y03703*
X04177Y03702*
X04178Y03701*
X04178Y03701*
X04178Y037*
X04179Y03699*
X04179Y03699*
X0418Y03698*
X04181Y03697*
X04181Y03697*
X04182Y03696*
X04183Y03696*
X04183Y03696*
X04184Y03695*
X04185Y03695*
X04186Y03695*
X04186Y03695*
X04187Y03694*
X04188Y03694*
X04189*
X0419Y03694*
X0419Y03695*
X04191Y03695*
X04192Y03695*
X04193Y03695*
X04194Y03696*
X04194Y03696*
X04195Y03696*
X04196Y03697*
X04196Y03697*
X04197Y03698*
X04197Y03699*
X04198Y03699*
X04198Y037*
X04199Y03701*
X04199Y03701*
X04199Y03702*
X042Y03703*
X042Y03704*
X042Y03705*
X042Y03705*
X042Y03706*
G54D37*
X03765Y03003D02*
D01*
X03765Y03004*
X03765Y03004*
X03765Y03004*
X03765Y03005*
X03765Y03005*
X03765Y03005*
X03765Y03006*
X03765Y03006*
X03764Y03006*
X03764Y03006*
X03764Y03007*
X03764Y03007*
X03763Y03007*
X03763Y03007*
X03763Y03007*
X03763Y03008*
X03762Y03008*
X03762Y03008*
X03762Y03008*
X03761Y03008*
X03761Y03008*
X03761Y03008*
X0376*
X0376Y03008*
X0376Y03008*
X03759Y03008*
X03759Y03008*
X03759Y03008*
X03758Y03008*
X03758Y03007*
X03758Y03007*
X03757Y03007*
X03757Y03007*
X03757Y03007*
X03757Y03006*
X03756Y03006*
X03756Y03006*
X03756Y03006*
X03756Y03005*
X03756Y03005*
X03756Y03005*
X03756Y03004*
X03756Y03004*
X03756Y03004*
X03756Y03003*
X03756Y03003*
X03756Y03003*
X03756Y03002*
X03756Y03002*
X03756Y03002*
X03756Y03001*
X03756Y03001*
X03756Y03001*
X03756Y03*
X03757Y03*
X03757Y03*
X03757Y03*
X03757Y02999*
X03758Y02999*
X03758Y02999*
X03758Y02999*
X03759Y02999*
X03759Y02999*
X03759Y02998*
X0376Y02998*
X0376Y02998*
X0376Y02998*
X03761*
X03761Y02998*
X03761Y02998*
X03762Y02998*
X03762Y02999*
X03762Y02999*
X03763Y02999*
X03763Y02999*
X03763Y02999*
X03763Y02999*
X03764Y03*
X03764Y03*
X03764Y03*
X03764Y03*
X03765Y03001*
X03765Y03001*
X03765Y03001*
X03765Y03002*
X03765Y03002*
X03765Y03002*
X03765Y03003*
X03765Y03003*
X03765Y03003*
X03801Y0372D02*
D01*
X03801Y03721*
X03801Y03721*
X03801Y03721*
X03801Y03722*
X03801Y03722*
X03801Y03722*
X03801Y03723*
X03801Y03723*
X038Y03723*
X038Y03724*
X038Y03724*
X038Y03724*
X03799Y03724*
X03799Y03724*
X03799Y03725*
X03799Y03725*
X03798Y03725*
X03798Y03725*
X03798Y03725*
X03797Y03725*
X03797Y03725*
X03797Y03725*
X03796*
X03796Y03725*
X03796Y03725*
X03795Y03725*
X03795Y03725*
X03795Y03725*
X03794Y03725*
X03794Y03725*
X03794Y03724*
X03793Y03724*
X03793Y03724*
X03793Y03724*
X03793Y03724*
X03792Y03723*
X03792Y03723*
X03792Y03723*
X03792Y03722*
X03792Y03722*
X03792Y03722*
X03792Y03721*
X03792Y03721*
X03792Y03721*
X03792Y0372*
X03792Y0372*
X03792Y0372*
X03792Y03719*
X03792Y03719*
X03792Y03719*
X03792Y03718*
X03792Y03718*
X03792Y03718*
X03792Y03718*
X03793Y03717*
X03793Y03717*
X03793Y03717*
X03793Y03717*
X03794Y03716*
X03794Y03716*
X03794Y03716*
X03795Y03716*
X03795Y03716*
X03795Y03716*
X03796Y03716*
X03796Y03716*
X03796Y03716*
X03797*
X03797Y03716*
X03797Y03716*
X03798Y03716*
X03798Y03716*
X03798Y03716*
X03799Y03716*
X03799Y03716*
X03799Y03716*
X03799Y03717*
X038Y03717*
X038Y03717*
X038Y03717*
X038Y03718*
X03801Y03718*
X03801Y03718*
X03801Y03718*
X03801Y03719*
X03801Y03719*
X03801Y03719*
X03801Y0372*
X03801Y0372*
X03801Y0372*
X0251Y03396D02*
D01*
X0251Y03396*
X0251Y03397*
X0251Y03397*
X0251Y03397*
X0251Y03398*
X02509Y03398*
X02509Y03398*
X02509Y03399*
X02509Y03399*
X02509Y03399*
X02509Y03399*
X02508Y034*
X02508Y034*
X02508Y034*
X02507Y034*
X02507Y034*
X02507Y03401*
X02507Y03401*
X02506Y03401*
X02506Y03401*
X02506Y03401*
X02505Y03401*
X02505*
X02504Y03401*
X02504Y03401*
X02504Y03401*
X02503Y03401*
X02503Y03401*
X02503Y034*
X02503Y034*
X02502Y034*
X02502Y034*
X02502Y034*
X02501Y03399*
X02501Y03399*
X02501Y03399*
X02501Y03399*
X02501Y03398*
X02501Y03398*
X025Y03398*
X025Y03397*
X025Y03397*
X025Y03397*
X025Y03396*
X025Y03396*
X025Y03396*
X025Y03395*
X025Y03395*
X025Y03395*
X025Y03394*
X02501Y03394*
X02501Y03394*
X02501Y03393*
X02501Y03393*
X02501Y03393*
X02501Y03393*
X02502Y03392*
X02502Y03392*
X02502Y03392*
X02503Y03392*
X02503Y03392*
X02503Y03391*
X02503Y03391*
X02504Y03391*
X02504Y03391*
X02504Y03391*
X02505Y03391*
X02505*
X02506Y03391*
X02506Y03391*
X02506Y03391*
X02507Y03391*
X02507Y03391*
X02507Y03392*
X02507Y03392*
X02508Y03392*
X02508Y03392*
X02508Y03392*
X02509Y03393*
X02509Y03393*
X02509Y03393*
X02509Y03393*
X02509Y03394*
X02509Y03394*
X0251Y03394*
X0251Y03395*
X0251Y03395*
X0251Y03395*
X0251Y03396*
X0251Y03396*
X04097Y02648D02*
D01*
X04097Y02648*
X04097Y02648*
X04097Y02649*
X04097Y02649*
X04097Y02649*
X04096Y02649*
X04096Y0265*
X04096Y0265*
X04096Y0265*
X04096Y02651*
X04096Y02651*
X04095Y02651*
X04095Y02651*
X04095Y02652*
X04094Y02652*
X04094Y02652*
X04094Y02652*
X04094Y02652*
X04093Y02652*
X04093Y02652*
X04093Y02652*
X04092Y02652*
X04092*
X04091Y02652*
X04091Y02652*
X04091Y02652*
X0409Y02652*
X0409Y02652*
X0409Y02652*
X0409Y02652*
X04089Y02652*
X04089Y02651*
X04089Y02651*
X04088Y02651*
X04088Y02651*
X04088Y0265*
X04088Y0265*
X04088Y0265*
X04088Y02649*
X04087Y02649*
X04087Y02649*
X04087Y02649*
X04087Y02648*
X04087Y02648*
X04087Y02648*
X04087Y02647*
X04087Y02647*
X04087Y02646*
X04087Y02646*
X04087Y02646*
X04088Y02646*
X04088Y02645*
X04088Y02645*
X04088Y02645*
X04088Y02644*
X04088Y02644*
X04089Y02644*
X04089Y02644*
X04089Y02643*
X0409Y02643*
X0409Y02643*
X0409Y02643*
X0409Y02643*
X04091Y02643*
X04091Y02643*
X04091Y02643*
X04092Y02643*
X04092*
X04093Y02643*
X04093Y02643*
X04093Y02643*
X04094Y02643*
X04094Y02643*
X04094Y02643*
X04094Y02643*
X04095Y02643*
X04095Y02644*
X04095Y02644*
X04096Y02644*
X04096Y02644*
X04096Y02645*
X04096Y02645*
X04096Y02645*
X04096Y02646*
X04097Y02646*
X04097Y02646*
X04097Y02646*
X04097Y02647*
X04097Y02647*
X04097Y02648*
Y03018D02*
D01*
X04097Y03018*
X04097Y03018*
X04097Y03019*
X04097Y03019*
X04097Y03019*
X04096Y03019*
X04096Y0302*
X04096Y0302*
X04096Y0302*
X04096Y03021*
X04096Y03021*
X04095Y03021*
X04095Y03021*
X04095Y03022*
X04094Y03022*
X04094Y03022*
X04094Y03022*
X04094Y03022*
X04093Y03022*
X04093Y03022*
X04093Y03022*
X04092Y03022*
X04092*
X04091Y03022*
X04091Y03022*
X04091Y03022*
X0409Y03022*
X0409Y03022*
X0409Y03022*
X0409Y03022*
X04089Y03022*
X04089Y03021*
X04089Y03021*
X04088Y03021*
X04088Y03021*
X04088Y0302*
X04088Y0302*
X04088Y0302*
X04088Y03019*
X04087Y03019*
X04087Y03019*
X04087Y03019*
X04087Y03018*
X04087Y03018*
X04087Y03018*
X04087Y03017*
X04087Y03017*
X04087Y03016*
X04087Y03016*
X04087Y03016*
X04088Y03016*
X04088Y03015*
X04088Y03015*
X04088Y03015*
X04088Y03014*
X04088Y03014*
X04089Y03014*
X04089Y03014*
X04089Y03013*
X0409Y03013*
X0409Y03013*
X0409Y03013*
X0409Y03013*
X04091Y03013*
X04091Y03013*
X04091Y03013*
X04092Y03013*
X04092*
X04093Y03013*
X04093Y03013*
X04093Y03013*
X04094Y03013*
X04094Y03013*
X04094Y03013*
X04094Y03013*
X04095Y03013*
X04095Y03014*
X04095Y03014*
X04096Y03014*
X04096Y03014*
X04096Y03015*
X04096Y03015*
X04096Y03015*
X04096Y03016*
X04097Y03016*
X04097Y03016*
X04097Y03016*
X04097Y03017*
X04097Y03017*
X04097Y03018*
Y03388D02*
D01*
X04097Y03388*
X04097Y03388*
X04097Y03389*
X04097Y03389*
X04097Y03389*
X04096Y03389*
X04096Y0339*
X04096Y0339*
X04096Y0339*
X04096Y03391*
X04096Y03391*
X04095Y03391*
X04095Y03391*
X04095Y03392*
X04094Y03392*
X04094Y03392*
X04094Y03392*
X04094Y03392*
X04093Y03392*
X04093Y03392*
X04093Y03392*
X04092Y03392*
X04092*
X04091Y03392*
X04091Y03392*
X04091Y03392*
X0409Y03392*
X0409Y03392*
X0409Y03392*
X0409Y03392*
X04089Y03392*
X04089Y03391*
X04089Y03391*
X04088Y03391*
X04088Y03391*
X04088Y0339*
X04088Y0339*
X04088Y0339*
X04088Y03389*
X04087Y03389*
X04087Y03389*
X04087Y03389*
X04087Y03388*
X04087Y03388*
X04087Y03388*
X04087Y03387*
X04087Y03387*
X04087Y03386*
X04087Y03386*
X04087Y03386*
X04088Y03386*
X04088Y03385*
X04088Y03385*
X04088Y03385*
X04088Y03384*
X04088Y03384*
X04089Y03384*
X04089Y03384*
X04089Y03383*
X0409Y03383*
X0409Y03383*
X0409Y03383*
X0409Y03383*
X04091Y03383*
X04091Y03383*
X04091Y03383*
X04092Y03383*
X04092*
X04093Y03383*
X04093Y03383*
X04093Y03383*
X04094Y03383*
X04094Y03383*
X04094Y03383*
X04094Y03383*
X04095Y03383*
X04095Y03384*
X04095Y03384*
X04096Y03384*
X04096Y03384*
X04096Y03385*
X04096Y03385*
X04096Y03385*
X04096Y03386*
X04097Y03386*
X04097Y03386*
X04097Y03386*
X04097Y03387*
X04097Y03387*
X04097Y03388*
X03801Y02595D02*
D01*
X03801Y02596*
X03801Y02596*
X03801Y02596*
X03801Y02597*
X03801Y02597*
X03801Y02597*
X03801Y02598*
X03801Y02598*
X038Y02598*
X038Y02599*
X038Y02599*
X038Y02599*
X03799Y02599*
X03799Y02599*
X03799Y026*
X03799Y026*
X03798Y026*
X03798Y026*
X03798Y026*
X03797Y026*
X03797Y026*
X03797Y026*
X03796*
X03796Y026*
X03796Y026*
X03795Y026*
X03795Y026*
X03795Y026*
X03794Y026*
X03794Y026*
X03794Y02599*
X03793Y02599*
X03793Y02599*
X03793Y02599*
X03793Y02599*
X03792Y02598*
X03792Y02598*
X03792Y02598*
X03792Y02597*
X03792Y02597*
X03792Y02597*
X03792Y02596*
X03792Y02596*
X03792Y02596*
X03792Y02595*
X03792Y02595*
X03792Y02595*
X03792Y02594*
X03792Y02594*
X03792Y02594*
X03792Y02593*
X03792Y02593*
X03792Y02593*
X03792Y02593*
X03793Y02592*
X03793Y02592*
X03793Y02592*
X03793Y02592*
X03794Y02591*
X03794Y02591*
X03794Y02591*
X03795Y02591*
X03795Y02591*
X03795Y02591*
X03796Y02591*
X03796Y02591*
X03796Y02591*
X03797*
X03797Y02591*
X03797Y02591*
X03798Y02591*
X03798Y02591*
X03798Y02591*
X03799Y02591*
X03799Y02591*
X03799Y02591*
X03799Y02592*
X038Y02592*
X038Y02592*
X038Y02592*
X038Y02593*
X03801Y02593*
X03801Y02593*
X03801Y02593*
X03801Y02594*
X03801Y02594*
X03801Y02594*
X03801Y02595*
X03801Y02595*
X03801Y02595*
X04097Y03758D02*
D01*
X04097Y03758*
X04097Y03758*
X04097Y03759*
X04097Y03759*
X04097Y03759*
X04096Y03759*
X04096Y0376*
X04096Y0376*
X04096Y0376*
X04096Y03761*
X04096Y03761*
X04095Y03761*
X04095Y03761*
X04095Y03762*
X04094Y03762*
X04094Y03762*
X04094Y03762*
X04094Y03762*
X04093Y03762*
X04093Y03762*
X04093Y03762*
X04092Y03762*
X04092*
X04091Y03762*
X04091Y03762*
X04091Y03762*
X0409Y03762*
X0409Y03762*
X0409Y03762*
X0409Y03762*
X04089Y03762*
X04089Y03761*
X04089Y03761*
X04088Y03761*
X04088Y03761*
X04088Y0376*
X04088Y0376*
X04088Y0376*
X04088Y03759*
X04087Y03759*
X04087Y03759*
X04087Y03759*
X04087Y03758*
X04087Y03758*
X04087Y03758*
X04087Y03757*
X04087Y03757*
X04087Y03756*
X04087Y03756*
X04087Y03756*
X04088Y03756*
X04088Y03755*
X04088Y03755*
X04088Y03755*
X04088Y03754*
X04088Y03754*
X04089Y03754*
X04089Y03754*
X04089Y03753*
X0409Y03753*
X0409Y03753*
X0409Y03753*
X0409Y03753*
X04091Y03753*
X04091Y03753*
X04091Y03753*
X04092Y03753*
X04092*
X04093Y03753*
X04093Y03753*
X04093Y03753*
X04094Y03753*
X04094Y03753*
X04094Y03753*
X04094Y03753*
X04095Y03753*
X04095Y03754*
X04095Y03754*
X04096Y03754*
X04096Y03754*
X04096Y03755*
X04096Y03755*
X04096Y03755*
X04096Y03756*
X04097Y03756*
X04097Y03756*
X04097Y03756*
X04097Y03757*
X04097Y03757*
X04097Y03758*
G54D38*
X0358Y03277D02*
X03714D01*
X0358Y03017D02*
X03714D01*
X0358D02*
Y03277D01*
X03714Y03017D02*
Y03277D01*
X03867Y0359D02*
Y03709D01*
X03832Y0359D02*
Y03709D01*
Y0359D02*
X03867D01*
X03832Y03709D02*
X03867D01*
X02562Y03191D02*
Y03384D01*
X02639Y03191D02*
Y03384D01*
X02562D02*
X02639D01*
X02562Y03191D02*
X02639D01*
X04149Y02443D02*
X04226D01*
X04149Y02636D02*
X04226D01*
Y02443D02*
Y02636D01*
X04149Y02443D02*
Y02636D01*
Y02813D02*
X04226D01*
X04149Y03006D02*
X04226D01*
Y02813D02*
Y03006D01*
X04149Y02813D02*
Y03006D01*
Y03183D02*
Y03376D01*
X04226Y03183D02*
Y03376D01*
X04149D02*
X04226D01*
X04149Y03183D02*
X04226D01*
X0498Y02288D02*
X05473D01*
X0498Y03863D02*
X05473D01*
X0498Y02288D02*
Y03863D01*
Y02637D02*
X05354D01*
X05473Y02288D02*
Y03863D01*
X0498Y03514D02*
X05354D01*
Y02288D02*
Y03863D01*
X03867Y02465D02*
Y02584D01*
X03832Y02465D02*
Y02584D01*
Y02465D02*
X03867D01*
X03832Y02584D02*
X03867D01*
X04149Y03553D02*
X04226D01*
X04149Y03746D02*
X04226D01*
Y03553D02*
Y03746D01*
X04149Y03553D02*
Y03746D01*
M02*