%FSTAX23Y23*%
%MOIN*%
%SFA1B1*%

%IPPOS*%
%ADD22C,0.010000*%
%ADD24C,0.020000*%
%ADD39R,0.039500X0.039500*%
%ADD40O,0.069000X0.021800*%
%ADD41R,0.088000X0.073000*%
%ADD42R,0.039500X0.039500*%
%ADD43R,0.059200X0.067100*%
%ADD44R,0.047400X0.031600*%
%ADD45O,0.090700X0.031600*%
%ADD46R,0.071000X0.078900*%
%ADD47R,0.048000X0.128000*%
%ADD48R,0.067100X0.059200*%
%ADD49R,0.086700X0.216700*%
%ADD50R,0.087000X0.217000*%
%ADD51C,0.074500*%
%ADD52C,0.068000*%
%ADD53R,0.071000X0.071000*%
%ADD54C,0.071000*%
%ADD55R,0.068000X0.068000*%
%ADD56C,0.197000*%
%ADD57R,0.074500X0.074500*%
%ADD58C,0.038000*%
%ADD59C,0.058000*%
%ADD60C,0.073000*%
%LNhvcape-1*%
%LPD*%
G36*
X02632Y02722D02*
X02634Y02722D01*
X02637Y02722*
X0264Y02721*
X02644Y0272*
X02647Y0272*
X02648*
X02648Y02719*
X02648*
X02649Y02719*
X0265Y02719*
X02651Y02719*
X02654Y02718*
X02657Y02717*
X02661Y02715*
X02665Y02713*
X0267Y02711*
Y0269*
X02666*
X02666Y0269*
X02666Y0269*
X02665Y02691*
X02664Y02691*
X02662Y02693*
X0266Y02695*
X02657Y02697*
X02654Y02698*
X0265Y027*
X02647Y02702*
X02647*
X02646Y02702*
X02646Y02702*
X02645Y02702*
X02643Y02703*
X02641Y02704*
X02638Y02704*
X02635Y02705*
X02631Y02705*
X02627Y02705*
X02625*
X02624Y02705*
X02622Y02705*
X0262Y02705*
X02617Y02704*
X02614Y02704*
X02612Y02703*
X02611Y02702*
X0261Y02702*
X02609Y02702*
X02608Y02701*
X02606Y02699*
X02604Y02698*
X02601Y02696*
X02599Y02694*
X02599Y02694*
X02598Y02693*
X02598Y02692*
X02596Y0269*
X02595Y02688*
X02594Y02686*
X02593Y02683*
X02591Y0268*
Y0268*
X02591Y02679*
Y02679*
X02591Y02678*
X0259Y02676*
X0259Y02674*
X02589Y02671*
X02589Y02667*
X02589Y02664*
X02588Y0266*
Y02659*
Y02659*
Y02658*
Y02657*
X02589Y02656*
Y02655*
X02589Y02652*
X02589Y02649*
X0259Y02646*
X02591Y02642*
X02592Y02639*
X02592Y02638*
X02592Y02637*
X02593Y02636*
X02594Y02634*
X02595Y02632*
X02597Y02629*
X02598Y02627*
X026Y02625*
X026Y02625*
X02601Y02624*
X02602Y02623*
X02603Y02622*
X02605Y0262*
X02607Y02619*
X0261Y02618*
X02612Y02617*
X02613Y02616*
X02613Y02616*
X02615Y02616*
X02617Y02615*
X02619Y02615*
X02621Y02614*
X02624Y02614*
X02627Y02614*
X02629*
X02631Y02614*
X02634Y02615*
X02637Y02615*
X0264Y02615*
X02644Y02616*
X02648Y02618*
X02648*
X02648Y02618*
X02648Y02618*
X02649Y02618*
X02651Y02619*
X02653Y0262*
X02656Y02622*
X02659Y02624*
X02663Y02627*
X02666Y02629*
X0267*
Y02608*
X02669Y02608*
X02669Y02608*
X02668Y02608*
X02666Y02607*
X02663Y02606*
X02662Y02605*
X0266Y02604*
X0266*
X0266Y02604*
X02659Y02604*
X02658Y02603*
X02657Y02603*
X02655Y02602*
X02653Y02602*
X02651Y02601*
X02651*
X0265Y02601*
X02649Y026*
X02648Y026*
X02646Y026*
X02645Y02599*
X02643Y02599*
X0264Y02598*
X0264*
X0264Y02598*
X02638Y02598*
X02637Y02598*
X02635Y02598*
X02633Y02598*
X0263Y02597*
X02626*
X02625Y02598*
X02623*
X0262Y02598*
X02616Y02598*
X02612Y02599*
X02608Y026*
X02604Y02601*
X02604*
X02603Y02601*
X02603Y02601*
X02602Y02602*
X026Y02603*
X02598Y02604*
X02595Y02605*
X02592Y02607*
X02588Y0261*
X02585Y02613*
X02585Y02613*
X02584Y02614*
X02583Y02616*
X02581Y02618*
X02579Y02621*
X02577Y02624*
X02575Y02628*
X02573Y02632*
Y02632*
X02573Y02633*
X02573Y02633*
X02572Y02634*
X02572Y02635*
X02572Y02637*
X02571Y02638*
X02571Y0264*
X0257Y02644*
X0257Y02649*
X02569Y02654*
X02569Y0266*
Y0266*
Y0266*
Y02661*
Y02662*
X02569Y02663*
Y02665*
X02569Y02667*
X02569Y02668*
X0257Y02672*
X02571Y02677*
X02572Y02682*
X02573Y02686*
Y02686*
X02573Y02687*
X02573Y02687*
X02574Y02688*
X02575Y0269*
X02576Y02693*
X02578Y02696*
X0258Y02699*
X02582Y02703*
X02585Y02706*
X02585Y02706*
X02586Y02706*
X02587Y02707*
X02588Y02709*
X0259Y0271*
X02593Y02712*
X02596Y02714*
X026Y02716*
X02604Y02718*
X02604*
X02604Y02718*
X02605Y02718*
X02606Y02719*
X02607Y02719*
X02608Y02719*
X02611Y0272*
X02615Y02721*
X02619Y02721*
X02623Y02722*
X02628Y02722*
X0263*
X02632Y02722*
G37*
G36*
X02913Y026D02*
X02891D01*
X02838Y02705*
Y026*
X0282*
Y0272*
X02847*
X02895Y02624*
Y0272*
X02913*
Y026*
G37*
G36*
X03113Y02648D02*
X03131D01*
Y02632*
X03113*
Y026*
X03095*
Y02632*
X03039*
Y02653*
X03096Y0272*
X03113*
Y02648*
G37*
G36*
X02981Y02722D02*
X02983D01*
X02985Y02722*
X02987Y02722*
X02989Y02721*
X02993Y0272*
X02998Y02719*
X03001Y02717*
X03003Y02716*
X03005Y02715*
X03008Y02713*
X03008Y02713*
X03008Y02713*
X03008Y02712*
X03009Y02712*
X0301Y02711*
X03011Y02709*
X03012Y02708*
X03013Y02707*
X03015Y02703*
X03017Y02699*
X03017Y02697*
X03018Y02694*
X03018Y02691*
X03018Y02689*
Y02688*
Y02687*
Y02686*
X03018Y02684*
X03018Y02682*
X03018Y0268*
X03016Y02676*
Y02675*
X03016Y02675*
X03016Y02673*
X03015Y02672*
X03014Y0267*
X03013Y02668*
X03011Y02664*
X03011Y02664*
X03011Y02663*
X0301Y02662*
X03009Y02661*
X03008Y0266*
X03007Y02658*
X03004Y02655*
X03004Y02654*
X03003Y02654*
X03002Y02653*
X03001Y02651*
X03Y0265*
X02998Y02648*
X02996Y02646*
X02994Y02644*
X02993Y02643*
X02992Y02642*
X02991Y02641*
X02988Y02639*
X02986Y02636*
X02983Y02633*
X0298Y02631*
X02976Y02628*
X02976*
X02976Y02627*
X02975Y02626*
X02973Y02625*
X02971Y02623*
X02968Y02621*
X02966Y0262*
X02963Y02618*
X0296Y02616*
X03023*
Y026*
X02941*
Y02618*
X02941Y02618*
X02941Y02619*
X02942Y0262*
X02944Y02621*
X02946Y02623*
X02949Y02625*
X02952Y02628*
X02958Y02633*
X02958*
X02958Y02633*
X02959Y02634*
X02961Y02635*
X02963Y02637*
X02965Y02639*
X02968Y02642*
X02973Y02647*
X02973Y02647*
X02974Y02647*
X02975Y02648*
X02976Y02649*
X02977Y0265*
X02978Y02652*
X02981Y02655*
X02985Y02659*
X02988Y02663*
X02991Y02666*
X02992Y02668*
X02993Y0267*
Y0267*
X02994Y0267*
X02994Y02671*
X02995Y02673*
X02996Y02675*
X02997Y02678*
X02998Y02681*
X02999Y02684*
X02999Y02688*
Y02688*
Y02688*
Y02689*
X02999Y02691*
X02998Y02693*
X02998Y02695*
X02997Y02697*
X02995Y02699*
X02993Y02701*
X02993Y02701*
X02992Y02702*
X02991Y02702*
X02989Y02703*
X02987Y02704*
X02985Y02705*
X02981Y02706*
X02978Y02706*
X02977*
X02975Y02706*
X02973Y02705*
X02971Y02705*
X02968Y02705*
X02966Y02704*
X02963Y02703*
X02962Y02703*
X02961Y02703*
X0296Y02702*
X02958Y02701*
X02955Y027*
X02953Y02699*
X0295Y02697*
X02947Y02695*
X02944*
Y02714*
X02944Y02715*
X02945Y02715*
X02946Y02716*
X02948Y02716*
X0295Y02717*
X02953Y02718*
X02956Y02719*
X0296Y0272*
X0296*
X0296Y0272*
X02961*
X02961Y0272*
X02963Y02721*
X02966Y02721*
X02968Y02722*
X02971Y02722*
X02975Y02722*
X02978Y02722*
X0298*
X02981Y02722*
G37*
G36*
X02559Y02703D02*
X025D01*
Y02673*
X02551*
Y02656*
X025*
Y026*
X02481*
Y0272*
X02559*
Y02703*
G37*
G36*
X02457D02*
X02395D01*
Y02674*
X02457*
Y02657*
X02395*
Y02617*
X02457*
Y026*
X02377*
Y0272*
X02457*
Y02703*
G37*
G36*
X02287Y0272D02*
X02288D01*
X0229Y0272*
X02295Y02719*
X023Y02719*
X02304Y02718*
X02308Y02717*
X02308*
X02309Y02717*
X02309*
X0231Y02717*
X02312Y02716*
X02314Y02716*
X02317Y02715*
X0232Y02713*
X02323Y02712*
X02326Y0271*
X02326*
X02326Y0271*
X02327Y0271*
X02328Y02709*
X02329Y02708*
X0233Y02707*
X02333Y02705*
X02336Y02702*
X02339Y02698*
X02342Y02695*
X02345Y0269*
Y0269*
X02345Y02689*
X02346Y02689*
X02346Y02688*
X02347Y02686*
X02347Y02685*
X02348Y02683*
X02349Y02681*
X02349Y02679*
X0235Y02677*
X02351Y02672*
X02352Y02666*
X02352Y0266*
Y0266*
Y02659*
Y02658*
X02352Y02657*
Y02655*
X02352Y02654*
X02352Y02652*
X02351Y0265*
X0235Y02645*
X02349Y0264*
X02347Y02635*
X02345Y0263*
Y0263*
X02345Y02629*
X02344Y02629*
X02344Y02628*
X02343Y02627*
X02342Y02625*
X0234Y02622*
X02337Y02619*
X02334Y02615*
X0233Y02612*
X02326Y02609*
X02325Y02609*
X02324Y02608*
X02322Y02607*
X0232Y02606*
X02317Y02605*
X02314Y02604*
X02311Y02603*
X02307Y02602*
X02307*
X02306Y02602*
X02305Y02601*
X02304Y02601*
X02303Y02601*
X02302Y02601*
X023Y02601*
X02298Y026*
X02296Y026*
X02292Y026*
X02287Y026*
X02281Y026*
X0225*
Y0272*
X02285*
X02287Y0272*
G37*
G36*
X02743Y02722D02*
X02745D01*
X02748Y02722*
X02751Y02721*
X02755Y02721*
X02759Y02719*
X02763Y02718*
X02763*
X02764Y02718*
X02764Y02718*
X02765Y02717*
X02767Y02716*
X02769Y02715*
X02772Y02713*
X02775Y02711*
X02778Y02709*
X02781Y02706*
X02781Y02706*
X02782Y02705*
X02783Y02703*
X02785Y027*
X02787Y02697*
X02789Y02694*
X0279Y0269*
X02792Y02686*
Y02686*
X02792Y02685*
X02792Y02685*
X02793Y02684*
X02793Y02683*
X02793Y02682*
X02794Y0268*
X02794Y02678*
X02795Y02675*
X02796Y0267*
X02796Y02665*
X02796Y0266*
Y0266*
Y02659*
Y02658*
Y02657*
X02796Y02656*
Y02655*
X02796Y02653*
X02796Y02651*
X02795Y02647*
X02794Y02642*
X02793Y02638*
X02792Y02633*
Y02633*
X02792Y02633*
X02792Y02632*
X02791Y02631*
X0279Y02629*
X02789Y02626*
X02787Y02623*
X02786Y0262*
X02783Y02617*
X02781Y02614*
X0278Y02613*
X02779Y02612*
X02778Y02611*
X02776Y02609*
X02773Y02607*
X0277Y02605*
X02767Y02603*
X02763Y02601*
X02763*
X02763Y02601*
X02762Y02601*
X02761Y02601*
X0276Y026*
X02759Y026*
X02757Y02599*
X02753Y02598*
X02749Y02598*
X02745Y02597*
X0274Y02597*
X02738*
X02737Y02597*
X02735*
X02732Y02598*
X02729Y02598*
X02725Y02599*
X02721Y026*
X02717Y02601*
X02717*
X02716Y02601*
X02716Y02602*
X02715Y02602*
X02713Y02603*
X02711Y02604*
X02708Y02606*
X02705Y02608*
X02702Y02611*
X02699Y02614*
Y02614*
X02699Y02614*
X02698Y02615*
X02697Y02617*
X02695Y02619*
X02693Y02622*
X02691Y02625*
X0269Y02629*
X02688Y02633*
Y02633*
X02688Y02634*
X02687Y02634*
X02687Y02635*
X02687Y02636*
X02687Y02638*
X02686Y02639*
X02686Y02641*
X02685Y02645*
X02685Y02649*
X02684Y02654*
X02684Y0266*
Y0266*
Y0266*
Y02661*
Y02662*
X02684Y02663*
Y02665*
X02684Y02667*
X02685Y02668*
X02685Y02672*
X02685Y02677*
X02686Y02681*
X02688Y02686*
Y02686*
X02688Y02686*
X02688Y02687*
X02688Y02688*
X02689Y02689*
X02689Y0269*
X02691Y02693*
X02692Y02696*
X02694Y02699*
X02697Y02703*
X02699Y02706*
Y02706*
X027Y02706*
X027Y02707*
X02702Y02709*
X02704Y0271*
X02707Y02712*
X0271Y02714*
X02713Y02717*
X02717Y02718*
X02717*
X02717Y02718*
X02718Y02719*
X02719Y02719*
X0272Y02719*
X02721Y02719*
X02724Y0272*
X02727Y02721*
X02731Y02722*
X02735Y02722*
X0274Y02722*
X02742*
X02743Y02722*
G37*
G36*
X02414Y02527D02*
X02415D01*
X02415Y02526*
X02416*
X02417Y02526*
X02418Y02526*
X02419*
X0242Y02526*
X02421Y02526*
Y02509*
X02419*
X02418Y0251*
X02418*
X02417Y0251*
X02415Y0251*
X02413Y0251*
X02413*
X02412Y02511*
X0241*
X02409Y02511*
X02406*
X02405Y02511*
X02403Y0251*
X02401Y0251*
X024Y0251*
X02397Y02509*
X02395Y02508*
X02395Y02508*
X02394Y02508*
X02393Y02507*
X02392Y02506*
X02391Y02505*
X02389Y02504*
X02386Y02502*
Y02445*
X02369*
Y02527*
X02386*
Y02515*
X02386Y02515*
X02387Y02516*
X02388Y02517*
X02389Y02518*
X02391Y0252*
X02393Y02521*
X02395Y02523*
X02397Y02524*
X02398Y02524*
X02398Y02524*
X024Y02525*
X02401Y02525*
X02403Y02526*
X02405Y02526*
X02408Y02527*
X0241Y02527*
X02412*
X02414Y02527*
G37*
G36*
X02989Y02528D02*
X02991D01*
X02993Y02528*
X02995Y02528*
X02998Y02527*
X03Y02527*
X03001Y02526*
X03002Y02526*
X03003Y02526*
X03005Y02525*
X03007Y02524*
X03009Y02523*
X03014Y02521*
Y02504*
X03011*
X0301Y02504*
X0301Y02505*
X03008Y02506*
X03007Y02507*
X03005Y02508*
X03003Y02509*
X03Y02511*
X02998Y02512*
X02998Y02512*
X02997Y02512*
X02996Y02512*
X02994Y02513*
X02992Y02513*
X0299Y02514*
X02988Y02514*
X02986Y02514*
X02985*
X02984Y02514*
X02982Y02514*
X0298Y02513*
X02977Y02512*
X02974Y02511*
X02972Y02509*
X0297Y02508*
X02969Y02507*
X02969Y02507*
X02969Y02506*
X02968Y02506*
X02968Y02505*
X02967Y02504*
X02966Y02502*
X02965Y02499*
X02964Y02495*
X02964Y02491*
X02963Y02486*
Y02485*
Y02485*
Y02484*
X02963Y02483*
Y02482*
X02964Y02481*
X02964Y02478*
X02965Y02474*
X02966Y02471*
X02967Y02467*
X02969Y02464*
X0297Y02464*
X0297Y02463*
X02972Y02462*
X02974Y02461*
X02976Y0246*
X02979Y02458*
X02982Y02458*
X02984Y02457*
X02986Y02457*
X02988*
X02989Y02457*
X0299*
X02991Y02458*
X02994Y02458*
X02994*
X02995Y02458*
X02995Y02459*
X02996Y02459*
X02999Y0246*
X03001Y02461*
X03001*
X03002Y02461*
X03002Y02461*
X03003Y02462*
X03004Y02463*
X03006Y02464*
X03006*
X03007Y02464*
X03008Y02465*
X03009Y02466*
X03011Y02467*
X03014*
Y0245*
X03013*
X03013Y0245*
X03012Y02449*
X03011Y02449*
X03009Y02448*
X03007Y02447*
X03004Y02446*
X03002Y02445*
X03Y02445*
X02999*
X02999Y02444*
X02997Y02444*
X02996Y02444*
X02994Y02443*
X02992Y02443*
X02989Y02443*
X02987Y02443*
X02985*
X02983Y02443*
X02981Y02443*
X02979Y02443*
X02976Y02444*
X02973Y02444*
X0297Y02445*
X0297Y02445*
X02969Y02446*
X02968Y02446*
X02966Y02447*
X02964Y02448*
X02962Y0245*
X0296Y02451*
X02958Y02453*
X02957Y02454*
X02957Y02454*
X02956Y02455*
X02955Y02457*
X02953Y02459*
X02952Y02461*
X0295Y02464*
X02949Y02467*
Y02467*
X02949Y02467*
X02949Y02467*
X02949Y02468*
X02948Y0247*
X02948Y02472*
X02947Y02475*
X02947Y02478*
X02947Y02482*
X02946Y02486*
Y02486*
Y02486*
Y02487*
X02947Y02489*
X02947Y02491*
X02947Y02492*
X02947Y02495*
X02948Y02497*
X02949Y02502*
X0295Y02505*
X02951Y02507*
X02952Y0251*
X02954Y02512*
X02955Y02515*
X02957Y02517*
X02958Y02517*
X02958Y02517*
X02959Y02518*
X02959Y02519*
X02961Y0252*
X02962Y02521*
X02963Y02522*
X02965Y02523*
X02967Y02524*
X02969Y02525*
X02972Y02526*
X02974Y02527*
X02977Y02528*
X0298Y02528*
X02983Y02528*
X02987Y02529*
X02988*
X02989Y02528*
G37*
G36*
X02563D02*
X02565D01*
X02567Y02528*
X0257Y02528*
X02572Y02527*
X02575Y02527*
X02575Y02526*
X02576Y02526*
X02577Y02526*
X02579Y02525*
X02581Y02524*
X02583Y02523*
X02588Y02521*
Y02504*
X02585*
X02585Y02504*
X02584Y02505*
X02583Y02506*
X02581Y02507*
X02579Y02508*
X02577Y02509*
X02575Y02511*
X02572Y02512*
X02572Y02512*
X02571Y02512*
X0257Y02512*
X02569Y02513*
X02567Y02513*
X02565Y02514*
X02563Y02514*
X0256Y02514*
X02559*
X02559Y02514*
X02557Y02514*
X02554Y02513*
X02552Y02512*
X02549Y02511*
X02546Y02509*
X02545Y02508*
X02544Y02507*
X02543Y02507*
X02543Y02506*
X02543Y02506*
X02542Y02505*
X02542Y02504*
X02541Y02502*
X02539Y02499*
X02539Y02495*
X02538Y02491*
X02538Y02486*
Y02485*
Y02485*
Y02484*
X02538Y02483*
Y02482*
X02538Y02481*
X02538Y02478*
X02539Y02474*
X0254Y02471*
X02542Y02467*
X02544Y02464*
X02544Y02464*
X02545Y02463*
X02546Y02462*
X02548Y02461*
X0255Y0246*
X02553Y02458*
X02557Y02458*
X02558Y02457*
X0256Y02457*
X02562*
X02563Y02457*
X02564*
X02565Y02458*
X02568Y02458*
X02568*
X02569Y02458*
X0257Y02459*
X02571Y02459*
X02573Y0246*
X02575Y02461*
X02576*
X02576Y02461*
X02576Y02461*
X02577Y02462*
X02579Y02463*
X02581Y02464*
X02581*
X02581Y02464*
X02582Y02465*
X02584Y02466*
X02585Y02467*
X02588*
Y0245*
X02588*
X02588Y0245*
X02587Y02449*
X02585Y02449*
X02583Y02448*
X02581Y02447*
X02579Y02446*
X02576Y02445*
X02574Y02445*
X02574*
X02573Y02444*
X02572Y02444*
X0257Y02444*
X02568Y02443*
X02566Y02443*
X02563Y02443*
X02561Y02443*
X02559*
X02558Y02443*
X02556Y02443*
X02553Y02443*
X0255Y02444*
X02547Y02444*
X02545Y02445*
X02544Y02445*
X02543Y02446*
X02542Y02446*
X0254Y02447*
X02538Y02448*
X02536Y0245*
X02534Y02451*
X02532Y02453*
X02532Y02454*
X02531Y02454*
X0253Y02455*
X02529Y02457*
X02528Y02459*
X02526Y02461*
X02525Y02464*
X02524Y02467*
Y02467*
X02523Y02467*
X02523Y02467*
X02523Y02468*
X02523Y0247*
X02522Y02472*
X02522Y02475*
X02521Y02478*
X02521Y02482*
X02521Y02486*
Y02486*
Y02486*
Y02487*
X02521Y02489*
X02521Y02491*
X02521Y02492*
X02522Y02495*
X02522Y02497*
X02523Y02502*
X02524Y02505*
X02525Y02507*
X02527Y0251*
X02528Y02512*
X0253Y02515*
X02532Y02517*
X02532Y02517*
X02532Y02517*
X02533Y02518*
X02534Y02519*
X02535Y0252*
X02536Y02521*
X02538Y02522*
X0254Y02523*
X02542Y02524*
X02544Y02525*
X02546Y02526*
X02549Y02527*
X02551Y02528*
X02554Y02528*
X02558Y02528*
X02561Y02529*
X02562*
X02563Y02528*
G37*
G36*
X02927Y02445D02*
X0291D01*
Y02453*
X0291Y02453*
X0291Y02453*
X02909Y02452*
X02907Y0245*
X02906Y02449*
X02904Y02448*
X02902Y02446*
X02899Y02445*
X02899Y02445*
X02898Y02445*
X02897Y02444*
X02895Y02444*
X02893Y02443*
X02891Y02443*
X02888Y02443*
X02885Y02442*
X02884*
X02883Y02443*
X02882*
X02881Y02443*
X02878Y02443*
X02874Y02444*
X02871Y02446*
X02868Y02448*
X02866Y02449*
X02865Y0245*
Y02451*
X02864Y02451*
X02864Y02451*
X02864Y02452*
X02863Y02453*
X02862Y02454*
X02862Y02455*
X02861Y02456*
X0286Y02458*
X0286Y0246*
X02859Y02462*
X02859Y02464*
X02858Y02466*
X02858Y02468*
X02858Y02471*
X02857Y02474*
Y02527*
X02874*
Y0248*
Y0248*
Y02479*
Y02478*
Y02477*
X02874Y02475*
Y02473*
X02874Y02472*
X02874Y0247*
Y0247*
X02874Y02469*
X02875Y02469*
X02875Y02468*
X02875Y02465*
X02876Y02463*
Y02463*
X02877Y02463*
X02878Y02462*
X02879Y0246*
X02881Y02459*
X02881*
X02881Y02459*
X02882Y02459*
X02883Y02459*
X02884Y02458*
X02885Y02458*
X02887Y02458*
X0289*
X02891Y02458*
X02892Y02458*
X02894Y02459*
X02896Y02459*
X02898Y0246*
X029Y0246*
X029Y02461*
X02901Y02461*
X02902Y02461*
X02903Y02462*
X02905Y02463*
X02907Y02464*
X0291Y02467*
Y02527*
X02927*
Y02445*
G37*
G36*
X02501D02*
X02485D01*
Y02453*
X02485Y02453*
X02484Y02453*
X02483Y02452*
X02482Y0245*
X0248Y02449*
X02478Y02448*
X02476Y02446*
X02474Y02445*
X02473Y02445*
X02473Y02445*
X02471Y02444*
X0247Y02444*
X02468Y02443*
X02465Y02443*
X02462Y02443*
X0246Y02442*
X02458*
X02457Y02443*
X02456*
X02455Y02443*
X02452Y02443*
X02449Y02444*
X02445Y02446*
X02442Y02448*
X02441Y02449*
X02439Y0245*
Y02451*
X02439Y02451*
X02438Y02451*
X02438Y02452*
X02437Y02453*
X02437Y02454*
X02436Y02455*
X02435Y02456*
X02435Y02458*
X02434Y0246*
X02433Y02462*
X02433Y02464*
X02432Y02466*
X02432Y02468*
X02432Y02471*
X02432Y02474*
Y02527*
X02448*
Y0248*
Y0248*
Y02479*
Y02478*
Y02477*
X02448Y02475*
Y02473*
X02448Y02472*
X02449Y0247*
Y0247*
X02449Y02469*
X02449Y02469*
X02449Y02468*
X0245Y02465*
X02451Y02463*
Y02463*
X02451Y02463*
X02452Y02462*
X02453Y0246*
X02455Y02459*
X02455*
X02456Y02459*
X02456Y02459*
X02457Y02459*
X02458Y02458*
X0246Y02458*
X02461Y02458*
X02464*
X02465Y02458*
X02467Y02458*
X02468Y02459*
X0247Y02459*
X02472Y0246*
X02474Y0246*
X02474Y02461*
X02475Y02461*
X02476Y02461*
X02478Y02462*
X02479Y02463*
X02481Y02464*
X02485Y02467*
Y02527*
X02501*
Y02445*
G37*
G36*
X03046Y02487D02*
X03083Y02527D01*
X03102*
X03065Y02489*
X03104Y02445*
X03084*
X03053Y02479*
X03046Y02472*
Y02445*
X0303*
Y02558*
X03046*
Y02487*
G37*
G36*
X02778Y02553D02*
X0278D01*
X02782Y02553*
X02786Y02553*
X0279Y02552*
X02794Y02552*
X02798Y02551*
X02798*
X02798Y02551*
X02799*
X02799Y0255*
X02801Y0255*
X02803Y02549*
X02806Y02548*
X02808Y02547*
X02811Y02546*
X02813Y02544*
X02814*
X02814Y02544*
X02814Y02544*
X02815Y02543*
X02816Y02542*
X02817Y02542*
X0282Y02539*
X02823Y02537*
X02825Y02534*
X02828Y0253*
X02831Y02526*
Y02526*
X02831Y02525*
X02831Y02525*
X02832Y02524*
X02832Y02523*
X02833Y02521*
X02833Y0252*
X02834Y02518*
X02835Y02516*
X02835Y02514*
X02836Y0251*
X02837Y02504*
X02837Y02499*
Y02499*
Y02498*
Y02497*
X02837Y02496*
Y02495*
X02837Y02493*
X02837Y02492*
X02836Y0249*
X02836Y02486*
X02834Y02481*
X02833Y02477*
X02831Y02472*
Y02472*
X0283Y02471*
X0283Y02471*
X02829Y0247*
X02829Y02469*
X02828Y02468*
X02826Y02465*
X02824Y02462*
X02821Y02459*
X02817Y02456*
X02813Y02453*
X02813Y02453*
X02812Y02452*
X0281Y02452*
X02808Y02451*
X02806Y0245*
X02803Y02448*
X028Y02447*
X02797Y02447*
X02796*
X02796Y02446*
X02795Y02446*
X02794Y02446*
X02793Y02446*
X02792Y02446*
X0279Y02446*
X02789Y02445*
X02787Y02445*
X02783Y02445*
X02778Y02445*
X02773Y02445*
X02745*
Y02553*
X02777*
X02778Y02553*
G37*
G36*
X02621Y02487D02*
X02657Y02527D01*
X02676*
X02639Y02489*
X02679Y02445*
X02659*
X02628Y02479*
X02621Y02472*
Y02445*
X02604*
Y02558*
X02621*
Y02487*
G37*
G36*
X02357Y02538D02*
X02319D01*
Y02445*
X02302*
Y02538*
X02265*
Y02553*
X02357*
Y02538*
G37*
%LNhvcape-2*%
%LPC*%
G36*
X03095Y02698D02*
X03053Y02648D01*
X03095*
Y02698*
G37*
G36*
X02285Y02703D02*
X02268D01*
Y02616*
X02285*
X02288Y02616*
X02291Y02617*
X02294Y02617*
X02297Y02617*
X02301Y02618*
X02301*
X02302Y02618*
X02304Y02618*
X02306Y02619*
X02308Y0262*
X0231Y02621*
X02313Y02622*
X02316Y02624*
X02316*
X02316Y02624*
X02317Y02625*
X02318Y02626*
X0232Y02627*
X02322Y02629*
X02325Y02632*
X02327Y02635*
X02328Y02638*
Y02638*
X02328Y02638*
X02329Y02639*
X02329Y02639*
X0233Y02641*
X0233Y02644*
X02331Y02647*
X02332Y02651*
X02332Y02655*
X02332Y0266*
Y0266*
Y0266*
Y02661*
Y02662*
X02332Y02663*
Y02665*
X02332Y02668*
X02331Y02671*
X0233Y02675*
X02329Y02679*
X02328Y02682*
Y02682*
X02328Y02683*
X02327Y02684*
X02326Y02685*
X02324Y02687*
X02322Y0269*
X0232Y02692*
X02317Y02695*
X02314Y02697*
X02314Y02697*
X02313Y02697*
X02311Y02698*
X0231Y02699*
X02307Y027*
X02305Y027*
X02302Y02701*
X023Y02702*
X02299*
X02298Y02702*
X02297Y02702*
X02295Y02703*
X02292Y02703*
X02289Y02703*
X02285Y02703*
G37*
G36*
X0274Y02706D02*
X02738D01*
X02737Y02706*
X02736Y02705*
X02734Y02705*
X02732Y02705*
X0273Y02704*
X02726Y02703*
X02724Y02702*
X02722Y02701*
X02719Y02699*
X02717Y02698*
X02715Y02696*
X02713Y02694*
X02713Y02694*
X02713Y02693*
X02712Y02692*
X02712Y02692*
X02711Y0269*
X0271Y02689*
X02709Y02687*
X02708Y02685*
X02707Y02683*
X02707Y0268*
X02706Y02677*
X02705Y02674*
X02705Y02671*
X02704Y02667*
X02704Y02664*
X02704Y0266*
Y0266*
Y02659*
Y02657*
X02704Y02656*
X02704Y02654*
X02704Y02652*
X02704Y0265*
X02705Y02647*
X02706Y02641*
X02708Y02636*
X02709Y02633*
X0271Y0263*
X02712Y02628*
X02713Y02625*
X02714Y02625*
X02714Y02625*
X02715Y02624*
X02715Y02624*
X02716Y02623*
X02717Y02622*
X02719Y02621*
X0272Y0262*
X02722Y02619*
X02724Y02618*
X02727Y02617*
X02729Y02616*
X02731Y02615*
X02734Y02614*
X02737Y02614*
X0274Y02614*
X02742*
X02743Y02614*
X02744Y02614*
X02746Y02614*
X0275Y02615*
X02754Y02617*
X02756Y02618*
X02758Y02619*
X0276Y0262*
X02762Y02622*
X02765Y02623*
X02767Y02625*
X02767Y02626*
X02767Y02626*
X02767Y02627*
X02768Y02628*
X02769Y02629*
X0277Y0263*
X02771Y02632*
X02772Y02634*
X02772Y02636*
X02773Y02639*
X02774Y02642*
X02775Y02645*
X02776Y02648*
X02776Y02652*
X02776Y02656*
X02777Y0266*
Y0266*
Y02661*
Y02662*
X02776Y02663*
X02776Y02665*
X02776Y02667*
X02776Y0267*
X02775Y02672*
X02774Y02678*
X02772Y02683*
X02771Y02686*
X0277Y02689*
X02768Y02691*
X02767Y02694*
X02767Y02694*
X02766Y02694*
X02766Y02695*
X02765Y02696*
X02764Y02697*
X02763Y02698*
X02761Y02699*
X0276Y027*
X02758Y02701*
X02756Y02702*
X02754Y02703*
X02751Y02704*
X02749Y02705*
X02746Y02705*
X02743Y02706*
X0274Y02706*
G37*
G36*
X02777Y02538D02*
X02762D01*
Y0246*
X02777*
X0278Y0246*
X02782Y0246*
X02785Y0246*
X02788Y0246*
X02791Y02461*
X02791*
X02792Y02461*
X02794Y02462*
X02795Y02462*
X02797Y02463*
X028Y02464*
X02802Y02465*
X02804Y02466*
X02805*
X02805Y02466*
X02805Y02467*
X02807Y02468*
X02808Y0247*
X0281Y02471*
X02812Y02474*
X02814Y02476*
X02816Y02479*
Y02479*
X02816Y02479*
X02816Y0248*
X02816Y0248*
X02817Y02482*
X02818Y02484*
X02818Y02487*
X02819Y02491*
X02819Y02495*
X02819Y02499*
Y02499*
Y02499*
Y025*
Y02501*
X02819Y02502*
Y02503*
X02819Y02506*
X02818Y02509*
X02818Y02512*
X02817Y02516*
X02815Y02519*
Y02519*
X02815Y02519*
X02814Y0252*
X02813Y02522*
X02812Y02524*
X0281Y02526*
X02808Y02528*
X02806Y0253*
X02803Y02532*
X02803Y02532*
X02802Y02532*
X02801Y02533*
X02799Y02534*
X02797Y02535*
X02795Y02535*
X02793Y02536*
X0279Y02537*
X0279*
X02789Y02537*
X02787Y02537*
X02785Y02537*
X02783Y02538*
X0278Y02538*
X02777Y02538*
G37*
%LNhvcape-3*%
%LPD*%
G54D22*
X03586Y02455D02*
D01*
X03586Y02455*
X03586Y02456*
X03585Y02457*
X03585Y02458*
X03585Y02458*
X03585Y02459*
X03584Y0246*
X03584Y0246*
X03584Y02461*
X03583Y02462*
X03583Y02462*
X03582Y02463*
X03581Y02463*
X03581Y02464*
X0358Y02464*
X03579Y02465*
X03579Y02465*
X03578Y02465*
X03577Y02465*
X03576Y02466*
X03576Y02466*
X03575Y02466*
X03574*
X03573Y02466*
X03573Y02466*
X03572Y02465*
X03571Y02465*
X0357Y02465*
X0357Y02465*
X03569Y02464*
X03568Y02464*
X03568Y02463*
X03567Y02463*
X03566Y02462*
X03566Y02462*
X03565Y02461*
X03565Y0246*
X03565Y0246*
X03564Y02459*
X03564Y02458*
X03564Y02458*
X03564Y02457*
X03563Y02456*
X03563Y02455*
X03563Y02455*
X03563Y02454*
X03563Y02453*
X03564Y02452*
X03564Y02451*
X03564Y02451*
X03564Y0245*
X03565Y02449*
X03565Y02449*
X03565Y02448*
X03566Y02447*
X03566Y02447*
X03567Y02446*
X03568Y02446*
X03568Y02445*
X03569Y02445*
X0357Y02444*
X0357Y02444*
X03571Y02444*
X03572Y02444*
X03573Y02443*
X03573Y02443*
X03574Y02443*
X03575*
X03576Y02443*
X03576Y02443*
X03577Y02444*
X03578Y02444*
X03579Y02444*
X03579Y02444*
X0358Y02445*
X03581Y02445*
X03581Y02446*
X03582Y02446*
X03583Y02447*
X03583Y02447*
X03584Y02448*
X03584Y02449*
X03584Y02449*
X03585Y0245*
X03585Y02451*
X03585Y02451*
X03585Y02452*
X03586Y02453*
X03586Y02454*
X03586Y02455*
X03401D02*
D01*
X03401Y02455*
X03401Y02456*
X034Y02457*
X034Y02458*
X034Y02458*
X034Y02459*
X03399Y0246*
X03399Y0246*
X03399Y02461*
X03398Y02462*
X03398Y02462*
X03397Y02463*
X03396Y02463*
X03396Y02464*
X03395Y02464*
X03394Y02465*
X03394Y02465*
X03393Y02465*
X03392Y02465*
X03391Y02466*
X03391Y02466*
X0339Y02466*
X03389*
X03388Y02466*
X03388Y02466*
X03387Y02465*
X03386Y02465*
X03385Y02465*
X03385Y02465*
X03384Y02464*
X03383Y02464*
X03383Y02463*
X03382Y02463*
X03381Y02462*
X03381Y02462*
X0338Y02461*
X0338Y0246*
X0338Y0246*
X03379Y02459*
X03379Y02458*
X03379Y02458*
X03379Y02457*
X03378Y02456*
X03378Y02455*
X03378Y02455*
X03378Y02454*
X03378Y02453*
X03379Y02452*
X03379Y02451*
X03379Y02451*
X03379Y0245*
X0338Y02449*
X0338Y02449*
X0338Y02448*
X03381Y02447*
X03381Y02447*
X03382Y02446*
X03383Y02446*
X03383Y02445*
X03384Y02445*
X03385Y02444*
X03385Y02444*
X03386Y02444*
X03387Y02444*
X03388Y02443*
X03388Y02443*
X03389Y02443*
X0339*
X03391Y02443*
X03391Y02443*
X03392Y02444*
X03393Y02444*
X03394Y02444*
X03394Y02444*
X03395Y02445*
X03396Y02445*
X03396Y02446*
X03397Y02446*
X03398Y02447*
X03398Y02447*
X03399Y02448*
X03399Y02449*
X03399Y02449*
X034Y0245*
X034Y02451*
X034Y02451*
X034Y02452*
X03401Y02453*
X03401Y02454*
X03401Y02455*
G54D24*
X03616Y02455D02*
D01*
X03616Y02457*
X03615Y0246*
X03615Y02463*
X03614Y02466*
X03613Y02468*
X03612Y02471*
X03611Y02473*
X0361Y02476*
X03608Y02478*
X03606Y0248*
X03604Y02482*
X03602Y02484*
X036Y02486*
X03598Y02488*
X03596Y02489*
X03593Y0249*
X03591Y02492*
X03588Y02493*
X03585Y02493*
X03583Y02494*
X0358Y02494*
X03577Y02494*
X03574*
X03572Y02494*
X03569Y02494*
X03566Y02493*
X03563Y02493*
X03561Y02492*
X03558Y0249*
X03556Y02489*
X03553Y02488*
X03551Y02486*
X03549Y02484*
X03547Y02482*
X03545Y0248*
X03543Y02478*
X03542Y02476*
X0354Y02473*
X03539Y02471*
X03538Y02468*
X03537Y02466*
X03537Y02463*
X03536Y0246*
X03536Y02457*
X03536Y02455*
X03536Y02452*
X03536Y02449*
X03537Y02446*
X03537Y02443*
X03538Y02441*
X03539Y02438*
X0354Y02436*
X03542Y02433*
X03543Y02431*
X03545Y02429*
X03547Y02427*
X03549Y02425*
X03551Y02423*
X03553Y02421*
X03556Y0242*
X03558Y02419*
X03561Y02417*
X03563Y02416*
X03566Y02416*
X03569Y02415*
X03572Y02415*
X03574Y02415*
X03577*
X0358Y02415*
X03583Y02415*
X03585Y02416*
X03588Y02416*
X03591Y02417*
X03593Y02419*
X03596Y0242*
X03598Y02421*
X036Y02423*
X03602Y02425*
X03604Y02427*
X03606Y02429*
X03608Y02431*
X0361Y02433*
X03611Y02436*
X03612Y02438*
X03613Y02441*
X03614Y02443*
X03615Y02446*
X03615Y02449*
X03616Y02452*
X03616Y02455*
X0343D02*
D01*
X03429Y02457*
X03429Y0246*
X03429Y02463*
X03428Y02466*
X03427Y02468*
X03426Y02471*
X03425Y02473*
X03423Y02476*
X03422Y02478*
X0342Y0248*
X03418Y02482*
X03416Y02484*
X03414Y02486*
X03412Y02488*
X0341Y02489*
X03407Y0249*
X03404Y02492*
X03402Y02493*
X03399Y02493*
X03396Y02494*
X03394Y02494*
X03391Y02494*
X03388*
X03385Y02494*
X03383Y02494*
X0338Y02493*
X03377Y02493*
X03375Y02492*
X03372Y0249*
X0337Y02489*
X03367Y02488*
X03365Y02486*
X03363Y02484*
X03361Y02482*
X03359Y0248*
X03357Y02478*
X03356Y02476*
X03354Y02473*
X03353Y02471*
X03352Y02468*
X03351Y02466*
X0335Y02463*
X0335Y0246*
X0335Y02457*
X0335Y02455*
X0335Y02452*
X0335Y02449*
X0335Y02446*
X03351Y02443*
X03352Y02441*
X03353Y02438*
X03354Y02436*
X03356Y02433*
X03357Y02431*
X03359Y02429*
X03361Y02427*
X03363Y02425*
X03365Y02423*
X03367Y02421*
X0337Y0242*
X03372Y02419*
X03375Y02417*
X03377Y02416*
X0338Y02416*
X03383Y02415*
X03385Y02415*
X03388Y02415*
X03391*
X03394Y02415*
X03396Y02415*
X03399Y02416*
X03402Y02416*
X03404Y02417*
X03407Y02419*
X0341Y0242*
X03412Y02421*
X03414Y02423*
X03416Y02425*
X03418Y02427*
X0342Y02429*
X03422Y02431*
X03423Y02433*
X03425Y02436*
X03426Y02438*
X03427Y02441*
X03428Y02443*
X03429Y02446*
X03429Y02449*
X03429Y02452*
X0343Y02455*
X03596Y02738D02*
D01*
X03596Y02739*
X03596Y0274*
X03596Y02741*
X03596Y02742*
X03595Y02743*
X03595Y02744*
X03594Y02745*
X03594Y02746*
X03593Y02747*
X03593Y02748*
X03592Y02748*
X03591Y02749*
X0359Y0275*
X03589Y0275*
X03588Y02751*
X03588Y02752*
X03587Y02752*
X03586Y02752*
X03585Y02753*
X03583Y02753*
X03582Y02753*
X03581Y02753*
X0358*
X03579Y02753*
X03578Y02753*
X03577Y02753*
X03576Y02752*
X03575Y02752*
X03574Y02752*
X03573Y02751*
X03572Y0275*
X03571Y0275*
X03571Y02749*
X0357Y02748*
X03569Y02748*
X03568Y02747*
X03568Y02746*
X03567Y02745*
X03567Y02744*
X03566Y02743*
X03566Y02742*
X03566Y02741*
X03566Y0274*
X03566Y02739*
X03566Y02738*
X03566Y02737*
X03566Y02736*
X03566Y02735*
X03566Y02734*
X03566Y02733*
X03567Y02732*
X03567Y02731*
X03568Y0273*
X03568Y02729*
X03569Y02728*
X0357Y02727*
X03571Y02726*
X03571Y02726*
X03572Y02725*
X03573Y02725*
X03574Y02724*
X03575Y02724*
X03576Y02723*
X03577Y02723*
X03578Y02723*
X03579Y02723*
X0358Y02723*
X03581*
X03582Y02723*
X03583Y02723*
X03585Y02723*
X03586Y02723*
X03587Y02724*
X03588Y02724*
X03588Y02725*
X03589Y02725*
X0359Y02726*
X03591Y02726*
X03592Y02727*
X03593Y02728*
X03593Y02729*
X03594Y0273*
X03594Y02731*
X03595Y02732*
X03595Y02733*
X03596Y02734*
X03596Y02735*
X03596Y02736*
X03596Y02737*
X03596Y02738*
X03629Y02675D02*
D01*
X03633Y02675*
X03637Y02675*
X0364Y02675*
X03644Y02675*
X03648Y02676*
X03651Y02677*
X03655Y02678*
X03658Y0268*
X03661Y02681*
X03665Y02683*
X03668Y02685*
X0367Y02688*
X03673Y0269*
X03676Y02693*
X03678Y02696*
X0368Y02699*
X03682Y02702*
X03684Y02705*
X03685Y02709*
X03686Y02712*
X03687Y02716*
X03688Y02719*
X03689Y02723*
X03689Y02727*
X03689Y0273*
X03688Y02734*
X03688Y02738*
X03688Y02738*
X03511Y02659D02*
D01*
X03479Y0266*
X03446Y02658*
X03444Y02658*
X03617Y02661D02*
D01*
X03621Y02665*
X03624Y02669*
X03627Y02673*
X0363Y02678*
X03633Y02682*
X03635Y02687*
X03637Y02692*
X03638Y02698*
X03639Y02703*
X0364Y02708*
X0364Y02714*
X0364Y02719*
X0364Y02724*
X03639Y0273*
X03638Y02735*
X03636Y0274*
X03635Y02745*
X03632Y0275*
X0363Y02755*
X03627Y02759*
X03624Y02764*
X0362Y02768*
X03616Y02772*
X03612Y02775*
X03608Y02779*
X03604Y02782*
X03599Y02784*
X03594Y02787*
X03589Y02789*
X03584Y0279*
X03579Y02792*
X03574Y02792*
X03568Y02793*
X03563Y02793*
X03557Y02793*
X03552Y02792*
X03547Y02791*
X03542Y0279*
X03536Y02788*
X03531Y02786*
X03527Y02784*
X03522Y02781*
X03518Y02778*
X03513Y02775*
X03509Y02771*
X03506Y02767*
X03502Y02763*
X03499Y02759*
X03496Y02754*
X03494Y0275*
X03491Y02745*
X0349Y0274*
X03488Y02734*
X03487Y02729*
X03486Y02724*
X03486Y02718*
X03486Y02713*
X03486Y02708*
X03487Y02702*
X03488Y02697*
X0349Y02692*
X03492Y02687*
X03494Y02682*
X03496Y02677*
X03499Y02673*
X03502Y02668*
X03506Y02664*
X0351Y0266*
X03511Y02659*
X03595Y02505D02*
D01*
X03601Y02512*
X03607Y02519*
X03612Y02527*
X03616Y02535*
X0362Y02544*
X03624Y02553*
X03627Y02562*
X03629Y02571*
X0363Y0258*
X03631Y0259*
X03632Y02599*
X03631Y02609*
X0363Y02618*
X03628Y02627*
X03626Y02637*
X03623Y02646*
X03619Y02654*
X03615Y02662*
X03363Y02516D02*
D01*
X03379Y02508*
X03396Y02501*
X03414Y02495*
X03431Y0249*
X0345Y02487*
X03468Y02484*
X03486Y02483*
X03505Y02484*
X03523Y02485*
X03541Y02488*
X03559Y02492*
X03577Y02498*
X03594Y02504*
X03595Y02505*
X03379Y0271D02*
D01*
X03372Y02702*
X03365Y02693*
X03359Y02684*
X03354Y02674*
X03349Y02664*
X03346Y02654*
X03342Y02643*
X0334Y02632*
X03338Y02621*
X03337Y0261*
X03337Y02599*
X03338Y02588*
X03339Y02577*
X03341Y02566*
X03344Y02556*
X03348Y02545*
X03352Y02535*
X03357Y02525*
X03363Y02516*
X03441Y02658D02*
D01*
X03434Y02667*
X03427Y02675*
X03419Y02683*
X03411Y0269*
X03402Y02697*
X03393Y02703*
X03383Y02708*
X03379Y0271*
X03636Y02738D02*
X03688D01*
G54D39*
X03696Y03368D03*
X03637D03*
X03758Y02956D03*
X03817D03*
X04285Y03415D03*
X04344D03*
X04285Y03045D03*
X04344D03*
X04587Y02996D03*
X04528D03*
X04562Y02568D03*
X04621D03*
X04562Y02513D03*
X04621D03*
X04552Y03678D03*
X04611D03*
X04552Y03623D03*
X04611D03*
X04523Y02821D03*
X04582D03*
X04577Y03191D03*
X04518D03*
X04582Y03361D03*
X04523D03*
G54D40*
X03534Y03262D03*
Y03237D03*
Y03211D03*
Y03185D03*
Y0316D03*
Y03134D03*
Y03109D03*
Y03083D03*
Y03057D03*
Y03032D03*
X0376Y03262D03*
Y03237D03*
Y03211D03*
Y03185D03*
Y0316D03*
Y03134D03*
Y03109D03*
Y03083D03*
Y03057D03*
Y03032D03*
G54D41*
X02535Y0289D03*
Y03065D03*
G54D42*
X04461Y02567D03*
Y02626D03*
X04456Y03251D03*
Y03192D03*
X04463Y02938D03*
Y02997D03*
X04461Y02881D03*
Y02822D03*
Y03677D03*
Y03736D03*
Y03562D03*
Y03621D03*
Y02511D03*
Y02452D03*
X04458Y03303D03*
Y03362D03*
G54D43*
X02271Y03791D03*
X02346D03*
G54D44*
X03903Y03687D03*
Y03612D03*
X03796D03*
Y0365D03*
Y03687D03*
X03903Y02562D03*
Y02487D03*
X03796D03*
Y02525D03*
Y02562D03*
G54D45*
X02505Y03363D03*
Y03313D03*
Y03263D03*
Y03213D03*
X02696Y03363D03*
Y03313D03*
Y03263D03*
Y03213D03*
X04283Y02464D03*
Y02514D03*
Y02564D03*
Y02614D03*
X04092Y02464D03*
Y02514D03*
Y02564D03*
Y02614D03*
X04283Y02834D03*
Y02884D03*
Y02934D03*
Y02984D03*
X04092Y02834D03*
Y02884D03*
Y02934D03*
Y02984D03*
Y03354D03*
Y03304D03*
Y03254D03*
Y03204D03*
X04283Y03354D03*
Y03304D03*
Y03254D03*
Y03204D03*
Y03574D03*
Y03624D03*
Y03674D03*
Y03724D03*
X04092Y03574D03*
Y03624D03*
Y03674D03*
Y03724D03*
G54D46*
X03306Y03368D03*
X03196D03*
G54D47*
X0332Y0379D03*
Y03525D03*
G54D48*
X02328Y03671D03*
Y03596D03*
G54D49*
X0269Y0298D03*
G54D50*
X0296Y0298D03*
G54D51*
X05154Y02748D03*
Y02857D03*
X05043Y03021D03*
X05154Y03294D03*
Y02966D03*
Y03076D03*
X05043Y02694D03*
Y02803D03*
Y02912D03*
Y0313D03*
X05154Y03185D03*
X05043Y03239D03*
Y03348D03*
X05154Y03403D03*
G54D52*
X05328Y02101D03*
X05228D03*
X05128D03*
X05028D03*
X04928D03*
X05293Y04026D03*
X05193D03*
X05093D03*
X04993D03*
X04893D03*
X04508Y04051D03*
X04408D03*
X04308D03*
X04208D03*
X04108D03*
X04008D03*
X03908D03*
X03808D03*
X03708D03*
X03608D03*
X03508D03*
X03408D03*
X03308D03*
X03208D03*
X03108D03*
X03008D03*
X02908D03*
X02808D03*
X02708D03*
X02608D03*
X02508D03*
X02408D03*
X02308D03*
X04508Y03951D03*
X04408D03*
X04308D03*
X04208D03*
X04108D03*
X04008D03*
X03908D03*
X03808D03*
X03708D03*
X03608D03*
X03508D03*
X03408D03*
X03308D03*
X03208D03*
X03108D03*
X03008D03*
X02908D03*
X02808D03*
X02708D03*
X02608D03*
X02508D03*
X02408D03*
Y02051D03*
X02508D03*
X02608D03*
X02708D03*
X02808D03*
X02908D03*
X03008D03*
X03108D03*
X03208D03*
X03308D03*
X03408D03*
X03508D03*
X03608D03*
X03708D03*
X03808D03*
X03908D03*
X04008D03*
X04108D03*
X04208D03*
X04308D03*
X04408D03*
X04508D03*
X02308Y02151D03*
X02408D03*
X02508D03*
X02608D03*
X02708D03*
X02808D03*
X02908D03*
X03008D03*
X03108D03*
X03208D03*
X03308D03*
X03408D03*
X03508D03*
X03608D03*
X03708D03*
X03808D03*
X03908D03*
X04008D03*
X04108D03*
X04208D03*
X04308D03*
X04408D03*
X04508D03*
G54D53*
X03074Y03738D03*
G54D54*
X03074Y03638D03*
Y03538D03*
G54D55*
X02308Y03951D03*
Y02051D03*
G54D56*
X05099Y0242D03*
Y03731D03*
G54D57*
X05043Y03457D03*
G54D58*
X04795Y0293D03*
X048Y0287D03*
X033Y0325D03*
X03415Y03D03*
X03395Y0325D03*
X03345Y03D03*
X04275Y02755D03*
X03982Y03687D03*
X0242Y03555D03*
X0373Y03595D03*
X0401Y0292D03*
X0384Y02865D03*
X0364Y03245D03*
X0479Y0323D03*
X0481Y0333D03*
G54D59*
X0306Y0225D03*
X03665Y0284D03*
X0409Y03465D03*
X03805Y02375D03*
G54D60*
X03145Y02975D03*
M02*